<svg width="116" height="23" viewBox="0 0 116 23" fill="none" xmlns="http://www.w3.org/2000/svg">
<path d="M5.39725 12.4153C3.73146 12.4153 2.42143 12.0547 1.46716 11.3336C-0.437199 9.89556 -0.207002 6.7652 0.586131 4.78528C1.70782 1.95087 4.39903 0.644126 7.34346 0.644126C9.44872 0.644126 12.4978 1.15682 12.4978 3.85993C12.4978 7.37794 8.73092 7.81977 6.01041 7.81977C5.30788 7.82265 4.60573 7.78647 3.90725 7.7114C3.63101 9.42038 4.73177 9.6413 6.19457 9.66214C7.27199 9.64411 8.34091 9.46856 9.3671 9.14111C9.65171 9.064 9.82959 9.01814 9.99491 9.29117L10.8111 10.9856C10.9345 11.194 10.8383 11.3607 10.5223 11.5003C8.96949 12.186 7.05048 12.4215 5.39515 12.4215L5.39725 12.4153ZM19.8348 3.03254C18.7675 3.03254 17.9514 3.49104 17.7567 4.57687L16.7836 9.80803C17.4449 9.91222 18.1127 9.96933 18.7822 9.97893C19.8578 9.97893 21.6471 9.68507 21.6471 8.26369C21.6471 7.11742 19.9959 7.19245 19.2028 7.19245C18.87 7.19245 18.6064 7.1591 18.6775 6.76312L18.8617 5.73356C18.9433 5.28131 19.3053 5.25213 19.6988 5.21878C20.3684 5.1646 21.4859 4.9145 21.4859 4.03917C21.4901 3.22844 20.4396 3.0242 19.8348 3.0242V3.03254ZM13.9752 4.55395C14.4921 1.52988 17.3487 0.596191 20.0692 0.596191C21.8187 0.596191 25.0603 1.03386 25.144 3.38267C25.1837 4.51435 24.3508 5.44804 23.3296 5.82735V5.93364C24.5078 6.2671 25.4851 6.9757 25.4851 8.29078C25.4851 11.5712 21.2264 12.4069 18.7005 12.4069C16.9134 12.4069 14.8981 12.2631 13.2323 11.5733C12.91 11.4399 12.8138 11.269 12.864 10.9314L13.9752 4.55395ZM29.0678 16.1875C29.0071 16.5418 28.7811 16.5523 28.463 16.5523H25.8115C25.5206 16.5523 25.2779 16.5418 25.3386 16.1875L27.7577 2.20931C27.7902 2.05141 27.8661 1.90562 27.977 1.78821C28.0878 1.6708 28.2293 1.58641 28.3856 1.54447C30.1371 0.887969 32.1252 0.685809 33.9856 0.685809C37.2105 0.685809 39.7217 1.88418 39.6359 5.44595C39.5313 9.76635 36.8463 12.3715 32.5961 12.3715C31.6524 12.3779 30.7103 12.2921 29.7835 12.1152L29.0678 16.1875ZM33.226 3.36808C32.5617 3.36639 31.8997 3.44548 31.2546 3.60359L30.2543 9.45581C30.9258 9.61727 31.6145 9.69635 32.3052 9.69132C34.6909 9.69132 35.8293 7.84478 35.8293 5.63978C35.8293 3.98081 34.7788 3.36808 33.226 3.36808ZM47.7409 3.28263C46.1317 3.28263 45.1083 4.4018 44.717 5.87737C44.2482 7.64679 44.3361 9.77885 46.6632 9.77885C48.9903 9.77885 49.8713 7.40712 49.8713 5.4272C49.8713 4.04334 49.1389 3.28263 47.7409 3.28263ZM48.082 0.646211C51.1709 0.646211 53.7323 1.94879 53.7323 5.34175C53.7323 9.97267 50.5933 12.4611 46.2384 12.4153C43.2751 12.384 40.6111 11.319 40.6111 7.97817C40.5931 6.91053 40.7806 5.84934 41.1636 4.85198C42.3334 1.95087 45.1188 0.644126 48.0841 0.644126L48.082 0.646211ZM61.0233 3.21802C60.4514 3.20714 59.8796 3.24269 59.3136 3.32431L57.8487 11.7921C57.7859 12.1568 57.5829 12.1777 57.2439 12.1777H54.6343C54.3434 12.1777 54.0714 12.1485 54.1341 11.7921L55.7392 2.59487C55.9234 1.53822 56.5659 1.02761 57.6059 0.858791C58.8256 0.693661 60.0564 0.623977 61.287 0.650378C63.5555 0.650378 66.728 0.93382 67.3349 3.62026C67.4902 4.47564 67.481 5.35262 67.3077 6.20458L66.3618 11.8005C66.299 12.1673 66.096 12.186 65.757 12.186H63.1265C62.8335 12.186 62.5656 12.1568 62.6263 11.8005L63.6266 6.01492C63.7417 5.35425 63.8212 4.48309 63.365 3.93079C62.8356 3.26804 61.785 3.21802 61.0233 3.21802ZM89.9967 3.28263C88.4314 3.28263 87.3369 4.26842 86.8284 5.69396C86.0101 7.9865 86.3868 9.84554 89.1827 9.79969C89.7954 9.78487 90.4043 9.69884 90.997 9.54334C91.3089 7.51132 91.6374 5.46471 92.0748 3.45561C91.5358 3.36401 90.9911 3.31038 90.4446 3.29513C90.2688 3.28471 90.1181 3.28263 89.9967 3.28263ZM90.1746 0.667052C91.9606 0.672285 93.7411 0.866504 95.4859 1.24644C95.9274 1.34231 96.0656 1.49862 95.986 1.93212C95.4085 5.0333 94.8664 8.15323 94.4353 11.2794C94.4235 11.3818 94.3788 11.4776 94.3079 11.5527C94.2371 11.6278 94.1438 11.6781 94.0419 11.6962C92.2268 12.1966 90.3503 12.4421 88.467 12.4257C85.3279 12.4257 82.6576 11.4503 82.6576 8.04903C82.6428 7.00328 82.8085 5.96277 83.1473 4.97286C84.2355 1.91336 87.0963 0.667052 90.1746 0.667052ZM80.5482 11.4649L80.4959 11.7734V11.79C80.4289 12.1443 80.2364 12.1798 79.8953 12.1798H77.2941C76.909 12.1798 76.7709 12.0401 76.8211 11.7504L78.2462 3.45353H75.1386C74.7849 4.95201 74.4584 6.46301 74.0085 7.9344C73.1714 10.6584 71.5621 11.9505 68.8291 12.607C68.557 12.6716 68.2013 12.6841 68.0673 12.3507L67.4604 10.8084C67.3056 10.4124 67.4918 10.2561 67.8539 10.1227C69.4527 9.53292 70.1705 8.85767 70.7585 7.11117C71.2378 5.6898 71.5056 3.86827 71.9284 2.19055C72.1774 1.20476 72.7654 0.925484 73.7427 0.925484H80.8579C81.8268 0.925484 82.3228 1.21101 82.147 2.22806V2.25307L80.5482 11.4649ZM99.8785 11.7504C99.8115 12.1485 99.6252 12.1798 99.2507 12.1798H96.6787C96.2937 12.1798 96.1304 12.038 96.1786 11.7504L97.9929 1.3298C98.0411 1.05678 98.2462 0.912979 98.5977 0.912979H101.174C101.528 0.912979 101.739 0.912979 101.674 1.3298L101.069 4.99578H105.803L106.431 1.3298C106.477 1.05678 106.694 0.912979 107.059 0.912979H109.637C109.986 0.912979 110.206 0.912979 110.137 1.3298L108.322 11.7504C108.253 12.1464 108.103 12.1798 107.718 12.1798H105.146C104.761 12.1798 104.598 12.038 104.646 11.7504L105.382 7.44254H100.623L99.8785 11.7504ZM7.1321 3.23886C5.66721 3.23886 4.56854 4.10169 4.2651 5.5314C5.20156 5.6082 6.14318 5.59773 7.07769 5.50014C7.84361 5.41261 8.81253 5.21462 8.81253 4.26842C8.81463 3.38267 7.81013 3.23886 7.1321 3.23886Z" fill="white"/>
<path d="M109.669 15.9669C83.5604 11.0066 58.7703 13.8827 32.3039 22.0233C31.561 22.2526 31.4668 22.5381 32.4253 22.3339C56.8366 17.0985 83.3428 15.3604 109.575 16.4983C110.104 16.5212 110.87 16.5379 110.868 16.4066C110.866 16.2753 110.627 16.144 109.669 15.9627" fill="#F56920"/>
<path d="M114.033 1.18009C114.361 1.18009 114.681 1.2769 114.954 1.45827C115.226 1.63965 115.439 1.89744 115.564 2.19905C115.689 2.50067 115.722 2.83255 115.658 3.15274C115.594 3.47293 115.436 3.76705 115.205 3.99789C114.973 4.22873 114.678 4.38594 114.356 4.44963C114.035 4.51332 113.701 4.48063 113.398 4.3557C113.096 4.23077 112.837 4.0192 112.655 3.74776C112.472 3.47632 112.375 3.15718 112.375 2.83072C112.376 2.39312 112.551 1.97359 112.861 1.66416C113.172 1.35473 113.593 1.18064 114.033 1.18009ZM114.033 0.97168C113.664 0.97168 113.303 1.08071 112.996 1.28498C112.689 1.48926 112.449 1.7796 112.308 2.1193C112.167 2.45899 112.13 2.83278 112.202 3.1934C112.274 3.55402 112.452 3.88527 112.713 4.14526C112.974 4.40525 113.306 4.58231 113.669 4.65404C114.031 4.72577 114.406 4.68896 114.747 4.54825C115.088 4.40754 115.38 4.16927 115.585 3.86355C115.79 3.55783 115.899 3.1984 115.899 2.83072C115.899 2.33803 115.702 1.86571 115.352 1.51753C115.002 1.16934 114.527 0.973764 114.033 0.973764V0.97168Z" fill="white"/>
<path d="M114.352 2.88923C114.422 2.90849 114.484 2.94938 114.528 3.00594C114.567 3.06267 114.596 3.12533 114.614 3.19143L114.786 3.81666C114.789 3.82603 114.789 3.83647 114.786 3.84584C114.786 3.84584 114.771 3.86043 114.754 3.86043H114.593H114.566C114.566 3.86043 114.549 3.84793 114.545 3.83334L114.388 3.26854C114.374 3.21587 114.351 3.16588 114.321 3.12057C114.297 3.08487 114.265 3.05439 114.229 3.03095C114.193 3.0086 114.153 2.99305 114.112 2.9851C114.066 2.97618 114.02 2.97199 113.974 2.97259H113.515V3.82708C113.518 3.83202 113.519 3.83734 113.519 3.84272C113.519 3.84809 113.518 3.85341 113.515 3.85835C113.505 3.86169 113.494 3.86169 113.484 3.85835H113.335C113.325 3.86155 113.314 3.86155 113.304 3.85835C113.302 3.85341 113.301 3.84809 113.301 3.84272C113.301 3.83734 113.302 3.83202 113.304 3.82708V1.95137C113.301 1.91495 113.312 1.87876 113.333 1.84925C113.347 1.83599 113.364 1.82595 113.383 1.81983C113.401 1.81371 113.421 1.81166 113.44 1.81382H114.103C114.189 1.81238 114.274 1.82651 114.355 1.8555C114.426 1.88169 114.49 1.92212 114.545 1.9743C114.598 2.02493 114.639 2.08599 114.666 2.15353C114.695 2.22519 114.709 2.30161 114.708 2.37862C114.71 2.48844 114.679 2.59635 114.62 2.68915C114.561 2.78081 114.471 2.84925 114.367 2.88298L114.352 2.88923ZM114.463 2.38695C114.464 2.3403 114.457 2.29389 114.442 2.2494C114.428 2.20525 114.405 2.1647 114.373 2.13061C114.336 2.09659 114.292 2.071 114.244 2.05558C114.185 2.03328 114.122 2.02266 114.059 2.02432H113.52V2.76627H114.043C114.1 2.77134 114.157 2.76472 114.212 2.74679C114.266 2.72887 114.316 2.70003 114.359 2.66206C114.394 2.62559 114.421 2.58242 114.439 2.53515C114.457 2.48787 114.465 2.43746 114.463 2.38695Z" fill="white"/>
</svg>
