<svg width="119" height="27" viewBox="0 0 119 27" fill="none" xmlns="http://www.w3.org/2000/svg">
<path d="M79.0265 12.3591L79.098 11.2181C79.2414 11.2893 79.456 11.2893 79.6709 11.2893C80.6736 11.2893 80.745 9.79178 80.745 5.51258H85.4716V12.3591H84.0394V6.65373H82.0343C82.0343 10.3624 81.8911 12.4305 80.0291 12.4305C79.6709 12.5017 79.313 12.4305 79.0265 12.3591ZM87.1187 5.58397H88.4792V8.08006C88.4792 8.79323 88.4077 10.077 88.4077 10.7187L91.3438 5.58377H92.8477V12.4305H91.487V9.93438C91.487 9.22121 91.5585 7.93747 91.5585 7.29569L88.6224 12.4305H87.1185V5.58397H87.1187ZM93.9931 12.2877L94.1363 11.0753C94.6376 11.3605 95.282 11.4319 95.8551 11.4319C96.4995 11.4319 97.2871 11.2893 97.2871 10.4334C97.2871 9.50619 96.2844 9.4348 95.64 9.4348C95.4968 9.4348 95.3537 9.4348 95.1388 9.4348V8.36505C95.282 8.36505 95.4253 8.36505 95.4968 8.36505C96.1412 8.36505 97.2154 8.22245 97.2154 7.36649C97.2154 6.65332 96.4993 6.51073 95.9266 6.51073C95.4253 6.51073 94.709 6.65332 94.2793 6.79591L94.1361 5.72617C94.709 5.58357 95.4968 5.44098 96.1413 5.44098C97.502 5.44098 98.5761 5.94015 98.5761 7.2239C98.5761 7.93706 98.0749 8.50764 97.2871 8.72143C98.1466 8.86402 98.7193 9.57739 98.7193 10.3618C98.7193 11.8595 97.5737 12.4299 95.9981 12.4299C95.2822 12.5731 94.5661 12.4305 93.9931 12.2877ZM100.08 5.58397H101.441V8.08006C101.441 8.79323 101.369 10.077 101.369 10.7187L104.305 5.58377H105.809V12.4305H104.449V9.93438C104.449 9.22121 104.52 7.93747 104.52 7.29569L101.584 12.4305H100.08V5.58397ZM107.528 5.58397H108.96V8.29405H111.681V5.58397H113.113V12.4305H111.681V9.435H108.96V12.4305H107.528V5.58397H107.528ZM114.689 5.58397H118.699V6.72512H116.05V12.4305H114.617V5.58397H114.689ZM63.0572 22.7H66.1364C67.2823 22.7 67.9984 22.4148 68.4996 21.7728C68.7143 21.4877 69.0725 20.9171 69.0725 19.8473C69.0725 18.7776 68.7145 18.0642 67.9984 17.4938C67.5686 17.2087 66.9957 16.9947 66.0648 16.9947H62.9855V22.7H63.0572ZM58.9756 26.1235V5.58397H72.4384L71.2927 9.00722H63.0574V13.5714H66.4232C69.0727 13.5714 70.5052 14.2134 71.4361 14.9977C72.1522 15.6397 73.4411 17.0659 73.4411 19.8475C73.4411 22.6288 72.1522 24.1265 71.0064 24.9111C69.7174 25.7669 68.3568 26.0521 65.6354 26.0521H58.9758V26.1235H58.9756ZM47.088 26.1235V9.00722H41.1442V5.58397H57.7579L56.6122 9.00722H51.3132V26.1235H47.088ZM30.4743 13.7854H32.7658C33.4821 13.7854 33.84 13.7854 34.198 13.7142C35.129 13.429 35.7734 12.5731 35.7734 11.4321C35.7734 10.0772 35.129 9.4352 34.198 9.15001C33.84 9.00742 33.4819 8.93602 32.6941 8.93602H30.5458V13.7856H30.4743V13.7854ZM30.546 17.3514V22.7714H33.4104C34.2699 22.7714 35.0577 22.7002 35.6304 22.2008C36.2031 21.7015 36.418 20.9885 36.418 20.1327C36.418 19.4909 36.2033 18.8492 35.9168 18.3498C35.3439 17.6364 34.5563 17.4226 33.2672 17.4226H30.546V17.3514ZM37.1343 15.2119C37.9219 15.5683 38.6382 16.0677 39.0677 16.3529C40.2853 17.3514 40.7865 18.635 40.7865 20.3467C40.7865 23.128 39.2826 25.1963 36.8477 25.8381C36.1316 26.0521 35.3439 26.1235 33.84 26.1235H26.3926V5.58397H32.9809C34.3414 5.58397 35.2724 5.65537 36.0602 5.86916C38.4231 6.51113 39.9987 8.15125 39.9987 10.7187C39.9987 12.0737 39.4975 13.2862 38.7099 14.0708C38.4231 14.4272 37.9219 14.8552 37.1343 15.2119Z" fill="white"/>
<path d="M22.1666 4.01438H4.69362L5.98264 0.876526H23.4557L22.1666 4.01438ZM21.5222 5.58352H4.04921L2.76018 8.72138H20.2334L21.5222 5.58352ZM19.6603 10.2191H2.18726L0.898438 13.357H18.3715L19.6603 10.2191Z" fill="#A7B9E6"/>
</svg>
