<svg width="98" height="29" viewBox="0 0 98 29" fill="none" xmlns="http://www.w3.org/2000/svg">
<path fill-rule="evenodd" clip-rule="evenodd" d="M50.3907 0.0694507C49.5867 0.261341 48.9612 0.805095 48.5285 1.68836C48.0288 2.70841 48.0561 2.04651 48.0764 12.636L48.0946 22.0852L48.2502 22.5107C48.6283 23.5447 49.2055 24.2421 49.997 24.6213C50.3184 24.7752 50.4372 24.7944 51.0712 24.7944C51.7422 24.7944 51.8086 24.782 52.2031 24.5834C52.8275 24.269 53.313 23.745 53.6553 23.016C53.8103 22.6858 53.9687 22.258 54.0073 22.0654C54.1022 21.592 54.1048 3.49718 54.0101 2.90116C53.8662 1.99536 53.3167 0.982587 52.7295 0.540985C52.1116 0.0763902 51.163 -0.114907 50.3907 0.0694507ZM37.2624 0.65629C37.0808 0.855189 36.3778 2.10802 35.9889 2.92561C35.5049 3.94321 35.4364 4.11469 35.0523 5.26834C33.8671 8.82922 33.6047 12.8953 34.3103 16.7659C34.558 18.1248 35.1262 20.0127 35.6827 21.3253C35.9966 22.0657 36.5947 23.2057 37.0261 23.8858L37.2881 24.2988H38.6406C40.1362 24.2988 40.0516 24.3315 39.6662 23.9031C39.5841 23.8118 39.3523 23.5141 39.1512 23.2416C38.9502 22.969 38.7627 22.7361 38.7346 22.724C38.7066 22.7118 38.6836 22.6753 38.6836 22.6426C38.6836 22.61 38.5406 22.3658 38.3658 22.1C37.8996 21.391 37.2563 20.0576 36.9081 19.0786C36.8112 18.8061 36.6884 18.4649 36.6353 18.3205C36.4826 17.9056 36.1139 16.2713 36.0014 15.5104C35.6372 13.049 35.7455 10.2317 36.2932 7.91668C36.6353 6.47123 36.9865 5.49095 37.6514 4.12697C38.1077 3.19078 38.9275 1.87708 39.453 1.23982C39.8891 0.711132 39.9121 0.681132 39.9292 0.620939C39.9378 0.590741 39.3644 0.561006 38.655 0.554861C37.5146 0.545081 37.3531 0.556777 37.2624 0.65629ZM40.5532 0.609837C40.5099 1.08123 40.5414 3.22045 40.5917 3.22329C40.6272 3.22533 41.0094 3.22395 41.441 3.22025C41.8726 3.21649 42.3018 3.233 42.3948 3.25685L42.564 3.3002L42.5804 13.7435L42.5968 24.1867L43.5183 24.1932L44.4399 24.1997L44.4481 13.8089C44.4526 8.09397 44.4599 3.38101 44.4644 3.33555C44.4704 3.27397 44.7354 3.2492 45.5074 3.23823L46.5422 3.22348L46.5516 1.94971C46.5568 1.24915 46.5422 0.64618 46.5193 0.609837C46.4925 0.567349 45.4202 0.543759 43.5184 0.543759C41.5929 0.543759 40.5572 0.566821 40.5532 0.609837ZM56.9493 0.587569C56.9347 0.611621 56.9156 2.85662 56.9069 5.57646C56.8916 10.3349 56.8963 10.5589 57.0303 11.5127C57.2738 13.2451 57.7711 14.9695 58.4121 16.3034C58.6399 16.7773 59.4829 18.2584 59.6187 18.4231C59.7726 18.6099 59.7657 18.6354 59.1704 20.0698C58.8147 20.9267 57.9627 22.5312 57.7667 22.7129C57.7471 22.7311 57.6102 22.9095 57.4624 23.1094C57.2067 23.4552 57.0939 23.5891 56.6415 24.0841L56.4453 24.2988H57.806H59.1668L59.2902 24.051C59.3581 23.9148 59.4341 23.7874 59.4592 23.7681C59.5483 23.6995 60.5918 21.5447 60.8822 20.8297C61.9708 18.149 62.6595 15.2715 62.954 12.1735C63.013 11.5526 63.0334 9.83459 63.0274 5.97577C63.0229 3.03946 63.0084 0.626158 62.9951 0.612876C62.9818 0.599529 62.5702 0.579641 62.0805 0.568672L61.1899 0.548716L61.1706 5.9646C61.1542 10.5607 61.1346 11.5256 61.041 12.3387C60.8631 13.8846 60.5739 15.5768 60.4876 15.5763C60.4201 15.5759 59.8458 14.5063 59.6716 14.0567C59.5802 13.8205 59.479 13.5677 59.4468 13.4951C59.3572 13.2926 59.1445 12.4356 59.0292 11.812C58.7692 10.4052 58.7272 9.38262 58.7447 4.88118L58.7615 0.562459L57.8687 0.553076C57.3776 0.547988 56.9639 0.56345 56.9493 0.587569ZM4.20597 0.646246C2.66989 0.880159 1.30585 2.24375 1.00593 3.84508C0.86383 4.60379 0.862019 24.9776 1.00406 25.3247C1.29583 26.0382 2.68438 26.8667 3.7809 26.9814C5.90111 27.2033 10.9791 25.2266 14.7161 22.7247C15.0738 22.4852 15.4018 22.2583 15.445 22.2203C15.5807 22.1012 15.6763 22.0257 16.1828 21.6378C17.2816 20.7963 18.3855 19.5708 18.8073 18.7238C19.0368 18.2632 19.2125 17.5435 19.2138 17.0588C19.2176 15.6894 18.3139 14.8123 16.5489 14.4721C15.542 14.278 12.6314 14.3798 11.421 14.6515C10.899 14.7686 9.46207 14.8648 8.80143 14.8269C6.96128 14.7211 5.52396 14.1724 4.55007 13.2036C4.49859 13.1524 4.37899 12.9889 4.2843 12.8402C4.12558 12.5911 4.11212 12.5157 4.11212 11.8761V11.1823L4.41735 10.6006C4.58519 10.2806 4.78894 9.93008 4.87011 9.82158C5.29855 9.24894 6.30523 8.30422 7.08741 7.74084C7.50544 7.43973 7.64761 7.34292 8.3325 6.89319C9.0478 6.42345 11.0797 5.34149 12.1648 4.85251C14.0676 3.99515 16.242 3.17473 18.2124 2.57084C19.588 2.14926 19.6964 2.12018 21.7051 1.63477C22.2176 1.51094 23.2548 1.31106 24.0659 1.1799C24.2972 1.1425 24.8502 1.0774 25.2948 1.03531C26.3298 0.937317 26.3489 0.923308 25.7125 0.728775C25.3503 0.618031 24.703 0.610365 14.946 0.601247C9.23641 0.595894 4.40338 0.61618 4.20597 0.646246ZM66.3669 8.73565V16.8981H65.0407C64.3115 16.8981 63.7148 16.9138 63.7148 16.933C63.7148 16.9522 63.8138 17.1827 63.9348 17.4451C64.0558 17.7075 64.3016 18.241 64.481 18.6305L64.8071 19.3387L65.5707 19.3574L66.3346 19.376L66.3514 21.801L66.3682 24.226L67.3054 24.2459C67.8973 24.2584 68.2452 24.2414 68.2491 24.1997C68.2523 24.1634 68.2498 23.3567 68.2433 22.4072C68.2362 21.4577 68.2517 20.3798 68.2776 20.0119L68.3235 19.343H69.5117H70.7005V21.7878V24.2327H71.6707H72.6409L72.6247 12.4213L72.6085 0.609837L71.6545 0.591533L70.7005 0.573296V8.73565V16.8981H69.5123H68.3248L68.2821 16.4712C68.2588 16.2364 68.2414 12.5716 68.2439 8.32709L68.2491 0.609837L67.308 0.591533L66.3669 0.573296V8.73565ZM80.3171 0.624572C80.3009 0.652788 80.385 1.16654 80.5047 1.7662C81.2006 5.26113 82.0615 9.60167 82.3215 10.9259L82.621 12.4535L82.2239 14.461C82.0053 15.5651 81.6249 17.4796 81.3785 18.7152C81.1327 19.9509 80.7957 21.6458 80.6302 22.4817C80.4646 23.3176 80.3132 24.0684 80.2938 24.1501L80.2589 24.2988H81.2285H82.1987L82.2743 23.8528C82.3157 23.6075 82.3914 23.2135 82.4419 22.9772C82.4917 22.741 82.7685 21.3137 83.0563 19.8055C83.6042 16.9316 83.6391 16.7765 83.6818 16.9972C83.696 17.0699 83.7956 17.6051 83.903 18.1866C84.0104 18.7681 84.1248 19.3479 84.1572 19.4751C84.1895 19.6023 84.2775 20.0483 84.3525 20.4663C84.5666 21.6612 85.0679 24.1939 85.1015 24.249C85.1177 24.2764 85.5549 24.2988 86.0723 24.2988H87.0134L86.9779 24.1501C86.9332 23.9638 86.0077 19.4279 85.54 17.1056C85.3473 16.1476 85.0556 14.7094 84.8913 13.9098L84.5931 12.4558L84.8007 11.4226C84.9146 10.8543 85.0924 9.97309 85.1959 9.46429C85.2994 8.95549 85.5129 7.89989 85.6707 7.11852C85.8285 6.33715 86.0614 5.19235 86.1888 4.57452C86.604 2.55596 86.9526 0.810051 86.9598 0.708951C86.9662 0.626027 86.8201 0.606799 86.0665 0.591402C85.5717 0.581226 85.1435 0.59649 85.1151 0.625234C85.0873 0.654044 84.9476 1.25707 84.8059 1.9653C84.6636 2.67352 84.3422 4.27882 84.0918 5.53265C83.8409 6.78648 83.6249 7.84207 83.6113 7.87842C83.5718 7.98414 83.5311 7.81313 83.3125 6.62294C83.1993 6.00511 83.0537 5.21712 82.9891 4.87187C82.9244 4.52661 82.7775 3.73864 82.6631 3.1208C82.5479 2.50297 82.3927 1.68525 82.3177 1.30365L82.1812 0.609837L81.264 0.591533C80.7602 0.581489 80.3339 0.596357 80.3171 0.624572ZM87.6473 0.624572C87.6473 0.670494 87.9203 2.05338 89.0981 7.97754C89.2895 8.94062 89.5677 10.3409 89.7158 11.0893L89.9848 12.45L89.6834 13.9637C87.7987 23.4335 87.6473 24.1978 87.6467 24.251C87.6467 24.2793 88.0748 24.2941 88.5981 24.2841L89.5502 24.2658L89.796 23.0103C90.0786 21.5671 90.534 19.2006 90.6226 18.7152C90.7325 18.1125 90.9964 16.8642 91.0029 16.9157C91.01 16.9677 91.2138 17.9899 91.336 18.5831C91.3735 18.7648 91.5048 19.4437 91.6277 20.0916C91.7506 20.7396 91.8793 21.3938 91.913 21.5453C91.9472 21.6969 92.0656 22.3115 92.1762 22.9112C92.2868 23.5108 92.3935 24.0691 92.4123 24.1519C92.4472 24.3009 92.4563 24.3021 93.3941 24.284C93.9788 24.2728 94.3372 24.2405 94.3313 24.1997C94.3145 24.0888 93.2803 18.9646 93.1108 18.1536C92.6535 15.9702 92.0287 12.8676 91.9996 12.6339C91.9802 12.4809 92.0261 12.0732 92.1076 11.6758C92.1853 11.2954 92.3935 10.2704 92.5707 9.39821C92.7473 8.52598 93.0526 7.02436 93.248 6.06127C93.4433 5.09818 93.66 4.02772 93.7285 3.68246C93.7977 3.33721 93.9433 2.62356 94.0526 2.09659C94.1625 1.56962 94.2686 1.01205 94.2887 0.857627L94.3255 0.576798H93.4097H92.4944L92.4304 0.747547C92.3955 0.84151 92.2668 1.42875 92.1445 2.05259C92.0223 2.67643 91.7441 4.06406 91.5268 5.13618C91.3095 6.2083 91.0999 7.27136 91.0611 7.49847C91.0223 7.72565 90.9725 7.91146 90.9499 7.91146C90.9272 7.91146 90.7979 7.29449 90.6614 6.54034C90.4564 5.403 90.0392 3.18569 89.6265 1.03934L89.5437 0.609837L88.5949 0.591533C88.0735 0.581489 87.6467 0.596357 87.6473 0.624572ZM96.035 0.619089C96.0104 0.644331 95.9904 5.98251 95.9904 12.4819V24.2988H96.9282H97.8661L97.8823 14.7671C97.8907 9.52462 97.8984 4.19457 97.8984 2.92257V0.609837L96.989 0.5916C96.4891 0.581556 96.0596 0.593913 96.035 0.619089ZM23.5485 2.53138C23.4595 2.54645 23.1248 2.59019 22.8047 2.62852C19.9585 2.96961 16.8524 4.12506 14.115 5.86086C12.8492 6.66357 12.0493 7.29726 11.1632 8.19936C9.994 9.38976 9.50942 10.2319 9.50153 11.087C9.4981 11.4568 9.53115 11.6155 9.67319 11.9121C9.76989 12.114 9.87144 12.2704 9.89886 12.2595C9.92622 12.2485 10.1249 12.015 10.3403 11.7404C12.1074 9.48828 15.7879 7.08713 19.7094 5.62814C20.6627 5.27343 21.369 5.07043 22.4769 4.83255C23.113 4.69597 23.5104 4.65797 24.6246 4.62718C26.1619 4.58463 26.8914 4.65123 27.7527 4.91257C28.6864 5.19591 28.5935 5.21911 28.5935 4.70219C28.5935 4.38184 28.5548 4.17118 28.4587 3.96838C28.1842 3.38894 27.3958 2.87188 26.4591 2.6568C25.9964 2.55055 23.9545 2.4626 23.5485 2.53138ZM51.5248 2.75849C51.8625 2.92547 52.1025 3.35002 52.1975 3.94876C52.2424 4.23084 52.2649 7.09606 52.2637 12.3717C52.2618 21.1185 52.2622 21.1063 51.8969 21.7142C51.4586 22.4435 50.5733 22.413 50.1991 21.6557C49.9013 21.0528 49.9056 21.1914 49.9056 12.2726C49.9056 2.81962 49.8747 3.43362 50.3758 2.94094C50.7279 2.59476 51.0805 2.53872 51.5248 2.75849ZM23.031 6.29935C22.9421 6.316 22.5606 6.3737 22.1832 6.42762C19.5073 6.80987 15.5816 8.32193 12.8021 10.041C11.5968 10.7864 10.095 12.0894 10.095 12.3898C10.095 12.5556 10.7777 12.9642 11.3437 13.137C12.7263 13.5595 14.1025 13.6447 17.2745 13.5044C19.9154 13.3876 20.9249 13.4189 22.1059 13.6538C24.4436 14.1188 25.5607 15.3372 25.2945 17.1317C25.2066 17.7238 24.9892 18.2878 24.6356 18.8407C24.3898 19.2249 24.3873 19.2356 24.4525 19.5962C24.5515 20.1434 24.5332 21.2223 24.4164 21.7175C24.2946 22.2345 23.8261 23.2406 23.5008 23.6838C22.5891 24.926 21.1539 26.117 18.8915 27.5087C18.4529 27.7785 18.2719 27.8824 17.2884 28.4287C16.9613 28.6104 16.6934 28.7813 16.693 28.8086C16.6927 28.8359 18.5333 28.8571 20.7834 28.8559C25.1914 28.8534 25.4948 28.8339 26.2114 28.5082C26.4132 28.4165 26.7333 28.223 26.9229 28.0782C27.6583 27.5165 28.0693 26.9398 28.3866 26.0248L28.5612 25.5213V16.7633V8.00529L28.3377 7.71058C27.835 7.04775 27.3038 6.7013 26.4127 6.45497C25.9943 6.33927 25.6799 6.31184 24.551 6.29241C23.804 6.27959 23.12 6.2827 23.031 6.29935ZM74.5166 18.1205V19.3445L76.9259 19.3272L79.3353 19.3099V18.1205V16.9311L76.9259 16.9138L74.5166 16.8965V18.1205ZM23.6783 20.0436C22.1167 21.6575 19.2742 23.3629 15.4311 24.9915C13.2294 25.9245 9.91277 27.077 8.08995 27.5424C6.81969 27.8668 5.38541 28.2034 4.54891 28.3735C4.04201 28.4765 3.62728 28.5817 3.62722 28.6073C3.62657 28.786 4.22189 28.8189 7.86855 28.8416C11.4993 28.8642 11.6405 28.8604 12.0889 28.7294C12.3441 28.6549 12.7639 28.5326 13.0218 28.4576C16.0493 27.5781 19.5953 25.8153 21.484 24.2509C23.0901 22.9205 24.0321 21.4068 24.2196 19.8551C24.2404 19.6825 24.2362 19.5415 24.2102 19.542C24.1842 19.5424 23.9448 19.7681 23.6783 20.0436ZM34.7005 27.0025C34.6856 27.0177 34.6734 27.3307 34.6734 27.6981C34.6734 28.4159 34.5905 28.66 34.3464 28.66C34.2638 28.66 34.2207 28.7053 34.2207 28.7921C34.2207 28.8983 34.2638 28.9243 34.4399 28.9243C34.5605 28.9243 34.7278 28.8675 34.8118 28.7982C34.9498 28.6842 34.9676 28.6065 34.9968 27.9887L35.0292 27.3054L35.7226 27.2866L36.4159 27.2679L36.434 28.1126C36.451 28.9071 36.4598 28.9573 36.5815 28.9573C36.705 28.9573 36.7109 28.9132 36.7109 27.9752V26.993L35.7192 26.984C35.1738 26.9791 34.7154 26.9874 34.7005 27.0025ZM38.0012 27.0003C37.9853 27.0167 37.9721 27.4663 37.9721 27.9994V28.9687L38.2147 28.9759C38.4463 28.9828 38.4892 28.9463 39.1678 28.1665C39.5586 27.7174 39.9022 27.3649 39.9312 27.3833C39.9603 27.4016 39.9808 27.7335 39.9768 28.1209C39.9729 28.5082 39.9713 28.8644 39.9735 28.9124C39.9757 28.9643 40.0361 28.991 40.1227 28.9785C40.2654 28.9577 40.2687 28.9374 40.2861 27.9655L40.3038 26.9738L40.0273 26.9995C39.7884 27.0217 39.7121 27.0711 39.4655 27.3635C38.87 28.0698 38.3927 28.5939 38.345 28.5939C38.3178 28.5939 38.2955 28.224 38.2955 27.772C38.2955 26.9842 38.29 26.9506 38.1629 26.9604C38.09 26.966 38.0173 26.984 38.0012 27.0003ZM41.9078 27.0192C41.6589 27.0708 41.4649 27.2863 41.4649 27.5109C41.4649 27.6353 41.4992 27.6688 41.6266 27.6688C41.7405 27.6688 41.7882 27.6328 41.7882 27.5473C41.7882 27.3546 42.0704 27.2723 42.7312 27.2723C43.3957 27.2723 43.4592 27.308 43.3787 27.6359C43.339 27.7974 43.3249 27.8009 42.7249 27.8009C42.1163 27.8009 42.1117 27.8022 42.1117 27.9638C42.1117 28.1242 42.1206 28.1268 42.7354 28.1455C43.2462 28.1609 43.3721 28.1853 43.4304 28.28C43.4822 28.3642 43.4822 28.4271 43.4304 28.5113C43.3716 28.6068 43.2448 28.6302 42.703 28.6458C42.0027 28.6658 41.7882 28.6067 41.7882 28.3933C41.7882 28.2989 41.7441 28.2635 41.6266 28.2635C41.4925 28.2635 41.4649 28.2951 41.4649 28.4491C41.4649 28.8704 41.7776 28.9989 42.7585 28.9809C43.3816 28.9695 43.5686 28.9205 43.7104 28.7318C43.8224 28.5828 43.8115 28.2534 43.6888 28.0744C43.6119 27.9622 43.6034 27.9025 43.6565 27.8483C43.7755 27.7266 43.7431 27.2871 43.6046 27.1456C43.419 26.9559 42.5316 26.8899 41.9078 27.0192ZM45.0452 27.0424C45.0305 27.0815 45.0266 27.5265 45.0365 28.0312L45.0546 28.9488L45.2533 28.9719C45.4678 28.9968 45.5554 28.9156 46.5099 27.8066L46.9303 27.3181L46.9627 28.1377C46.9934 28.9157 47.0021 28.9584 47.135 28.9777C47.3254 29.0054 47.3412 28.9144 47.3278 27.8686L47.3164 26.9782L47.1064 26.9608C46.9724 26.9497 46.8559 26.9859 46.7841 27.0612C46.5889 27.2655 45.6223 28.3553 45.4832 28.5278L45.35 28.693L45.3478 27.8216C45.3457 26.9756 45.3416 26.9505 45.2088 26.9607C45.1335 26.9664 45.0598 27.0033 45.0452 27.0424ZM48.5735 26.9919C48.5701 27.0189 48.5661 27.4722 48.5645 27.9992L48.5615 28.9573H48.7161C48.862 28.9573 48.8718 28.9321 48.8899 28.5113L48.9089 28.0653H49.7116H50.5142L50.5333 28.5113C50.5507 28.9165 50.5657 28.9592 50.6979 28.9785L50.8435 28.9995V27.9777V26.9559L50.6818 26.9655C50.5292 26.9744 50.5201 26.9962 50.5201 27.3549L50.5201 27.7349H49.7148H48.9095L48.8901 27.3613C48.873 27.0317 48.8536 26.9849 48.7252 26.9652C48.6452 26.9528 48.5769 26.9649 48.5735 26.9919ZM52.0483 27.0427C52.0343 27.08 52.0268 27.526 52.0315 28.0339L52.04 28.9573H52.2017H52.3634L52.3815 28.1148L52.3997 27.2723H53.1137C53.7991 27.2723 53.8269 27.2668 53.8071 27.1357C53.7875 27.0063 53.7414 26.9984 52.9301 26.987C52.3938 26.9795 52.0643 27.0003 52.0483 27.0427ZM55.3998 27.0177C55.2912 27.0471 55.1311 27.1486 55.0441 27.2432C54.903 27.3966 54.886 27.4733 54.886 27.955C54.886 28.8497 55.091 29.0112 56.1712 28.9666C56.7207 28.944 56.8213 28.9212 56.9603 28.7878C57.1841 28.5729 57.2725 28.2198 57.2167 27.7633C57.152 27.2349 56.9564 27.0392 56.4349 26.9814C55.9877 26.9319 55.6769 26.9428 55.3998 27.0177ZM58.4395 27.0276C58.4217 27.0749 58.4154 27.5284 58.4253 28.0354L58.4434 28.9573L59.4122 28.9385C60.468 28.9179 60.6251 28.8712 60.703 28.5545C60.7505 28.3608 60.6363 27.9992 60.5276 27.9992C60.4908 27.9992 60.5089 27.9448 60.5678 27.8783C60.7237 27.7023 60.7016 27.3776 60.5188 27.1604L60.3628 26.975L59.4172 26.9584C58.6894 26.9456 58.4643 26.9615 58.4395 27.0276ZM66.4174 27.008C65.2887 27.0472 65.2288 27.0779 65.2447 27.6095C65.2554 27.9681 65.3942 28.1974 65.6005 28.1974C65.7932 28.1974 65.7408 28.304 65.4005 28.6033C65.0537 28.9084 65.0366 28.9972 65.3317 28.959C65.4563 28.9429 65.6399 28.8133 65.8637 28.5838C66.2046 28.2336 66.2052 28.2331 66.6703 28.2083L67.136 28.1833L67.1554 28.5687C67.1741 28.9305 67.1851 28.9541 67.3371 28.9539L67.4988 28.9538L67.5163 27.9886C67.5299 27.2502 67.515 27.0178 67.4516 26.9992C67.4063 26.9859 66.9406 26.9898 66.4174 27.008ZM71.0756 27.9077C71.0646 28.4378 71.0737 28.9012 71.0963 28.9374C71.1183 28.9737 71.1908 28.9927 71.258 28.9796C71.3615 28.9594 71.3822 28.8846 71.3984 28.4775C71.4133 28.1053 71.4391 27.9992 71.5142 27.9992C71.5678 27.9992 71.8583 28.22 72.161 28.49C72.5697 28.8556 72.7508 28.9763 72.8692 28.9635C72.9572 28.9539 73.0451 28.9294 73.0652 28.9089C73.0852 28.8885 72.8524 28.6591 72.5478 28.3992C72.2431 28.1392 71.9941 27.8994 71.9941 27.8662C71.9941 27.833 72.161 27.687 72.366 27.5418C72.9682 27.114 73.0555 27.0327 72.9688 26.9782C72.833 26.8922 72.5549 27.0094 72.1105 27.3395C71.5083 27.7871 71.4521 27.7875 71.412 27.3446C71.3842 27.0397 71.3583 26.9842 71.2373 26.9656C71.097 26.9441 71.0944 26.9572 71.0756 27.9077ZM74.6078 27.0099C74.2462 27.1228 74.1628 27.2868 74.1382 27.9385C74.1162 28.511 74.1201 28.5295 74.3032 28.7166C74.5308 28.949 74.9513 29.0255 75.6226 28.9567C76.2895 28.8882 76.4137 28.7596 76.446 28.1037C76.4906 27.2015 76.3154 27.0118 75.4008 26.973C75.0742 26.9591 74.7178 26.9758 74.6078 27.0099ZM77.8295 26.9898L77.6174 27.0167L77.6355 27.987C77.6529 28.9326 77.6568 28.9578 77.7972 28.9782C77.9382 28.9987 77.9408 28.9843 77.9589 28.1569L77.977 27.3147L78.4259 28.103C78.8502 28.8482 78.9491 28.9869 79.0572 28.9894C79.0824 28.9899 79.2253 28.7747 79.3754 28.5113C79.5254 28.2478 79.744 27.8711 79.8618 27.6743L80.0746 27.3163L80.0927 28.1368C80.1108 28.9338 80.1153 28.9579 80.2583 28.9787L80.4057 29L80.3876 27.9899L80.3702 26.9799L80.1574 26.9747C79.8993 26.9685 79.8734 26.9986 79.4045 27.8557C78.9899 28.6133 79.0352 28.6039 78.7079 27.9992C78.2616 27.1759 78.1225 26.9429 78.0837 26.9525C78.0604 26.9583 77.946 26.9751 77.8295 26.9898ZM81.6534 27.0442C81.6392 27.0823 81.6353 27.5284 81.6456 28.0354C81.6625 28.9071 81.6702 28.9573 81.7931 28.9573C81.9134 28.9573 81.9244 28.9023 81.9548 28.1313L81.9872 27.3054H82.7957H83.6042L83.6223 28.1522C83.6397 28.9845 83.6423 28.9987 83.784 28.9782C83.9243 28.9577 83.9276 28.9393 83.9276 27.9794V27.0015L82.8034 26.9883C82.0674 26.9795 81.6702 26.9989 81.6534 27.0442ZM88.646 27.0001C88.6298 27.0166 88.6169 27.4732 88.6169 28.0148C88.6169 28.9982 88.6169 28.9995 88.7624 28.9785C88.8943 28.9592 88.9092 28.9166 88.9267 28.5093L88.9461 28.0614L89.7675 28.0798L90.5896 28.0983V28.5278C90.5896 28.9419 90.5954 28.9573 90.7513 28.9573H90.913V27.968V26.9787H90.7513C90.5987 26.9787 90.589 26.9996 90.5857 27.3403L90.5818 27.7018L89.761 27.7203L88.9403 27.7388V27.3545C88.9403 27.0113 88.926 26.9703 88.8077 26.9703C88.7346 26.9703 88.6621 26.9837 88.646 27.0001ZM92.1419 27.0077C92.1167 27.0489 92.1057 28.9213 92.1303 28.9268C92.5733 29.0247 92.5817 29.0202 93.0824 28.4489C93.3463 28.1471 93.5778 27.8852 93.5959 27.867C93.614 27.8489 93.7376 27.7085 93.8702 27.5551L94.1108 27.2763L94.1289 28.1168C94.1457 28.9071 94.1541 28.9573 94.2764 28.9573C94.3986 28.9573 94.4064 28.9072 94.4232 27.9642L94.4413 26.9711L94.2039 26.9772C94.0196 26.982 93.9232 27.0342 93.766 27.2132C93.6554 27.3397 93.332 27.7069 93.0474 28.0294L92.53 28.6158L92.4977 27.8007C92.466 27.0087 92.4608 26.9853 92.3166 26.9746C92.2351 26.9686 92.1568 26.9835 92.1419 27.0077ZM96.4994 26.9937C95.676 27.016 95.57 27.0858 95.57 27.6027C95.57 27.9732 95.7258 28.1974 95.9839 28.1974C96.1385 28.1975 96.1217 28.226 95.7705 28.5572C95.3895 28.9166 95.3895 28.9169 95.5629 28.9615C95.7129 28.9999 95.7918 28.9528 96.1385 28.6183L96.5402 28.2305H96.9929H97.4457L97.478 28.5939C97.5078 28.9287 97.5227 28.9573 97.6721 28.9573H97.8338V27.9747V26.992L97.5104 26.9835C97.3325 26.9788 96.8772 26.9834 96.4994 26.9937ZM62.1396 27.17C61.9188 27.379 61.9099 27.6027 62.1222 27.6027C62.2094 27.6027 62.3174 27.5391 62.3715 27.4558C62.4534 27.3299 62.5376 27.3052 62.962 27.2834C63.5009 27.2555 63.7317 27.3426 63.7971 27.5985C63.8311 27.7311 63.8089 27.7349 62.9972 27.7349C61.9942 27.7349 61.9037 27.784 61.9037 28.3296C61.9037 28.856 62.0104 28.9231 62.8578 28.9296C63.2402 28.9325 63.6841 28.9396 63.8441 28.9453L64.1352 28.9556L64.1538 28.2657C64.1847 27.1176 64.0868 27.008 63.0307 27.008C62.3561 27.008 62.2999 27.0183 62.1396 27.17ZM85.3589 27.208C85.2684 27.318 85.2102 27.4519 85.2302 27.5054C85.2787 27.6335 85.5769 27.634 85.5769 27.5059C85.5769 27.3449 85.802 27.2723 86.302 27.2723C86.8188 27.2723 87.0645 27.38 87.0645 27.6065C87.0645 27.7267 87.0134 27.7349 86.2644 27.7349C85.5536 27.7349 85.4456 27.7501 85.2942 27.8718C85.1623 27.9777 85.1241 28.0669 85.1241 28.2652C85.1241 28.5976 85.2406 28.8536 85.41 28.8916C85.4838 28.9081 85.9611 28.9298 86.4708 28.9395L87.3976 28.9573L87.3763 28.153C87.3569 27.4079 87.344 27.3361 87.1984 27.1784C87.0471 27.0141 87.0147 27.008 86.2826 27.008H85.5232L85.3589 27.208ZM56.6679 27.3732C56.8529 27.4709 56.8587 27.4886 56.8587 27.9603C56.8587 28.4042 56.8448 28.4558 56.6993 28.5532C56.5096 28.6802 55.6605 28.7015 55.4114 28.5856C55.1172 28.4486 55.1022 27.5779 55.3906 27.3715C55.5795 27.2363 56.4109 27.2374 56.6679 27.3732ZM60.1962 27.3229C60.3052 27.3973 60.3403 27.5571 60.2757 27.6853C60.2254 27.7853 60.1169 27.8009 59.476 27.8009H58.7344V27.5366V27.2723L59.4297 27.2733C59.8122 27.2739 60.1571 27.2962 60.1962 27.3229ZM67.1431 27.6027V27.9331H66.5687C66.2531 27.9331 65.9038 27.9145 65.7926 27.8918C65.6089 27.8542 65.5908 27.8278 65.5908 27.5991C65.5908 27.2987 65.6031 27.2943 66.5125 27.2813L67.1431 27.2723V27.6027ZM75.9745 27.4345C76.1052 27.568 76.1336 27.662 76.1336 27.9661C76.1336 28.2703 76.1052 28.3643 75.9745 28.4977C75.8316 28.6441 75.763 28.66 75.2753 28.66C74.558 28.66 74.4966 28.6111 74.4636 28.0166C74.4396 27.5802 74.4474 27.5499 74.6156 27.4147C74.763 27.2962 74.8782 27.2723 75.3044 27.2723C75.7611 27.2723 75.8328 27.2896 75.9745 27.4345ZM97.478 27.6027V27.9331L96.8474 27.9322C96.0635 27.9311 95.9477 27.9005 95.8934 27.6805C95.861 27.5477 95.8843 27.4786 95.9923 27.3893C96.1075 27.2941 96.2588 27.2723 96.806 27.2723H97.478V27.6027ZM63.6663 28.0912C63.8192 28.2097 63.8121 28.5053 63.6544 28.5916C63.5856 28.6292 63.2926 28.66 63.0033 28.66C62.7141 28.66 62.4211 28.6292 62.3522 28.5916C62.1912 28.5036 62.1835 28.1638 62.3403 28.0705C62.5101 27.9695 63.5299 27.9854 63.6663 28.0912ZM86.9203 28.1021C87.1176 28.2433 87.1072 28.4866 86.8996 28.5832C86.8091 28.6255 86.4934 28.66 86.1978 28.66C85.7567 28.66 85.6422 28.6381 85.5523 28.5371C85.4682 28.4423 85.4579 28.3757 85.5057 28.2466C85.5872 28.0281 85.6416 28.0106 86.2573 28.0044C86.6292 28.0006 86.8175 28.0284 86.9203 28.1021ZM60.3414 28.3259C60.3788 28.5969 60.2076 28.66 59.4335 28.66H58.7344V28.3936V28.1272L59.5268 28.1458C60.312 28.1642 60.3193 28.1658 60.3414 28.3259Z" fill="white"/>
</svg>
