<svg width="203" height="101" viewBox="0 0 203 101" fill="none" xmlns="http://www.w3.org/2000/svg">
<path fill-rule="evenodd" clip-rule="evenodd" d="M127.407 34.8688C127.262 35.1759 127.11 35.5192 127.059 35.6336L126.977 35.8504H128.382C129.748 35.8504 129.786 35.8504 129.875 35.6336L130.223 34.8688L130.483 34.3208H127.66L127.407 34.8688ZM170.488 35.0374C170.311 35.4289 170.165 35.7721 170.165 35.8022C170.626 35.8485 171.089 35.8646 171.551 35.8504H172.937L173.26 35.1398C173.437 34.7484 173.582 34.3991 173.582 34.375C173.123 34.3229 172.659 34.3068 172.197 34.3268H170.811L170.488 35.0374ZM139.905 35.8504C139.18 35.9479 138.487 36.198 137.876 36.5824C137.265 36.9667 136.752 37.4758 136.374 38.0725C135.871 38.8906 135.627 39.8295 135.671 40.7763C135.626 41.4455 135.729 42.1163 135.972 42.7457C136.215 43.3751 136.593 43.9494 137.083 44.4316C137.523 44.8784 138.054 45.2353 138.643 45.4806C139.233 45.726 139.869 45.8546 140.512 45.8588C141.73 45.9833 142.953 45.672 143.942 44.9856L144.328 44.6605L143.986 44.0583C143.877 43.8375 143.748 43.626 143.6 43.426C143.47 43.499 143.345 43.5816 143.227 43.6729C142.653 44.0544 141.982 44.2815 141.283 44.3303C140.585 44.379 139.886 44.2476 139.259 43.9499C138.574 43.5626 138.038 42.9762 137.729 42.2769C137.42 41.5777 137.356 40.8026 137.545 40.0657C137.626 39.5705 137.828 39.1001 138.133 38.6915C138.438 38.2829 138.839 37.9474 139.304 37.7112C139.766 37.4763 139.937 37.4522 140.917 37.4522C141.687 37.3587 142.465 37.5577 143.082 38.0062L143.347 38.1749L143.714 37.6088C143.851 37.3905 143.962 37.1582 144.043 36.9163C144.043 36.7236 143.214 36.2358 142.563 36.0431C141.699 35.8121 140.795 35.7466 139.905 35.8504ZM83.1428 38.9336L80.9153 43.9077L80.0674 45.7986H80.9723L81.8772 45.7685L82.51 44.3594L83.1428 42.9502H87.2813L87.9141 44.3835L88.5469 45.8167H89.4455C89.745 45.8411 90.0468 45.8167 90.3377 45.7444C90.3377 45.7083 89.3505 43.4802 88.1482 40.8004L85.9524 35.9227H85.2563H84.5603L83.1428 38.9336ZM72.2143 40.8727V45.7685H73.9166C75.7833 45.7685 76.4161 45.6842 77.2198 45.3108C77.8086 45.0378 78.2835 44.5838 78.5676 44.0221C78.7879 43.5841 78.8672 43.0938 78.7955 42.613C78.8647 42.1367 78.7878 41.6515 78.574 41.2159C77.9412 40.0718 76.5364 39.4816 74.7012 39.578L73.9229 39.6201V37.4763H78.3525V35.9467H72.2143V40.8727ZM93.3119 35.9889C93.3119 36.3924 92.9702 39.8791 92.8563 40.5776C92.4702 43.0526 91.8564 44.2811 91.0781 44.1305L90.7933 44.0763L90.825 44.9134V45.7444H91.4578C91.8251 45.7681 92.1918 45.6897 92.5131 45.5186C92.8345 45.3475 93.0966 45.0912 93.2676 44.7809C93.951 43.8234 94.3876 42.2457 94.6724 39.7044C94.7547 38.9276 94.8496 38.1086 94.8812 37.8978L94.9318 37.4884H97.9313V41.6254V45.7565L98.7603 45.7866H99.5892V35.9467H96.4252C94.7357 35.9467 93.3119 35.9648 93.3119 35.9889ZM101.646 36.7356V37.4703H103.38H105.114V41.6073V45.7384H106.822V37.4763H110.233V35.9467H101.646V36.7356ZM112.296 40.8968V45.8287L113.036 45.7685L113.751 45.7384L116.46 42.348C117.947 40.4812 119.206 38.9396 119.257 38.9216C119.351 40.0574 119.38 41.1972 119.345 42.336V45.7685H121.054V35.9407H120.282H119.516L116.795 39.3551L114.074 42.7696V39.3311L114.042 35.8925H112.34L112.296 40.8968ZM124.319 40.8968V45.8287L125.059 45.7685L125.787 45.7384L128.502 42.324C129.995 40.4451 131.255 38.9095 131.292 38.9095C131.33 38.9095 131.368 40.4511 131.368 42.348V45.7685H133.077V35.9467H131.584L128.856 39.3913L126.116 42.8298V39.3913V35.9467H124.414L124.319 40.8968ZM145.834 40.8968V45.7685H147.543V43.4199V41.0714L149.688 43.4199L151.827 45.7685H152.941C153.991 45.7685 154.048 45.7685 153.909 45.6059C153.529 45.1783 149.745 41.1015 149.479 40.8426L149.194 40.5535L151.504 38.2411L153.82 35.9227H151.624L149.58 38.0484L147.53 40.1681V38.0484V35.9227H145.822L145.834 40.8968ZM155.681 40.8968V45.8287H156.402L157.142 45.7685L159.863 42.3541C161.357 40.4752 162.616 38.9396 162.66 38.9396C162.705 38.9396 162.736 40.4812 162.736 42.3782V45.7685H164.445V35.9467H162.945L160.205 39.3853L157.459 42.8238V39.3853V35.9467H155.75L155.681 40.8968ZM167.438 40.8968V45.7685H168.912L171.665 42.3119L174.418 38.8794V42.336V45.7926H176.126V35.9467H174.671L171.956 39.3612L169.317 42.7575L169.286 39.3431V35.9287H167.457L167.438 40.8968ZM86.4587 41.2761C86.4587 41.3665 86.1359 41.3966 85.1551 41.3966C84.7186 41.4249 84.28 41.3965 83.8515 41.3123C83.8515 41.228 84.9969 38.6024 85.1171 38.4218C85.6557 39.3319 86.1048 40.2874 86.4587 41.2761ZM76.3339 41.3906C76.5912 41.5123 76.8077 41.6999 76.9591 41.9324C77.1105 42.1648 77.1907 42.4329 77.1907 42.7063C77.1907 42.9798 77.1105 43.2479 76.9591 43.4803C76.8077 43.7128 76.5912 43.9004 76.3339 44.0221C75.907 44.1947 75.4409 44.261 74.9797 44.2148H73.9735V42.7094V41.2039H74.9607C75.4272 41.1705 75.8958 41.2342 76.3339 41.3906ZM112.271 48.9541C109.898 49.1769 108.518 50.3873 108.214 52.5191C108.037 53.7656 107.803 53.6331 110.17 53.6331C112.068 53.6331 112.239 53.6331 112.283 53.4645C112.376 53.0955 112.6 52.7681 112.916 52.5371C113.688 52.1096 117.789 52.1156 118.402 52.5371C119.016 52.9587 119.073 53.1875 119.105 54.0787C119.168 55.807 118.636 56.1021 115.435 56.1021H113.903V59.1492H115.934C117.757 59.1492 118.01 59.1974 118.364 59.372C118.63 59.5117 118.844 59.7245 118.98 59.9825C119.115 60.2405 119.165 60.5316 119.124 60.8173C119.124 61.829 118.776 62.3469 117.858 62.6239C117.084 62.8019 116.285 62.8588 115.491 62.7925C113.505 62.7925 113.112 62.7262 112.587 62.3107C112.415 62.1655 112.276 61.9895 112.176 61.7928L112.049 61.5038H107.974L108.031 62.1963C108.041 62.768 108.185 63.3303 108.454 63.842C108.722 64.3536 109.107 64.8016 109.581 65.1531C110.79 66.0323 111.992 66.225 115.909 66.1587C119.554 66.1045 120.244 65.972 121.56 65.0748C122.311 64.545 122.87 63.8065 123.161 62.9611C123.45 61.8447 123.46 60.6797 123.193 59.5587C123.02 59.1073 122.736 58.7017 122.365 58.3759C121.994 58.0501 121.547 57.8135 121.06 57.6859L120.427 57.4872C120.339 57.4872 120.516 57.3667 120.826 57.2764C122.389 56.8067 123.028 56.1382 123.3 54.693C123.475 53.8338 123.475 52.9507 123.3 52.0915C123.191 51.3936 122.829 50.7542 122.275 50.2849C121.414 49.5202 120.313 49.1347 118.44 48.9601C116.377 48.8439 114.309 48.8419 112.245 48.9541H112.271ZM74.1254 51.8386C74.1254 57.0415 73.771 59.8176 72.8598 61.558C72.4567 62.3613 71.7905 63.0185 70.9614 63.4308L70.4805 63.6054V67.1403L71.012 67.0741C75.758 66.4719 77.7766 62.8587 77.9728 54.6147L78.0741 52.3926H82.4657V66.243H86.4587V48.9481H74.1254V51.8386ZM89.4961 57.6016V66.243H94.9825L98.4312 60.0706C100.33 56.6802 101.931 53.874 101.981 53.8439C102.032 53.8138 102.057 53.8439 101.981 54.0125C101.905 54.1811 101.88 56.9452 101.848 60.2452L101.798 66.2671H105.943V48.9481H103.171H100.406L96.9884 55.0663C95.09 58.4326 93.5207 61.2268 93.4574 61.281C93.3941 61.3352 93.3751 61.281 93.4574 61.1364C93.5397 60.9919 93.5587 58.1977 93.584 54.8977L93.6409 48.8758H89.4961V57.6016ZM125.762 57.6016V66.243H128.533H131.311L134.748 60.1007C136.646 56.7224 138.203 53.9402 138.228 53.9162C138.253 53.8921 138.228 56.6682 138.228 60.0826L138.203 66.243H142.341V48.9481H136.766L134.374 53.2236L130.906 59.4262L129.831 61.3472L129.869 55.1446L129.907 48.942H125.762V57.6016ZM145.252 57.6016V66.243H149.473V58.8903H156.307V66.243H160.496V48.9481H156.282V55.259H149.448V48.9481H145.227L145.252 57.6016ZM166.653 49.1227C165.875 49.3007 165.172 49.6996 164.638 50.2663C164.103 50.833 163.762 51.541 163.66 52.2963C163.597 52.6817 163.559 55.4096 163.559 59.5828V66.243H167.672V59.7634C167.704 52.4709 167.672 52.8322 168.45 52.5371C168.805 52.3986 169.381 52.3806 172.576 52.3806H176.316V48.9481H171.817C167.906 48.9601 167.217 48.9842 166.653 49.1227Z" fill="#282828"/>
<path d="M28.4595 46.7956C28.959 45.961 29.6335 45.2331 30.4412 44.6571C31.2489 44.0812 32.1724 43.6695 33.1544 43.4477C35.3943 42.8757 37.2039 42.5565 38.8048 42.2735C41.8989 41.7256 44.1324 41.3282 46.8975 39.5518C48.7957 38.3476 49.8144 36.7941 49.7258 35.3369C49.7231 34.9548 49.6183 34.5797 49.4213 34.2469C49.2242 33.914 48.9415 33.6343 48.5996 33.4341C47.7011 33.0367 46.657 33.121 45.6383 33.121C41.1805 33.1223 36.8779 34.679 33.5452 37.4966C30.2125 40.3141 28.0811 44.1967 27.5547 48.4093C27.6306 48.3973 28.1368 47.2592 28.4595 46.7956Z" fill="#4C8ECC"/>
<path d="M57.7545 37.4263C57.7545 37.4263 57.6785 37.4263 57.6975 37.4684C58.4252 38.8531 58.8554 40.3619 58.9631 41.9066C58.9631 43.9481 58.1784 45.5921 56.2547 47.5733C54.7992 49.0788 51.0847 51.8369 42.5924 53.4508C34.9291 54.9081 33.2458 56.6605 32.2776 58.1841C31.1575 59.9365 32.3852 62.0743 33.2015 63.0017C36.22 66.5065 41.3774 67.9759 46.5664 67.7591C50.1922 67.5981 53.6848 66.4102 56.5964 64.3476C59.5079 62.285 61.7057 59.4418 62.9079 56.1826C64.11 52.9234 64.2617 49.3967 63.3435 46.0549C62.4253 42.7131 60.4791 39.7084 57.7545 37.4263Z" fill="#4C8ECC"/>
<path d="M31.7323 55.3098C30.709 54.4122 29.9766 53.2551 29.6211 51.9746C29.2657 50.6942 29.3021 49.3438 29.726 48.0823C30.7702 45.4865 33.5803 45.0107 38.3017 44.1072C43.0231 43.2038 45.7193 42.981 48.8458 40.5296C50.0842 39.477 51.0466 38.1631 51.6558 36.6931C52.0229 36.5304 54.333 36.9641 55.5924 38.1928C56.8519 39.4214 57.9341 43.1616 54.8583 46.3538C51.5735 49.7688 47.2635 50.9974 41.5675 51.5395C38.8658 51.842 36.2759 52.7413 34.0043 54.1655C33.3134 54.5829 32.6556 55.0479 32.036 55.5568L31.7323 55.3098Z" fill="#BFD460"/>
</svg>
