<svg width="203" height="101" viewBox="0 0 203 101" fill="none" xmlns="http://www.w3.org/2000/svg">
<path fill-rule="evenodd" clip-rule="evenodd" d="M71.3404 41.5383C69.838 42.0473 68.3974 43.2292 67.6561 44.5616C66.7984 46.1026 66.7726 48.8938 67.6011 50.5196C69.6372 54.5162 75.8342 55.1398 78.9659 51.6632C81.3086 49.0626 81.1218 45.517 78.5145 43.1001C76.5043 41.2368 73.9034 40.6703 71.3404 41.5383ZM108.665 41.5276C106.937 42.1134 105.686 43.2106 104.932 44.7997C104.548 45.6092 104.22 46.284 104.205 46.2992C104.19 46.3147 103.773 46.4003 103.279 46.4895L102.382 46.652V41.4155H99.343V53.7521H102.382V51.521C102.382 49.913 102.478 49.2889 102.727 49.2862C102.917 49.2844 103.333 49.2164 103.651 49.1351C104.135 49.0117 104.351 49.2235 104.97 50.4249C107.038 54.4416 112.768 55.1858 116.11 51.8722C117.314 50.6784 117.85 49.3348 117.85 47.5124C117.85 45.6147 116.88 43.6127 115.461 42.5843C113.62 41.2499 110.784 40.8089 108.665 41.5276ZM53.4883 53.7521H57.0882C61.0624 53.7521 62.1231 53.4972 63.1101 52.3048C63.5418 51.7835 63.7089 51.2176 63.7089 50.2782C63.7089 49.1545 63.5838 48.856 62.7996 48.1109L61.8905 47.247L62.5537 46.5142C63.1109 45.8987 63.1965 45.5779 63.0882 44.5086C62.8396 42.0499 61.5151 41.4192 56.596 41.4171L53.4883 41.4155V53.7521ZM85.2888 47.3743C83.9022 50.6656 82.7679 53.4526 82.7685 53.5678C82.7687 53.6828 83.5323 53.7418 84.4654 53.6991L86.1617 53.6208L87.5731 50.1493C88.3492 48.24 89.0572 46.6748 89.1465 46.6714C89.2357 46.668 89.9705 48.2597 90.7798 50.2086L92.251 53.7521H95.744L95.2125 52.5053C94.9203 51.8197 93.754 49.0734 92.6206 46.4026L90.5599 41.5467L87.8097 41.3903L85.2888 47.3743ZM121.442 53.7521H135.806V51.1273H133.596V41.4155H130.558V51.1273H124.756V41.4155H121.442V53.7521ZM139.673 53.7521H142.591L148.513 46.3352V53.7521H151.551V41.4155H148.54L142.85 48.5167L142.696 41.4155H139.673V53.7521ZM158.214 41.7762C157.701 41.9525 156.995 42.414 156.644 42.8011C155.306 44.2792 155.557 47.4171 157.125 48.8086L157.954 49.5451L156.601 51.3205C155.857 52.2969 155.156 53.2437 155.041 53.424C154.883 53.6741 155.296 53.7521 156.781 53.7521H158.728L160.169 51.7835C161.379 50.1296 161.732 49.8149 162.381 49.8149H163.153V53.7521H166.468V41.4155L162.808 41.4355C160.673 41.447 158.759 41.589 158.214 41.7762ZM75.1956 44.1994C76.5113 44.7926 77.2444 46.0352 77.2444 47.6712C77.2444 48.7883 77.1054 49.1597 76.4019 49.9209C74.7229 51.7381 72.4349 51.7207 70.957 49.8797C69.464 48.0195 70.2013 45.0548 72.3815 44.1529C73.5152 43.6841 74.073 43.6933 75.1956 44.1994ZM113.04 44.4246C114.618 45.4068 115.102 47.9634 114.025 49.6196C112.413 52.0982 108.943 51.7415 107.78 48.9776C106.397 45.6945 110.03 42.5502 113.04 44.4246ZM59.5102 44.3553C59.6925 44.5285 59.8416 44.9364 59.8416 45.2616C59.8416 45.7215 59.6113 45.9139 58.8058 46.1262C58.2362 46.2766 57.4901 46.4003 57.1484 46.4011C56.5957 46.4024 56.5269 46.2719 56.5269 45.2215V44.0403H57.8528C58.582 44.0403 59.3279 44.182 59.5102 44.3553ZM163.429 47.1901H161.725C159.768 47.1901 159.01 46.7439 159.01 45.5931C159.01 44.4149 159.647 44.0403 161.653 44.0403H163.429V47.1901ZM60.2364 49.1773C61.3388 50.2252 60.3803 51.1273 58.1647 51.1273H56.5269V48.765H58.1647C59.2851 48.765 59.9392 48.8952 60.2364 49.1773Z" fill="#1C01A9"/>
<path d="M44.5051 47.6556C44.5051 48.6346 43.6697 49.4281 42.6393 49.4281C41.6088 49.4281 40.7734 48.6346 40.7734 47.6556C40.7734 46.6767 41.6088 45.8832 42.6393 45.8832C43.6697 45.8832 44.5051 46.6767 44.5051 47.6556Z" fill="#1C01A9"/>
<path fill-rule="evenodd" clip-rule="evenodd" d="M44.5544 47.6531C44.5544 48.7392 43.6276 49.6196 42.4843 49.6196C41.3409 49.6196 40.4141 48.7392 40.4141 47.6531C40.4141 46.5671 41.3409 45.6866 42.4843 45.6866C43.6276 45.6866 44.5544 46.5671 44.5544 47.6531ZM42.4843 49.423C43.5132 49.423 44.3474 48.6306 44.3474 47.6531C44.3474 46.6757 43.5132 45.8833 42.4843 45.8833C41.4552 45.8833 40.6211 46.6757 40.6211 47.6531C40.6211 48.6306 41.4552 49.423 42.4843 49.423Z" fill="#1C01A9"/>
<path fill-rule="evenodd" clip-rule="evenodd" d="M35.766 57.6336C35.7311 57.6124 35.7239 57.5669 35.7504 57.5366L37.3154 55.7497C37.3374 55.7247 37.3753 55.7187 37.4047 55.7355C38.9077 56.5912 40.672 57.0846 42.5631 57.0846C44.4701 57.0846 46.2482 56.5828 47.7593 55.7137C47.7888 55.6968 47.8269 55.7027 47.8489 55.7279L49.4131 57.5137C49.4395 57.5439 49.4324 57.5893 49.3977 57.6106C47.4318 58.8173 45.0844 59.5186 42.5631 59.5186C40.0578 59.5186 37.7241 58.8263 35.766 57.6336Z" fill="#1C01A9"/>
<path fill-rule="evenodd" clip-rule="evenodd" d="M35.4703 57.4052L37.0359 55.6177C37.1239 55.5173 37.2751 55.4938 37.3919 55.5603C38.8639 56.3984 40.5921 56.8818 42.4453 56.8818C44.3141 56.8818 46.0558 56.3902 47.5359 55.539C47.6527 55.4718 47.8046 55.495 47.8928 55.5958L49.4576 57.3823C49.5632 57.5028 49.5355 57.6852 49.3952 57.7713C47.396 58.9985 45.0087 59.7116 42.4453 59.7116C39.8982 59.7116 37.5249 59.0076 35.5335 57.7947C35.3926 57.7088 35.3645 57.526 35.4703 57.4052ZM35.6301 57.5314C35.6036 57.5617 35.6108 57.6072 35.6457 57.6285C37.6046 58.8216 39.9391 59.5142 42.4453 59.5142C44.9675 59.5142 47.3158 58.8126 49.2824 57.6054C49.3171 57.5841 49.3243 57.5388 49.2978 57.5085L47.733 55.7221C47.711 55.6969 47.673 55.6909 47.6435 55.7079C46.1318 56.5773 44.353 57.0792 42.4453 57.0792C40.5535 57.0792 38.7886 56.5857 37.285 55.7296C37.2556 55.7129 37.2177 55.7189 37.1957 55.7439L35.6301 57.5314Z" fill="#1C01A9"/>
<path fill-rule="evenodd" clip-rule="evenodd" d="M37.5984 52.1187C37.5719 52.1438 37.5712 52.1843 37.5971 52.21C38.8509 53.4533 40.6162 54.2274 42.5719 54.2274C46.3758 54.2274 49.4596 51.2986 49.4596 47.6859C49.4596 44.0731 46.3758 41.1444 42.5719 41.1444C40.6307 41.1444 38.877 41.9071 37.625 43.1343C37.5989 43.1599 37.5994 43.2006 37.626 43.2258L39.3393 44.8531C39.3671 44.8795 39.4125 44.8786 39.4396 44.8515C40.2276 44.0663 41.3396 43.5769 42.5719 43.5769C44.9613 43.5769 46.8983 45.4166 46.8983 47.6859C46.8983 49.9552 44.9613 51.7949 42.5719 51.7949C41.3255 51.7949 40.2022 51.2943 39.4127 50.4932C39.3856 50.4658 39.34 50.4647 39.312 50.4912L37.5984 52.1187Z" fill="#1C01A9"/>
<path fill-rule="evenodd" clip-rule="evenodd" d="M42.7139 54.4237C40.6989 54.4237 38.8799 53.6258 37.5884 52.3452C37.4835 52.2412 37.4874 52.0781 37.5928 51.978L39.3066 50.3503C39.4193 50.2433 39.6002 50.2497 39.7059 50.357C40.4578 51.1199 41.5271 51.5963 42.7139 51.5963C44.9889 51.5963 46.8331 49.8447 46.8331 47.6841C46.8331 45.5234 44.9889 43.7718 42.7139 43.7718C41.5405 43.7718 40.482 44.2375 39.7315 44.9854C39.6254 45.0911 39.4459 45.0966 39.334 44.9903L37.6204 43.3629C37.5146 43.2624 37.5112 43.0984 37.6171 42.9946C38.9068 41.7305 40.7138 40.9445 42.7139 40.9445C46.633 40.9445 49.8101 43.9619 49.8101 47.6841C49.8101 51.4062 46.633 54.4237 42.7139 54.4237ZM37.7384 52.2088C37.7125 52.1831 37.7132 52.1426 37.7397 52.1175L39.4535 50.4898C39.4815 50.4632 39.5272 50.4643 39.5542 50.4917C40.3438 51.2929 41.4673 51.7936 42.7139 51.7936C45.1035 51.7936 47.0408 49.9537 47.0408 47.6841C47.0408 45.4144 45.1035 43.5745 42.7139 43.5745C41.4814 43.5745 40.3692 44.0639 39.5811 44.8493C39.554 44.8763 39.5087 44.8773 39.4808 44.8508L37.7673 43.2234C37.7407 43.1982 37.7402 43.1575 37.7663 43.1318C39.0185 41.9045 40.7723 41.1417 42.7139 41.1417C46.5183 41.1417 49.6024 44.0708 49.6024 47.6841C49.6024 51.2973 46.5183 54.2264 42.7139 54.2264C40.7579 54.2264 38.9923 53.4522 37.7384 52.2088Z" fill="#1C01A9"/>
</svg>
