<svg width="203" height="102" viewBox="0 0 203 102" fill="none" xmlns="http://www.w3.org/2000/svg">
<path d="M31.7412 58.3607C29.522 58.3607 27.7767 57.9017 26.5054 56.9837C23.9683 55.153 24.275 51.168 25.3316 48.6475C26.826 45.0391 30.4113 43.3756 34.334 43.3756C37.1387 43.3756 41.2008 44.0283 41.2008 47.4694C41.2008 51.948 36.1825 52.5105 32.5581 52.5105C31.6221 52.5141 30.6867 52.4681 29.7562 52.3725C29.3882 54.5481 30.8546 54.8293 32.8034 54.8559C34.2388 54.8329 35.6629 54.6094 37.03 54.1926C37.4092 54.0944 37.6462 54.036 37.8664 54.3836L38.9537 56.5406C39.1182 56.806 38.99 57.0182 38.569 57.196C36.5003 58.0689 33.9437 58.3687 31.7384 58.3687L31.7412 58.3607ZM50.9755 46.4161C49.5536 46.4161 48.4663 46.9998 48.207 48.3821L46.9106 55.0416C47.7916 55.1742 48.6813 55.2469 49.5731 55.2592C51.0062 55.2592 53.3899 54.8851 53.3899 53.0756C53.3899 51.6164 51.1902 51.7119 50.1335 51.7119C49.6902 51.7119 49.3389 51.6694 49.4337 51.1653L49.6791 49.8546C49.7878 49.2789 50.2701 49.2418 50.7943 49.1993C51.6864 49.1303 53.1752 48.8119 53.1752 47.6976C53.1808 46.6655 51.7812 46.4055 50.9755 46.4055V46.4161ZM43.1691 48.3529C43.8578 44.5032 47.6634 43.3146 51.2877 43.3146C53.6185 43.3146 57.9371 43.8717 58.0486 46.8619C58.1016 48.3025 56.9919 49.4912 55.6314 49.974V50.1094C57.201 50.5339 58.503 51.4359 58.503 53.1101C58.503 57.2862 52.8295 58.3501 49.4644 58.3501C47.0835 58.3501 44.3986 58.167 42.1794 57.2888C41.7501 57.119 41.6218 56.9015 41.6887 56.4717L43.1691 48.3529ZM63.276 63.163C63.1952 63.614 62.8941 63.6273 62.4703 63.6273H58.938C58.5504 63.6273 58.227 63.614 58.3079 63.163L61.5308 45.3681C61.574 45.1671 61.6751 44.9815 61.8228 44.8321C61.9705 44.6826 62.159 44.5752 62.3672 44.5218C64.7007 43.686 67.3493 43.4287 69.8278 43.4287C74.1241 43.4287 77.4696 44.9542 77.3553 49.4885C77.2159 54.9885 73.639 58.305 67.9766 58.305C66.7194 58.3132 65.4643 58.2039 64.2295 57.9787L63.276 63.163ZM68.8158 46.8433C67.9308 46.8411 67.0488 46.9418 66.1895 47.1431L64.8568 54.5932C65.7513 54.7988 66.6689 54.8994 67.5891 54.893C70.7673 54.893 72.284 52.5423 72.284 49.7353C72.284 47.6233 70.8844 46.8433 68.8158 46.8433ZM88.1532 46.7345C86.0092 46.7345 84.6459 48.1593 84.1246 50.0377C83.5 52.2903 83.6171 55.0045 86.7174 55.0045C89.8176 55.0045 90.9913 51.9851 90.9913 49.4646C90.9913 47.7029 90.0156 46.7345 88.1532 46.7345ZM88.6076 43.3783C92.7227 43.3783 96.1352 45.0365 96.1352 49.3558C96.1352 55.2512 91.9532 58.4191 86.1514 58.3607C82.2036 58.3209 78.6545 56.9651 78.6545 52.7121C78.6305 51.353 78.8804 50.002 79.3906 48.7324C80.949 45.0391 84.6598 43.3756 88.6104 43.3756L88.6076 43.3783ZM105.848 46.6523C105.087 46.6384 104.325 46.6837 103.571 46.7876L101.619 57.5674C101.535 58.0317 101.265 58.0583 100.813 58.0583H97.3368C96.9493 58.0583 96.5868 58.0211 96.6705 57.5674L98.8088 45.859C99.0542 44.5138 99.9101 43.8638 101.296 43.6489C102.921 43.4387 104.56 43.3499 106.2 43.3836C109.222 43.3836 113.449 43.7444 114.257 47.1643C114.464 48.2533 114.452 49.3697 114.221 50.4543L112.961 57.578C112.877 58.045 112.607 58.0689 112.155 58.0689H108.65C108.26 58.0689 107.903 58.0317 107.984 57.578L109.317 50.2128C109.47 49.3718 109.576 48.2627 108.968 47.5597C108.263 46.7159 106.863 46.6523 105.848 46.6523ZM144.448 46.7345C142.363 46.7345 140.905 47.9895 140.227 49.8042C139.137 52.7227 139.639 55.0894 143.364 55.031C144.18 55.0121 144.991 54.9026 145.781 54.7046C146.196 52.1178 146.634 49.5124 147.217 46.9547C146.499 46.8381 145.773 46.7698 145.045 46.7504C144.811 46.7372 144.61 46.7345 144.448 46.7345ZM144.685 43.4048C147.064 43.4114 149.436 43.6587 151.761 44.1424C152.349 44.2644 152.533 44.4634 152.427 45.0153C151.658 48.9632 150.936 52.935 150.361 56.9147C150.346 57.0451 150.286 57.167 150.192 57.2626C150.097 57.3582 149.973 57.4223 149.837 57.4454C147.419 58.0824 144.919 58.3949 142.41 58.374C138.228 58.374 134.671 57.1323 134.671 52.8023C134.651 51.471 134.872 50.1464 135.323 48.8862C136.773 44.9914 140.584 43.4048 144.685 43.4048ZM131.86 57.1509L131.791 57.5435V57.5648C131.701 58.0158 131.445 58.0609 130.99 58.0609H127.525C127.012 58.0609 126.828 57.8831 126.895 57.5144L128.794 46.9521H124.653C124.182 48.8597 123.747 50.7833 123.148 52.6564C122.033 56.1241 119.889 57.7691 116.248 58.6048C115.885 58.6871 115.411 58.703 115.233 58.2785L114.424 56.3151C114.218 55.811 114.466 55.612 114.948 55.4422C117.078 54.6914 118.035 53.8318 118.818 51.6084C119.457 49.7989 119.813 47.4801 120.377 45.3443C120.708 44.0893 121.492 43.7338 122.794 43.7338H132.273C133.564 43.7338 134.225 44.0973 133.99 45.392V45.4238L131.86 57.1509ZM157.613 57.5144C157.524 58.0211 157.276 58.0609 156.777 58.0609H153.35C152.837 58.0609 152.62 57.8805 152.684 57.5144L155.101 44.2485C155.165 43.9009 155.438 43.7179 155.907 43.7179H159.339C159.81 43.7179 160.091 43.7179 160.005 44.2485L159.199 48.9154H165.506L166.342 44.2485C166.403 43.9009 166.693 43.7179 167.178 43.7179H170.613C171.079 43.7179 171.372 43.7179 171.28 44.2485L168.862 57.5144C168.77 58.0185 168.57 58.0609 168.057 58.0609H164.63C164.117 58.0609 163.9 57.8805 163.964 57.5144L164.945 52.0302H158.605L157.613 57.5144ZM34.0524 46.6788C32.1009 46.6788 30.6372 47.7772 30.2329 49.5973C31.4805 49.6951 32.735 49.6817 33.98 49.5575C35.0004 49.4461 36.2912 49.194 36.2912 47.9895C36.294 46.8619 34.9558 46.6788 34.0524 46.6788Z" fill="#005B95"/>
<path d="M170.668 62.8842C135.886 56.5698 102.86 60.2311 67.6012 70.5941C66.6115 70.8859 66.486 71.2494 67.7629 70.9894C100.284 64.3248 135.596 62.1121 170.542 63.5607C171.248 63.5899 172.268 63.6111 172.265 63.444C172.262 63.2768 171.944 63.1097 170.668 62.8789" fill="#F56920"/>
<path d="M176.482 44.0622C176.916 44.0622 177.341 44.1848 177.702 44.4146C178.064 44.6443 178.345 44.9709 178.512 45.3529C178.678 45.735 178.721 46.1554 178.637 46.561C178.552 46.9665 178.343 47.3391 178.035 47.6315C177.728 47.9239 177.337 48.1231 176.911 48.2037C176.484 48.2844 176.043 48.243 175.641 48.0847C175.24 47.9265 174.897 47.6585 174.655 47.3147C174.414 46.9708 174.285 46.5666 174.285 46.1531C174.286 45.5987 174.518 45.0673 174.929 44.6754C175.341 44.2834 175.9 44.0629 176.482 44.0622ZM176.482 43.7982C175.993 43.7982 175.514 43.9363 175.107 44.1951C174.701 44.4538 174.383 44.8216 174.196 45.2519C174.009 45.6822 173.96 46.1557 174.055 46.6125C174.151 47.0693 174.386 47.4889 174.732 47.8182C175.079 48.1475 175.519 48.3718 175.999 48.4627C176.479 48.5535 176.977 48.5069 177.429 48.3286C177.881 48.1504 178.267 47.8486 178.539 47.4613C178.811 47.0741 178.956 46.6188 178.956 46.1531C178.955 45.529 178.694 44.9307 178.231 44.4896C177.767 44.0486 177.138 43.8009 176.482 43.8009V43.7982Z" fill="#005B95"/>
<path d="M176.835 46.2211C176.927 46.2454 177.009 46.2971 177.068 46.3685C177.119 46.4402 177.157 46.5194 177.181 46.6029L177.408 47.3928C177.413 47.4047 177.413 47.4178 177.408 47.4297C177.408 47.4297 177.389 47.4481 177.367 47.4481H177.154H177.118C177.118 47.4481 177.096 47.4323 177.09 47.4139L176.883 46.7003C176.864 46.6338 176.834 46.5706 176.794 46.5133C176.762 46.4682 176.72 46.4297 176.672 46.4001C176.625 46.3719 176.572 46.3522 176.517 46.3422C176.457 46.3309 176.396 46.3256 176.335 46.3264H175.729V47.406C175.732 47.4122 175.733 47.4189 175.733 47.4257C175.733 47.4325 175.732 47.4392 175.729 47.4455C175.716 47.4497 175.701 47.4497 175.687 47.4455H175.491C175.478 47.4495 175.463 47.4495 175.45 47.4455C175.447 47.4392 175.445 47.4325 175.445 47.4257C175.445 47.4189 175.447 47.4122 175.45 47.406V45.0362C175.446 44.9901 175.46 44.9444 175.488 44.9071C175.507 44.8904 175.529 44.8777 175.554 44.87C175.578 44.8622 175.604 44.8597 175.629 44.8624H176.506C176.619 44.8606 176.732 44.8784 176.838 44.915C176.932 44.9481 177.018 44.9992 177.09 45.0651C177.16 45.1291 177.214 45.2062 177.25 45.2916C177.288 45.3821 177.307 45.4787 177.306 45.576C177.308 45.7147 177.268 45.851 177.19 45.9683C177.111 46.0841 176.993 46.1706 176.855 46.2132L176.835 46.2211ZM176.982 45.5865C176.982 45.5275 176.973 45.4689 176.954 45.4127C176.936 45.3569 176.905 45.3057 176.863 45.2626C176.814 45.2196 176.755 45.1873 176.692 45.1678C176.614 45.1396 176.531 45.1262 176.448 45.1283H175.735V46.0657H176.426C176.501 46.0721 176.577 46.0638 176.649 46.0411C176.721 46.0185 176.787 45.982 176.844 45.9341C176.89 45.888 176.926 45.8334 176.95 45.7737C176.974 45.714 176.985 45.6503 176.982 45.5865Z" fill="#005B95"/>
</svg>
