<svg width="203" height="101" viewBox="0 0 203 101" fill="none" xmlns="http://www.w3.org/2000/svg">
<path fill-rule="evenodd" clip-rule="evenodd" d="M74.9404 49.357H78.2022L78.5826 47.1065H80.8116L81.1921 49.357H84.4539L81.7086 36.3201H77.6857L74.9404 49.357ZM79.697 40.2778L80.3223 44.2353H79.0991L79.697 40.2778ZM87.5527 41.4419C87.7428 41.4676 87.9331 41.4419 88.0963 41.39C88.2593 41.3383 88.4224 41.2349 88.5854 41.1315C88.7214 41.0279 88.8301 40.8727 88.9117 40.7176C88.9932 40.5623 89.0476 40.3812 89.0476 40.2261C89.0476 40.0708 88.9932 39.8897 88.9389 39.7346C88.8613 39.5841 88.75 39.4516 88.6127 39.3465C88.4768 39.2431 88.3136 39.1656 88.1506 39.1137C87.9875 39.062 87.7973 39.062 87.6342 39.062C87.0362 39.062 86.4382 39.1914 85.8673 39.4241V36.6564C86.7915 36.4236 87.7157 36.3201 88.6671 36.3201C91.2764 36.3201 92.4725 38.0015 92.4725 39.6052C92.4996 40.2261 92.3093 40.8468 91.9288 41.39C91.5755 41.9073 91.0319 42.3213 90.4066 42.5541V42.6833C91.0862 42.8645 91.657 43.2784 92.0647 43.8214C92.4725 44.3648 92.6628 45.0372 92.6083 45.7098C92.6083 48.0895 90.7873 49.3828 88.4496 49.3828C87.3895 49.4347 86.3566 49.2019 85.4325 48.7362L85.4868 46.1236C86.1664 46.4081 86.873 46.5375 87.607 46.5116C87.7973 46.5377 87.9603 46.5116 88.1234 46.4599C88.2864 46.4082 88.4496 46.3305 88.5854 46.2013C88.7214 46.0977 88.8301 45.9426 88.9117 45.7873C88.9932 45.6322 89.0204 45.477 89.0204 45.2959C89.0204 44.5976 88.5311 44.1061 87.4167 44.1061H86.1664V41.4416H87.5527V41.4419ZM94.1034 36.3459H102.856V49.3828H99.6485V39.4759H97.3108V49.3828H94.1034V36.3459ZM104.704 49.357H107.884V45.0632H108.972C112.152 45.0632 113.131 42.373 113.131 40.6657C113.131 38.9586 112.016 36.3201 108.972 36.3201H104.704V49.357ZM107.857 39.2173H108.618C109.352 39.2173 109.814 39.631 109.814 40.6916C109.814 42.1143 109.053 42.1919 108.618 42.1919H107.857V39.2174V39.2173ZM119.056 49.4087C122.861 49.4087 124.139 46.1496 124.139 42.8903C124.139 39.631 122.861 36.3718 119.056 36.3718C115.278 36.3718 113.973 39.631 113.973 42.8903C113.973 46.1496 115.251 49.4087 119.056 49.4087ZM119.056 46.3305C117.914 46.3305 117.344 45.1149 117.344 42.8643C117.344 40.6142 117.914 39.3982 119.056 39.3982C120.198 39.3982 120.768 40.614 120.768 42.8645C120.768 45.1149 120.198 46.3307 119.056 46.3307V46.3305ZM138.11 49.3053H141.943C142.514 49.3311 143.112 49.2277 143.655 49.0208C144.199 48.8138 144.688 48.5034 145.096 48.0895C145.504 47.7016 145.803 47.2099 146.02 46.6928C146.211 46.1754 146.292 45.6064 146.238 45.0632C146.238 41.7522 143.547 41.183 141.807 41.183H141.263V39.4759H145.531V36.3718H138.138V49.3311H138.11V49.3053ZM141.236 46.7186V43.7697H141.698C142.079 43.7697 143.085 43.7697 143.085 45.1149C143.085 46.4599 142.079 46.7445 141.698 46.7445L141.236 46.7185V46.7186ZM157.763 36.3459H160.888V41.0279H163.117V36.3459H166.27V49.357H163.117V44.1319H160.888V49.3311H157.763V36.3459ZM168.391 36.3459H171.517V41.0279H172.196L173.99 36.3459H177.415L174.968 42.5022L177.768 49.3311H174.072L172.277 44.1061H171.517V49.3311H168.391V36.3459ZM68.6887 36.3719H75.2665V39.6052H71.9504V49.3311H68.6887V36.3718V36.3719ZM125.688 36.3459H128.406L130.798 39.4241L133.218 36.3459H135.936V49.3828H132.728V41.4159L130.798 43.6922L128.869 41.416V49.357H125.661V36.3459H125.688ZM146.863 49.3828H150.125L150.505 47.1325H152.761L153.142 49.3828H156.404L153.658 36.3459H149.635L146.863 49.3828ZM151.62 40.3036L152.218 44.2612H150.994L151.62 40.3036ZM141.701 51.7625V58.7726L144.582 51.7625H147.518V64.7478H144.609V57.7379L141.701 64.7478H138.792V51.7625H141.701ZM119.494 51.7625V64.7478H122.402L125.31 57.7379V64.7478H128.219V51.7625H125.31L122.429 58.7726V51.7625H119.494ZM109.926 51.6591V58.7984C109.926 61.1006 109.599 61.6438 108.92 61.6438C108.675 61.6179 108.431 61.5921 108.186 61.5402V64.5925C108.594 64.7478 109.029 64.8253 109.491 64.8253C112.916 64.8253 112.916 61.6955 112.916 59.9365V54.789H114.166V64.6444H117.156V51.6591H109.926ZM130.747 56.8066V59.5486H132.051C133.139 59.5486 133.628 60.0142 133.628 60.7383C133.628 60.9195 133.574 61.0747 133.492 61.2298C133.411 61.3851 133.302 61.5143 133.166 61.6438C133.03 61.7472 132.867 61.8507 132.704 61.9024C132.541 61.9541 132.351 61.98 132.187 61.9541C131.453 61.98 130.72 61.8507 130.067 61.5662L130.013 64.1787C130.937 64.6444 131.997 64.8772 133.057 64.8253C135.368 64.8253 137.216 63.5061 137.216 61.1264C137.27 60.4538 137.08 59.8072 136.672 59.264C136.265 58.7207 135.694 58.3069 135.014 58.1258V57.9966C135.639 57.7637 136.156 57.324 136.509 56.8066C136.863 56.2634 137.026 55.6426 136.999 54.996C136.999 53.3664 135.83 51.685 133.193 51.685C132.242 51.685 131.318 51.7884 130.393 52.0212V54.7373C130.964 54.5045 131.562 54.4011 132.16 54.4269C132.323 54.4011 132.514 54.4269 132.677 54.4786C132.84 54.5303 133.003 54.6079 133.139 54.7114C133.275 54.8148 133.383 54.9701 133.465 55.0994C133.546 55.2546 133.574 55.4099 133.574 55.5909C133.546 55.9272 133.383 56.2634 133.112 56.4963C132.84 56.7291 132.486 56.8325 132.106 56.8325H130.747V56.8066ZM160.511 64.7219H163.772V54.996H167.088V51.7367H160.511V64.7219ZM149.801 64.7219H152.927V59.5486H155.156V64.7478H158.309V51.7367H155.156V56.4187H152.927V51.7367H149.801V64.7219ZM79.1562 64.5149H82.8529C83.478 64.5149 84.0488 64.4115 84.5381 64.2304C85.0274 64.0493 85.4624 63.7906 85.7885 63.4803C86.1418 63.1441 86.3865 62.7818 86.5768 62.3422C86.7671 61.9024 86.8486 61.4368 86.8486 60.9195C86.8486 60.5832 86.8214 60.2469 86.7398 59.9106C86.6583 59.5744 86.5496 59.264 86.4136 58.9794C86.2506 58.6949 86.0603 58.4362 85.8428 58.2294C85.5982 58.0224 85.3264 57.8413 84.9731 57.7379C85.0274 57.7379 85.1089 57.6602 85.2721 57.5826C85.4352 57.4792 85.5982 57.324 85.7885 57.1429C85.9788 56.936 86.1147 56.6774 86.2778 56.341C86.4136 56.0048 86.4953 55.5909 86.4953 55.1252C86.4953 54.6597 86.4136 54.1941 86.2235 53.7802C86.0641 53.3719 85.8137 53.0013 85.4895 52.6938C85.1634 52.3834 84.7828 52.1506 84.3206 51.9695C83.8587 51.7884 83.3422 51.7108 82.7714 51.7108H79.1562V64.5149ZM82.2278 56.7291V54.4528H82.6897C82.9344 54.4528 83.1247 54.5562 83.2607 54.7373C83.3965 54.9184 83.478 55.2029 83.478 55.5909C83.478 55.9789 83.3965 56.2634 83.2607 56.4704C83.1247 56.6514 82.9344 56.7549 82.6897 56.7549H82.2278V56.7291ZM82.2278 61.773V59.2122H82.7714C83.0432 59.2122 83.2607 59.3158 83.4508 59.5486C83.6412 59.7555 83.7227 60.0918 83.7227 60.5055C83.7227 60.9195 83.6412 61.2298 83.4508 61.4626C83.2607 61.6696 83.0432 61.7989 82.7714 61.7989H82.2278V61.773ZM87.963 51.7367V54.9184H90.5725V64.5149H93.7255V54.9184H96.3349V51.7367H87.963ZM102.397 51.6591C106.093 51.6591 107.343 54.9443 107.343 58.2294C107.343 61.5143 106.093 64.7995 102.397 64.7995C98.6998 64.7995 97.4494 61.5143 97.4494 58.2294C97.4494 54.9443 98.6998 51.6591 102.397 51.6591ZM102.397 54.7631C101.309 54.7631 100.738 55.9789 100.738 58.2294C100.738 60.4797 101.309 61.6955 102.397 61.6955C103.511 61.6955 104.055 60.4797 104.055 58.2294C104.055 55.9789 103.484 54.7631 102.397 54.7631ZM75.2964 51.7367L77.9602 64.5408H74.78L74.3995 62.3422H72.225L71.8443 64.5408H68.6641L71.3279 51.7367H75.2964ZM72.7414 59.4969H73.9102L73.3122 55.5909L72.7414 59.4969Z" fill="#162E89"/>
<path d="M25.1367 50.5107C25.1367 59.7711 33.0196 67.2984 42.6962 67.2984C52.373 67.2984 60.2558 59.7711 60.2558 50.5107C60.2558 41.2501 52.373 33.7228 42.6962 33.7228C33.0194 33.7228 25.1367 41.2501 25.1367 50.5107ZM25.7347 50.5107C25.7347 41.5605 33.3456 34.2918 42.6964 34.2918C52.047 34.2918 59.658 41.5865 59.658 50.5107C59.658 59.4607 52.047 66.7294 42.6964 66.7294C33.3459 66.7294 25.7348 59.4607 25.7348 50.5107H25.7347ZM30.6004 45.9063C35.0852 43.0868 40.0596 41.457 48.4859 42.8281C48.9481 42.5694 49.1927 42.3366 49.3287 41.7934C47.2357 41.0691 44.9523 40.8104 41.9895 40.8621C39.3529 40.9397 34.5689 41.871 32.041 43.3196L32.8293 42.3883C34.6232 41.4053 39.2441 40.0601 42.7234 40.0086C45.1698 39.9567 46.4474 40.0861 49.3559 40.8361C49.1112 40.3448 48.4859 40.112 47.6161 39.7498C44.7893 38.5341 39.5159 38.4306 35.194 40.2414C35.7376 39.905 36.2813 39.5688 36.9609 39.2843C38.3743 38.6634 40.712 38.0685 43.6204 38.0943C45.9581 38.1203 48.7034 38.8962 50.416 40.4999C50.6878 40.8104 50.8508 41.1467 50.9325 41.4312C52.2642 42.0779 53.0525 42.6987 53.4875 43.3972C53.6778 43.7592 53.7321 44.1732 53.6506 44.6129C54.2214 44.9233 54.4661 45.2078 54.7379 45.5441C54.9281 45.8286 55.0912 46.165 55.1184 46.4753C55.1727 46.8891 55.227 47.3289 54.7922 47.8463C55.2544 48.0532 55.6077 48.674 55.662 48.9326C55.8795 49.8898 55.2271 50.8469 54.3573 51.5712C53.3788 52.3989 51.2043 53.3819 49.4374 53.8217C45.9037 54.6753 42.8049 55.0373 40.3314 55.4513C41.4458 55.7099 42.9409 56.0462 45.4144 56.0462C50.6606 56.0462 55.3087 53.6664 55.3087 53.6664C55.3087 53.6664 55.1999 53.9768 55.0912 54.2613C51.7479 56.1756 46.4474 57.0033 44.1913 56.8999C41.8808 56.7963 39.9509 56.4601 38.0482 55.9169C37.4774 56.072 36.9066 56.2273 36.3358 56.4601C39.2713 57.7793 41.4458 58.0638 43.9195 58.2449C46.4202 58.4261 50.579 57.831 54.1126 56.6152C53.9496 56.7705 53.868 57.0033 53.705 57.1585C51.9109 58.0638 48.1054 58.9692 46.2027 59.0468C44.3 59.1244 41.9895 59.0468 39.9781 58.6847C38.2385 58.3742 36.8249 57.831 35.3572 57.2103C35.0853 57.3912 34.9493 57.6499 34.895 57.9086C40.6304 60.8058 46.0669 60.8833 52.2099 59.0468L51.6391 59.5641C44.8436 62.2026 39.5431 61.1679 35.4386 59.2796C35.3028 59.2279 35.1397 59.1502 35.031 59.0985C35.4115 59.7453 38.5375 61.918 42.0439 62.2025C44.4631 62.3837 47.3987 61.9956 49.1656 61.3231L48.1326 61.8405C47.29 62.2284 45.0339 63.1338 41.908 62.9527C37.722 62.694 35.3843 60.9092 34.3242 59.9781C33.8349 59.5383 33.5903 59.0468 33.4544 58.4261C32.503 57.9604 31.905 57.4689 31.4157 56.7188C31.1167 56.279 31.1711 55.8133 31.2527 55.3996C31.2799 55.2701 31.307 55.1409 31.3614 55.0373C30.8992 54.727 30.4371 54.3907 30.2469 54.0543C29.8391 53.3302 30.0838 52.7351 30.3828 52.2437C30.1381 51.985 29.8936 51.7005 29.8121 51.4418C29.7033 51.1056 29.6761 50.7952 29.7033 50.4588C29.7848 49.8639 30.1109 49.3207 30.5459 48.8292C31.4702 47.8204 32.8836 47.0444 35.357 46.2684C37.7762 45.5182 38.7278 45.3888 40.549 45.0009C42.6691 44.5352 45.1969 44.3801 47.3443 43.6817C41.4458 42.6211 35.2757 43.5264 30.2741 46.8374L30.6004 45.9063ZM50.7693 42.4142C50.6878 42.6987 50.3888 43.0092 50.1713 43.2419C50.8236 43.3972 51.4761 43.63 52.1012 43.8628C52.0197 43.3196 51.3401 42.7762 50.7693 42.4142ZM32.5301 53.744C32.1497 53.537 31.8778 53.4077 31.5789 53.1749C31.4157 53.537 31.742 53.9251 32.0682 54.1062C32.2312 53.9768 32.3943 53.8734 32.5301 53.744ZM52.4817 46.3459C52.9167 46.5529 53.2972 46.7082 53.6506 46.941C53.9224 46.4495 53.7593 46.139 53.1885 45.6735C52.9982 45.932 52.7535 46.139 52.4817 46.3459ZM51.2314 47.0702C50.3615 47.4583 49.1384 47.8463 47.3443 48.286C45.9037 48.6223 42.3429 49.1138 38.5375 49.9156C37.3142 50.1743 34.0524 50.8986 32.4486 52.2178C32.8836 52.5542 33.1826 52.6576 33.6719 52.9163C34.3514 52.5023 35.2485 52.1144 36.5803 51.7782C38.918 51.1831 40.6575 50.9244 42.7777 50.6141C44.8708 50.2778 48.7851 49.5018 50.9596 48.7517C51.6662 48.5189 52.3187 48.1826 52.808 47.8204C52.672 47.6653 51.2858 47.0185 51.2314 47.0702ZM34.7592 55.7875C35.0853 55.6064 35.4658 55.4254 35.9008 55.2443C35.3028 55.0115 34.6775 54.727 34.0252 54.4683C33.7262 54.6494 33.4816 54.8304 33.2913 55.0115L34.7592 55.7875ZM32.7476 55.9686C32.7476 56.3307 32.9651 56.6671 33.5088 57.0808C33.5631 56.8739 33.6719 56.7188 33.8351 56.5376C33.4544 56.3825 33.0738 56.1756 32.7476 55.9686ZM35.7105 49.0621C40.0052 47.8721 44.4903 47.4842 49.0569 46.3459C47.2628 45.8805 46.2842 45.6735 44.4086 45.8804C41.6633 46.1908 38.6733 46.7599 36.0911 47.4842C35.0853 47.7687 29.7848 49.2173 31.307 51.2348C31.307 51.2608 32.204 50.045 35.7105 49.0621ZM51.7751 44.8715C51.0683 44.5611 50.1985 44.2766 49.2742 44.0439C48.8666 44.3543 48.3773 44.6388 47.6978 44.8975C48.8666 45.1043 49.7092 45.389 50.6878 45.6735C50.8508 45.751 51.6391 45.0267 51.7751 44.8715ZM53.8953 48.8034C53.7593 48.9068 53.6235 49.0103 53.4603 49.1396C52.4817 49.8639 50.9596 50.433 48.8394 50.9762C44.4358 52.1144 41.2285 52.2695 37.586 53.1232C36.8794 53.2783 36.1454 53.5112 35.4386 53.7957C36.1183 54.1321 36.8521 54.4166 37.6132 54.7011C39.0811 54.2872 39.8149 54.1062 41.9351 53.7698C42.7506 53.6406 45.2786 53.2266 47.0725 52.8387C50.3615 52.1661 55.1727 50.7175 53.8953 48.8034Z" fill="#162E89"/>
</svg>
