<svg width="203" height="101" viewBox="0 0 203 101" fill="none" xmlns="http://www.w3.org/2000/svg">
<path fill-rule="evenodd" clip-rule="evenodd" d="M62.2888 27.5788C61.6998 27.6636 60.9313 27.7746 60.581 27.8255C59.2266 28.0222 58.0676 28.3748 56.7603 28.9877C56.2827 29.2116 55.6705 29.5367 55.3999 29.7101C53.6475 30.8332 52.1289 32.5963 51.1078 34.693L50.8012 35.3227H48.4982C47.2171 35.3227 46.1953 35.3443 46.1953 35.3713C46.1953 35.5576 46.6788 38.3491 46.7993 38.8587C47.1711 40.4299 47.9428 42.1874 48.7985 43.4108C49.4666 44.366 50.5938 45.3955 51.853 46.2006C52.3798 46.5374 53.7816 47.2434 54.3434 47.4549L54.5894 47.5476V49.7652V51.9829L54.7486 51.9526C55.0979 51.8863 55.6505 51.8034 56.6445 51.6683C57.8575 51.5034 58.2523 51.4133 59.3964 51.0406C61.5202 50.3486 63.1259 49.4849 64.3181 48.3932C65.0305 47.7409 65.539 47.1627 66.0586 46.4144C66.3974 45.9264 67.0068 44.8183 67.2526 44.2431L67.3767 43.9527H69.6415C71.7709 43.9527 71.9046 43.9469 71.8774 43.8559C71.8393 43.7282 71.6364 42.4436 71.5171 41.5739C71.2004 39.2662 70.2585 37.0969 68.827 35.3781C67.6718 33.9912 66.2529 32.9208 64.4753 32.0953L63.6226 31.6993L63.6214 29.5556L63.6203 27.412L63.49 27.4183C63.4183 27.4218 62.8778 27.494 62.2888 27.5788ZM124.492 28.1921C122.805 28.3407 120.972 28.8069 119.498 29.4613C116.28 30.8906 114.026 33.7815 113.406 37.2785C113.09 39.064 113.149 41.431 113.552 43.0908C113.879 44.4392 114.556 45.8203 115.44 46.9406C116.147 47.8376 117.337 48.8554 118.45 49.5148C121.08 51.0727 124.679 51.6082 128.449 51.0025C129.368 50.8548 129.942 50.7336 130.966 50.4707L131.651 50.2947L131.62 50.0695C131.602 49.9456 131.52 49.1099 131.436 48.2123C131.353 47.3147 131.275 46.5514 131.264 46.5159C131.25 46.4727 131.066 46.5152 130.704 46.6455C129.923 46.9265 128.775 47.1934 127.883 47.3015C126.945 47.4151 125.299 47.39 124.492 47.2497C121.934 46.8054 120.071 45.4777 118.988 43.3252C118.468 42.2945 118.262 41.2862 118.262 39.776C118.261 37.8114 118.614 36.6082 119.598 35.2174C120.811 33.5042 122.274 32.5836 124.451 32.1636C124.938 32.0697 125.352 32.0383 126.385 32.0173C128.221 31.98 129.25 32.1119 130.674 32.5666C131.053 32.6876 131.37 32.7784 131.378 32.7685C131.42 32.7229 131.633 28.8756 131.596 28.8442C131.539 28.7951 130.467 28.5482 129.723 28.4127C128.305 28.1545 126.014 28.0578 124.492 28.1921ZM143.017 28.1927C142.273 28.2692 141.178 28.4887 140.548 28.6876C139.962 28.8723 138.789 29.3913 138.219 29.7177C136.526 30.6874 135.105 32.2564 134.341 34.0007C133.519 35.8788 133.142 37.6378 133.141 39.61C133.14 41.0502 133.266 42.0462 133.609 43.3114C134.213 45.5416 135.056 46.9643 136.629 48.4059C137.403 49.1157 138.15 49.6257 139.022 50.0391C142.906 51.8807 148.486 51.5816 151.741 49.3574C154.154 47.7079 155.676 45.1328 156.167 41.8699C156.298 40.9956 156.318 38.4692 156.199 37.6738C155.961 36.0741 155.586 34.9125 154.852 33.5024C154.239 32.3231 153.796 31.7109 153.027 30.9756C151.614 29.6258 149.607 28.722 147.069 28.2922C146.517 28.1986 146.084 28.1709 144.956 28.1568C144.176 28.1471 143.303 28.1632 143.017 28.1927ZM78.498 39.693V51.0336H80.9584H83.4187V46.7796V42.5256L85.5462 42.4997C87.8113 42.4723 88.1236 42.4425 89.194 42.1516C89.7756 41.9936 91.0017 41.4301 91.6459 41.0249C92.7153 40.352 93.5058 39.3513 94.1561 37.8476C95.0064 35.8808 94.8136 33.8684 93.5836 31.8712C93.2 31.2484 92.571 30.4662 92.1476 30.0856C91.3468 29.3656 90.2127 28.8834 88.6578 28.6019C87.4267 28.379 86.7846 28.3528 82.5359 28.3526L78.498 28.3524V39.693ZM97.0373 39.6792L97.0519 51.006L104.129 51.02L111.206 51.0341V48.987V46.9399H106.575H101.944V44.0633V41.1867H106.141H110.338V39.3334V37.4802H106.141H101.944V34.9078V32.3355H106.575H111.206V30.3439V28.3524H104.114H97.0226L97.0373 39.6792ZM60.7258 35.1015V39.6377H62.173H63.6203V37.2036C63.6203 35.8649 63.6364 34.7695 63.6561 34.7695C63.7271 34.7695 64.3895 35.1757 64.854 35.504C65.9526 36.2805 66.98 37.4114 67.6041 38.5313C67.9383 39.131 68.3982 40.3656 68.5676 41.1175L68.608 41.2973H63.9722H59.3364V42.625V43.9527H61.7731H64.2098L63.996 44.3261C63.6134 44.9944 63.1422 45.5708 62.3756 46.3081C61.1664 47.4713 59.997 48.1277 58.4464 48.5137C58.0046 48.6237 57.596 48.7378 57.5384 48.7672C57.4808 48.7967 57.4189 48.8208 57.4009 48.8208C57.3829 48.8208 57.3681 46.8044 57.3681 44.3399V39.859H55.9788H54.5894V42.2377C54.5894 43.5461 54.5698 44.6165 54.546 44.6164C54.4489 44.6162 53.4879 44.028 53.0466 43.6988C51.8978 42.8417 51.2179 42.0405 50.5337 40.7377C50.1313 39.9715 49.4951 38.3705 49.4951 38.1243C49.4951 38.1047 51.6052 38.0887 54.1842 38.0887H58.8733V36.7057V35.3227H56.384C55.0149 35.3227 53.8947 35.3029 53.8947 35.2787C53.8947 35.197 54.3997 34.4512 54.7698 33.9864C55.7441 32.7628 57.066 31.8345 58.8892 31.0937C59.5392 30.8295 60.3715 30.5732 60.5955 30.5682L60.7258 30.5652V35.1015ZM145.918 31.4787C146.82 31.6255 147.83 31.9629 148.287 32.2704C149.157 32.8552 150.153 34.0878 150.51 35.0217C150.766 35.6936 151.008 36.6203 151.132 37.4074C151.279 38.3451 151.279 40.8932 151.132 41.7952C150.913 43.1363 150.643 43.996 150.149 44.9176C149.346 46.4171 148.392 47.1831 146.674 47.7082C144.977 48.2272 143.049 48.0021 141.436 47.0966C140.792 46.735 139.827 45.693 139.293 44.7825C138.863 44.0488 138.493 42.6494 138.353 41.2223C138.263 40.3056 138.313 38.1048 138.442 37.3143C138.78 35.2478 139.318 34.1038 140.516 32.9066C141.283 32.1407 141.944 31.8218 143.364 31.5321C144.133 31.3752 145.151 31.3539 145.918 31.4787ZM87.0285 32.0906C87.8917 32.3017 88.722 32.853 89.0536 33.4351C89.3615 33.9758 89.4496 34.3085 89.4818 35.0531C89.5188 35.9093 89.4208 36.3965 89.081 37.0452C88.7901 37.6007 88.2436 38.1701 87.7699 38.4114C87.5827 38.5067 87.189 38.6599 86.8951 38.7516L86.3607 38.9185H84.8897H83.4187V35.461V32.0035H85.0458C86.3361 32.0035 86.7464 32.0215 87.0285 32.0906ZM91.4365 59.1662C90.5547 59.2239 88.3038 59.6238 88.1767 59.7453C88.1492 59.7715 88.3778 62.0974 88.4109 62.1292C88.42 62.1377 88.6858 62.0587 89.0018 61.9535C90.5883 61.4253 92.5365 61.2923 93.6058 61.6391C94.2681 61.854 94.6494 62.325 94.6494 62.9284C94.6494 63.7279 94.1962 64.2322 93.1194 64.6308C92.9394 64.6975 92.5622 64.7256 91.5233 64.7494L90.1629 64.7806V65.8594V66.9381L91.697 66.9717C93.3295 67.0074 93.5348 67.0368 94.1103 67.3162C94.6679 67.587 94.9955 68.0226 95.1181 68.6564C95.3015 69.6044 94.7666 70.4018 93.7472 70.6999C93.5907 70.7457 93.1483 70.8094 92.7642 70.8415C91.5196 70.9455 90.1033 70.7625 88.6208 70.3063C88.1733 70.1687 87.7983 70.0644 87.7875 70.0747C87.7496 70.111 87.5233 72.2896 87.5544 72.3193C87.6136 72.3759 88.6001 72.6682 89.4972 72.8949C90.3856 73.1194 90.4068 73.1219 91.6398 73.1481C92.9276 73.1754 94.3073 73.0807 95.0901 72.9114C96.5734 72.5905 98.0426 71.7052 98.4692 70.8754C99.1532 69.5447 98.7962 67.7041 97.651 66.6574C97.1024 66.1559 96.5177 65.8712 95.8359 65.7735C95.69 65.7526 95.5787 65.7123 95.5886 65.684C95.5985 65.6556 95.8171 65.565 96.0745 65.4825C96.3736 65.3866 96.6613 65.2448 96.8716 65.0897C97.2531 64.8085 97.7407 64.3138 97.8677 64.0792C98.0375 63.7655 98.1807 63.086 98.1807 62.5942C98.1807 61.6063 97.9463 61.0211 97.3172 60.4387C96.6815 59.8503 95.6825 59.4254 94.5311 59.254C93.8333 59.1501 92.3326 59.1075 91.4365 59.1662ZM49.6522 63.6328C49.6266 68.3669 49.6303 68.3092 49.2844 69.3999C49.0989 69.9845 48.9795 70.2086 48.7331 70.4343C48.3928 70.7459 48.0595 70.847 47.2643 70.8798L46.5556 70.9091L46.519 71.6066C46.4989 71.9903 46.4675 72.4706 46.4492 72.6741L46.4159 73.044L46.6385 73.089C46.7609 73.1137 47.343 73.1339 47.932 73.1338C49.0535 73.1336 49.2717 73.1019 50.0357 72.8284C51.3089 72.3727 52.0932 71.212 52.4516 69.2536C52.6026 68.4279 52.7313 65.7462 52.7346 63.3562L52.7369 61.6551H54.792H56.8471V67.353V73.051H58.468H60.089V66.1637V59.2763H54.8823H49.6757L49.6522 63.6328ZM67.0937 66.1637V73.051H69.0497H71.0058L73.8076 68.8882C75.7461 66.0079 76.7841 64.41 77.1767 63.7019L77.744 62.6785L77.7447 67.8647L77.7455 73.051H79.3953H81.0452V66.1637V59.2763H79.0808H77.1164L74.2836 63.4945C72.4889 66.1669 71.2623 68.0527 70.9365 68.6407L70.4224 69.5688L70.4076 64.4226L70.3928 59.2763H68.7433H67.0937V66.1637ZM105.417 66.1637V73.051H107.377H109.337L112.173 68.8328C114.065 66.017 115.18 64.3027 115.524 63.6762L116.04 62.7377L116.055 67.8944L116.069 73.051H117.661H119.253V66.1637V59.2763H117.35H115.448L112.613 63.4945C110.676 66.3771 109.606 68.0235 109.237 68.6945C108.939 69.2346 108.671 69.6765 108.641 69.6765C108.61 69.6765 108.602 69.4357 108.624 69.0818C108.643 68.7547 108.676 66.4147 108.695 63.8817L108.731 59.2763H107.074H105.417V66.1637ZM126.373 66.1637V73.051H127.936H129.499V70.0637V67.0764H132.741H135.983V70.0637V73.051H137.633H139.283V66.1637V59.2763H137.633H135.983V62.0146V64.753H132.741H129.499V62.0146V59.2763H127.936H126.373V66.1637ZM146.287 66.1637V73.051H147.908H149.529L149.543 67.3669L149.558 61.6827L152.815 61.6685L156.071 61.6541V60.4652V59.2763H151.179H146.287V66.1637Z" fill="#007817"/>
</svg>
