<svg width="203" height="101" viewBox="0 0 203 101" fill="none" xmlns="http://www.w3.org/2000/svg">
<path d="M80.5719 45.9352L83.4775 43.8822H73.75V56.1804H83.4775V54.1273H76.5293V50.9873H82.4669V48.9343H76.5293V45.9352H80.5719Z" fill="#21A038"/>
<path d="M66.3316 48.6755H62.9629V45.9382H68.353L71.2586 43.8851H60.1836V56.1833H65.9736C69.2162 56.1833 71.0901 54.7742 71.0901 52.3187C71.0901 49.9637 69.4057 48.6755 66.3316 48.6755ZM65.8683 54.1302H62.9629V50.7286H65.8683C67.6372 50.7286 68.4583 51.2921 68.4583 52.4394C68.4583 53.5867 67.5738 54.1302 65.8683 54.1302Z" fill="#21A038"/>
<path d="M91.3434 43.8838H86.0586V56.182H88.8379V52.6997H91.3645C94.7334 52.6997 96.8388 51.009 96.8388 48.2918C96.8388 45.5745 94.7334 43.8838 91.3434 43.8838ZM91.2804 50.6467H88.8168V45.9368H91.2804C93.07 45.9368 94.0385 46.7822 94.0385 48.2918C94.0385 49.8014 93.07 50.6467 91.2804 50.6467Z" fill="#21A038"/>
<path d="M55.5051 53.5167C54.7684 53.8991 53.9474 54.1004 53.1052 54.1004C50.6 54.1004 48.7894 52.3898 48.7894 50.0352C48.7894 47.6805 50.6 45.9699 53.1052 45.9699C54.0104 45.9498 54.8947 46.2316 55.6316 46.7347L57.6315 45.3259L57.5052 45.2052C56.3473 44.2191 54.7894 43.7159 53.0211 43.7159C51.1053 43.7159 49.3579 44.3398 48.0948 45.4668C46.8315 46.6341 46.1158 48.2642 46.158 49.9547C46.1368 51.6653 46.8315 53.3156 48.0948 54.5229C49.4211 55.7104 51.1894 56.3745 52.9999 56.3342C55 56.3342 56.7474 55.6701 57.9263 54.4626L56.1368 53.1948L55.5051 53.5167Z" fill="#21A038"/>
<path d="M37.2564 43.8032C37.7619 44.4275 38.1833 45.1122 38.5414 45.8371L28.8093 52.704L24.7227 50.2473V47.3072L28.7882 49.7438L37.2564 43.8032Z" fill="#21A038"/>
<path d="M20.7719 50.0486C20.7719 49.9077 20.7719 49.7869 20.7929 49.646L18.3296 49.5253C18.3296 49.6863 18.3086 49.8674 18.3086 50.0285C18.3086 52.8463 19.5087 55.4024 21.4456 57.2542L23.1931 55.5836C21.6983 54.1747 20.7719 52.2223 20.7719 50.0486Z" fill="url(#paint0_linear_182_6144)"/>
<path d="M28.8615 42.1826C29.0089 42.1826 29.1352 42.1826 29.2826 42.2027L29.4089 39.8475C29.2405 39.8475 29.051 39.8274 28.8825 39.8274C25.935 39.8274 23.2612 40.9748 21.3242 42.8267L23.0717 44.4975C24.5454 43.0683 26.6087 42.1826 28.8615 42.1826Z" fill="url(#paint1_linear_182_6144)"/>
<path d="M28.9575 57.9119C28.8102 57.9119 28.6838 57.9119 28.5365 57.8918L28.4102 60.247C28.5786 60.247 28.7681 60.267 28.9365 60.267C31.884 60.267 34.5579 59.1198 36.4947 57.2678L34.7472 55.597C33.2735 57.0463 31.2314 57.9119 28.9575 57.9119Z" fill="url(#paint2_linear_182_6144)"/>
<path d="M33.5894 43.5526L35.6721 42.0843C33.8418 40.6762 31.5066 39.8113 28.9609 39.8113V42.1647C30.6861 42.1848 32.2851 42.6877 33.5894 43.5526Z" fill="url(#paint3_linear_182_6144)"/>
<path d="M39.6203 50.0479C39.6203 49.4235 39.5569 48.8193 39.4516 48.2151L37.1552 49.8465C37.1552 49.9069 37.1552 49.9875 37.1552 50.0479C37.1552 52.3641 36.1019 54.4386 34.4375 55.8685L36.1019 57.6207C38.2507 55.7678 39.6203 53.0489 39.6203 50.0479Z" fill="#21A038"/>
<path d="M28.9123 57.9062C26.4911 57.9062 24.3226 56.8998 22.8278 55.3094L20.9961 56.8998C22.9541 58.9731 25.7753 60.2613 28.9123 60.2613V57.9062Z" fill="url(#paint4_linear_182_6144)"/>
<path d="M23.484 44.2177L21.822 42.4679C19.6551 44.3384 18.3086 47.0334 18.3086 50.0302H20.7701C20.7701 47.7374 21.822 45.6457 23.484 44.2177Z" fill="url(#paint5_linear_182_6144)"/>
<path fill-rule="evenodd" clip-rule="evenodd" d="M136.151 43.8753C134.916 44.1452 133.517 44.5845 133.207 44.7998C132.907 45.0086 132.861 45.2857 132.91 46.5882L132.968 48.1295L133.808 47.3843C135.159 46.1861 136.956 45.7554 138.33 46.3005C139.134 46.6197 139.49 47.1714 139.316 47.8292C139.11 48.6096 138.51 48.8682 136.906 48.8682C135.551 48.8682 135.455 48.896 135.344 49.3178C135.278 49.5652 135.254 50.0117 135.29 50.3101L135.355 50.8527L137.281 50.9603C139.296 51.0728 139.714 51.2351 139.912 51.9815C140.516 54.2683 135.655 54.7003 133.466 52.5542C133.094 52.1902 132.738 51.8923 132.674 51.8923C132.414 51.8923 132.721 54.6426 133.016 54.9598C133.64 55.63 135.444 56.1188 137.345 56.1322C138.926 56.1435 139.27 56.0821 140.289 55.6067C142.001 54.8078 142.879 53.2713 142.518 51.7069C142.353 50.996 141.168 49.8132 140.621 49.8132C140.405 49.8132 140.229 49.7282 140.229 49.6242C140.229 49.5203 140.307 49.4352 140.401 49.4352C140.784 49.4352 141.634 48.3913 141.839 47.6691C142.264 46.1704 141.209 44.596 139.486 44.1573C138.548 43.9184 136.678 43.7602 136.151 43.8753ZM106.742 44.08C106.669 44.1492 106.609 44.7357 106.609 45.383C106.609 46.8433 106.275 50.127 105.985 51.5143C105.643 53.1524 105.331 53.5934 104.515 53.5934H103.824V54.8134V56.0333L104.503 56.1545C107.079 56.6134 108.352 54.1952 108.912 47.7814L109.048 46.222H111.21H113.373V51.1363V56.0505H114.666H115.959V50.0022V43.9539H111.417C108.919 43.9539 106.815 44.0106 106.742 44.08ZM118.744 50.0109V56.0677L120.075 56.012L121.406 55.956L124.601 51.7647L127.796 47.5736L127.849 51.812L127.903 56.0505H129.192H130.481V49.9935V43.9367L129.142 43.9925L127.802 44.0484L124.616 48.2015L121.43 52.3546L121.376 48.1543L121.323 43.9539H120.034H118.744V50.0109ZM144.805 49.9932V56.0505H146.063H147.322L150.589 51.7602L153.856 47.4701L153.91 51.7602L153.963 56.0505H155.153H156.343V50.0022V43.9539H155.091H153.838L152.567 45.6078C151.868 46.5175 150.395 48.4524 149.294 49.9077L147.291 52.5539V48.3011V44.0484L146.048 43.9921L144.805 43.936V49.9932ZM159.327 50.0022V56.0505H160.52H161.714V53.4989V50.9473H164.996H168.279V53.508V56.0684L169.522 56.0124L170.765 55.956V50.0022V44.0484L169.522 43.9921L168.279 43.936L168.279 46.3547L168.279 48.7737L164.997 48.7175L161.714 48.6616V46.3077V43.9539H160.52H159.327V50.0022ZM173.65 50.0022V56.0505H174.949H176.249L176.193 51.1361L176.137 46.2219H179.17L182.204 46.222V45.088V43.9539H177.927H173.65V50.0022Z" fill="#21A038"/>
<defs>
<linearGradient id="paint0_linear_182_6144" x1="21.1827" y1="56.9677" x2="18.8948" y2="49.9434" gradientUnits="userSpaceOnUse">
<stop offset="0.1444" stop-color="#F2E913"/>
<stop offset="0.3037" stop-color="#E7E518"/>
<stop offset="0.5823" stop-color="#CADB26"/>
<stop offset="0.891" stop-color="#A3CD39"/>
</linearGradient>
<linearGradient id="paint1_linear_182_6144" x1="22.0264" y1="42.5609" x2="28.322" y2="40.013" gradientUnits="userSpaceOnUse">
<stop offset="0.0592" stop-color="#0FA8E0"/>
<stop offset="0.5385" stop-color="#0099F9"/>
<stop offset="0.9234" stop-color="#0291EB"/>
</linearGradient>
<linearGradient id="paint2_linear_182_6144" x1="28.2655" y1="58.2641" x2="35.8364" y2="56.447" gradientUnits="userSpaceOnUse">
<stop offset="0.1226" stop-color="#A3CD39"/>
<stop offset="0.2846" stop-color="#86C339"/>
<stop offset="0.8693" stop-color="#21A038"/>
</linearGradient>
<linearGradient id="paint3_linear_182_6144" x1="28.4552" y1="41.3102" x2="34.7184" y2="43.3626" gradientUnits="userSpaceOnUse">
<stop offset="0.0566" stop-color="#0291EB"/>
<stop offset="0.79" stop-color="#0C8ACB"/>
</linearGradient>
<linearGradient id="paint4_linear_182_6144" x1="21.6224" y1="57.2729" x2="28.3282" y2="59.9339" gradientUnits="userSpaceOnUse">
<stop offset="0.1324" stop-color="#F2E913"/>
<stop offset="0.2977" stop-color="#EBE716"/>
<stop offset="0.5306" stop-color="#D9E01F"/>
<stop offset="0.8023" stop-color="#BBD62D"/>
<stop offset="0.9829" stop-color="#A3CD39"/>
</linearGradient>
<linearGradient id="paint5_linear_182_6144" x1="20.1946" y1="50.3145" x2="22.6717" y2="43.4704" gradientUnits="userSpaceOnUse">
<stop offset="0.0698" stop-color="#A3CD39"/>
<stop offset="0.2599" stop-color="#81C55F"/>
<stop offset="0.9216" stop-color="#0FA8E0"/>
</linearGradient>
</defs>
</svg>
