<svg width="203" height="101" viewBox="0 0 203 101" fill="none" xmlns="http://www.w3.org/2000/svg">
<path d="M126.908 48.9388L127.004 47.4864C127.195 47.5771 127.481 47.5771 127.767 47.5771C129.103 47.5771 129.198 45.6707 129.198 40.2233H135.495V48.9388H133.587V41.676H130.915C130.915 46.3971 130.725 49.0297 128.244 49.0297C127.767 49.1204 127.29 49.0297 126.908 48.9388ZM137.689 40.3142H139.501V43.4917C139.501 44.3996 139.406 46.0338 139.406 46.8507L143.318 40.314H145.321V49.0297H143.508V45.8522C143.508 44.9444 143.604 43.3102 143.604 42.4932L139.692 49.0297H137.689V40.3142H137.689ZM146.847 48.8479L147.038 47.3047C147.706 47.6677 148.564 47.7586 149.328 47.7586C150.186 47.7586 151.235 47.5771 151.235 46.4874C151.235 45.3072 149.9 45.2163 149.041 45.2163C148.85 45.2163 148.66 45.2163 148.373 45.2163V43.8545C148.564 43.8545 148.755 43.8545 148.85 43.8545C149.709 43.8545 151.14 43.673 151.14 42.5834C151.14 41.6755 150.186 41.494 149.423 41.494C148.755 41.494 147.801 41.6755 147.228 41.857L147.038 40.4952C147.801 40.3137 148.85 40.1322 149.709 40.1322C151.522 40.1322 152.953 40.7676 152.953 42.4018C152.953 43.3097 152.285 44.036 151.235 44.3082C152.38 44.4897 153.143 45.3978 153.143 46.3963C153.143 48.3029 151.617 49.029 149.518 49.029C148.564 49.2112 147.61 49.0297 146.847 48.8479ZM154.956 40.3142H156.769V43.4917C156.769 44.3996 156.674 46.0338 156.674 46.8507L160.585 40.314H162.589V49.0297H160.776V45.8522C160.776 44.9444 160.871 43.3102 160.871 42.4932L156.96 49.0297H154.956V40.3142ZM164.878 40.3142H166.786V43.7641H170.411V40.3142H172.319V49.0297H170.411V45.2165H166.786V49.0297H164.878V40.3142H164.878ZM174.418 40.3142H179.761V41.7669H176.231V49.0297H174.323V40.3142H174.418ZM105.634 62.1027H109.736C111.263 62.1027 112.217 61.7397 112.884 60.9225C113.17 60.5594 113.648 59.8331 113.648 58.4713C113.648 57.1095 113.171 56.2014 112.217 55.4753C111.644 55.1123 110.881 54.8399 109.641 54.8399H105.538V62.1027H105.634ZM100.197 66.4607V40.3142H118.132L116.605 44.672H105.634V50.4821H110.118C113.648 50.4821 115.556 51.2994 116.797 52.2978C117.75 53.1151 119.467 54.9305 119.467 58.4716C119.467 62.0121 117.75 63.9187 116.224 64.9174C114.507 66.0068 112.694 66.3698 109.069 66.3698H100.197V66.4607H100.197ZM84.3598 66.4607V44.672H76.4413V40.3142H98.5742L97.048 44.672H89.9885V66.4607H84.3598ZM62.2268 50.7545H65.2795C66.2338 50.7545 66.7105 50.7545 67.1875 50.6639C68.4278 50.3009 69.2863 49.2112 69.2863 47.7588C69.2863 46.034 68.4278 45.2168 67.1875 44.8538C66.7105 44.6722 66.2335 44.5813 65.184 44.5813H62.322V50.7548H62.2268V50.7545ZM62.3223 55.2941V62.1936H66.1383C67.2833 62.1936 68.3328 62.103 69.0958 61.4673C69.8588 60.8316 70.145 59.924 70.145 58.8346C70.145 58.0176 69.859 57.2007 69.4773 56.565C68.714 55.6569 67.6648 55.3847 65.9476 55.3847H62.3223V55.2941ZM71.0993 52.5705C72.1485 53.0242 73.1028 53.6599 73.675 54.0229C75.2971 55.2941 75.9648 56.928 75.9648 59.107C75.9648 62.6475 73.9613 65.2805 70.7175 66.0974C69.7635 66.3698 68.714 66.4607 66.7105 66.4607H56.7891V40.3142H65.5661C67.3785 40.3142 68.6188 40.4051 69.6683 40.6773C72.8163 41.4945 74.9153 43.5823 74.9153 46.8507C74.9153 48.5755 74.2475 50.1191 73.1983 51.1178C72.8163 51.5715 72.1485 52.1163 71.0993 52.5705Z" fill="#263975"/>
<path d="M51.0216 38.3185H27.7403L29.4579 34.3234H52.7391L51.0216 38.3185ZM50.163 40.3163H26.8817L25.1642 44.3114H48.4457L50.163 40.3163ZM47.6821 46.2183H24.4008L22.6836 50.2134H45.9649L47.6821 46.2183Z" fill="#009FDF"/>
</svg>
