<svg width="217" height="217" viewBox="0 0 217 217" fill="none" xmlns="http://www.w3.org/2000/svg">
<g opacity="0.14">
<path d="M198.917 81.3751V135.625C198.917 158.229 194.397 174.052 184.27 184.269L126.584 126.583L196.476 56.6914C198.104 63.8343 198.917 71.9718 198.917 81.3751Z" stroke="#515151" stroke-width="12" stroke-linecap="round" stroke-linejoin="round"/>
<path d="M196.476 56.6914L56.6918 196.476C29.4764 190.237 18.084 171.43 18.084 135.625V81.3752C18.084 36.1668 36.1673 18.0835 81.3756 18.0835H135.626C171.431 18.0835 190.237 29.476 196.476 56.6914Z" stroke="#515151" stroke-width="12" stroke-linecap="round" stroke-linejoin="round"/>
<path d="M184.266 184.269C174.048 194.396 158.226 198.917 135.621 198.917H81.3713C71.968 198.917 63.8304 198.103 56.6875 196.476L126.58 126.583L184.266 184.269Z" stroke="#515151" stroke-width="12" stroke-linecap="round" stroke-linejoin="round"/>
<path d="M56.413 72.1542C62.5613 45.6621 102.345 45.6621 108.493 72.1542C112.019 87.7059 102.254 100.907 93.6646 109.044C87.4258 115.012 77.5706 115.012 71.2414 109.044C62.6519 100.907 52.7963 87.7059 56.413 72.1542Z" stroke="#515151" stroke-width="12"/>
<path d="M82.2251 78.6644H82.3063" stroke="#515151" stroke-width="12" stroke-linecap="round" stroke-linejoin="round"/>
</g>
</svg>
