<svg width="397" height="286" viewBox="0 0 397 286" fill="none" xmlns="http://www.w3.org/2000/svg">
<g opacity="0.15">
<path d="M112.06 45.4501C112.359 44.5287 113.663 44.5287 113.962 45.4501L128.43 89.987C128.564 90.3991 128.948 90.678 129.381 90.678H176.196C177.164 90.678 177.567 91.9175 176.783 92.487L138.91 120.013C138.559 120.268 138.413 120.719 138.546 121.131L153.011 165.664C153.31 166.586 152.255 167.352 151.472 166.782L113.599 139.261C113.249 139.006 112.774 139.006 112.423 139.261L74.5505 166.782C73.7669 167.352 72.7124 166.586 73.0116 165.664L87.4759 121.131C87.6097 120.719 87.4631 120.268 87.1127 120.013L49.2389 92.487C48.4554 91.9175 48.8582 90.678 49.8268 90.678H96.6409C97.0742 90.678 97.4581 90.3991 97.592 89.987L112.06 45.4501Z" stroke="#515151" stroke-width="12"/>
<path d="M230.056 44.9848C228.632 45.8301 227.503 47.1001 226.829 48.6132C225.585 47.5198 224.028 46.8378 222.381 46.665C223.037 45.1436 223.205 43.4515 222.86 41.8309C224.508 41.9837 226.167 41.6205 227.6 40.7933C227.965 42.4096 228.824 43.8768 230.056 44.9848Z" stroke="#515151" stroke-width="12"/>
<path d="M269.585 86.4081C271.056 87.1701 272.731 87.4574 274.371 87.229C274.101 88.8648 274.346 90.5487 275.072 92.0395C273.435 92.2873 271.911 93.0393 270.718 94.1878C269.976 92.7061 268.788 91.4883 267.325 90.709C268.505 89.5452 269.296 88.0397 269.585 86.4081Z" stroke="#515151" stroke-width="12"/>
<path d="M267.573 156.85C269.145 156.277 270.501 155.222 271.443 153.839C272.475 155.157 273.897 156.12 275.503 156.589C274.568 157.978 274.091 159.63 274.142 161.304C272.533 160.844 270.816 160.901 269.241 161.466C269.182 159.792 268.598 158.175 267.573 156.85Z" stroke="#515151" stroke-width="12"/>
<path d="M233.977 182.057L233.101 198.242L248.216 204.081L232.559 208.245L231.679 224.43L222.879 210.818L207.223 214.986L217.44 202.41L208.645 188.798L223.76 194.633L233.977 182.057Z" fill="#515151"/>
</g>
</svg>
