<svg width="138" height="138" viewBox="0 0 138 138" fill="none" xmlns="http://www.w3.org/2000/svg">
<g opacity="0.15">
<path d="M45.9968 126.5H91.9968C115.112 126.5 119.252 117.242 120.459 105.972L124.772 59.972C126.324 45.942 122.299 34.4995 97.7468 34.4995H40.2468C15.6943 34.4995 11.6693 45.942 13.2218 59.972L17.5343 105.972C18.7418 117.242 22.8818 126.5 45.9968 126.5Z" stroke="#515151" stroke-width="12" stroke-miterlimit="10" stroke-linecap="round" stroke-linejoin="round"/>
<path d="M45.9961 34.499V29.899C45.9961 19.7215 45.9961 11.499 64.3961 11.499H73.5961C91.9961 11.499 91.9961 19.7215 91.9961 29.899V34.499" stroke="#515151" stroke-width="12" stroke-miterlimit="10" stroke-linecap="round" stroke-linejoin="round"/>
<path d="M80.5 74.749V80.499C80.5 80.5565 80.5 80.5565 80.5 80.614C80.5 86.8815 80.4425 91.999 69 91.999C57.615 91.999 57.5 86.939 57.5 80.6715V74.749C57.5 68.999 57.5 68.999 63.25 68.999H74.75C80.5 68.999 80.5 68.999 80.5 74.749Z" stroke="#515151" stroke-width="12" stroke-miterlimit="10" stroke-linecap="round" stroke-linejoin="round"/>
<path d="M124.486 63.2495C111.203 72.9095 96.023 78.6595 80.498 80.6145" stroke="#515151" stroke-width="12" stroke-miterlimit="10" stroke-linecap="round" stroke-linejoin="round"/>
<path d="M15.0684 64.8022C28.0059 73.6572 42.6109 79.0047 57.5034 80.6722" stroke="#515151" stroke-width="12" stroke-miterlimit="10" stroke-linecap="round" stroke-linejoin="round"/>
</g>
</svg>
