<svg width="14" height="14" viewBox="0 0 14 14" fill="none" xmlns="http://www.w3.org/2000/svg">
<path d="M5.83333 12.8332H8.16667C11.0833 12.8332 12.25 11.6665 12.25 8.74984V5.24984C12.25 2.33317 11.0833 1.1665 8.16667 1.1665H5.83333C2.91667 1.1665 1.75 2.33317 1.75 5.24984V8.74984C1.75 11.6665 2.91667 12.8332 5.83333 12.8332Z" stroke="white" stroke-width="1.2" stroke-linecap="round" stroke-linejoin="round"/>
<path d="M9.625 4.42188V5.00521C9.625 5.48354 9.23417 5.88021 8.75 5.88021H5.25C4.77167 5.88021 4.375 5.48938 4.375 5.00521V4.42188C4.375 3.94354 4.76583 3.54688 5.25 3.54688H8.75C9.23417 3.54688 9.625 3.93771 9.625 4.42188Z" stroke="white" stroke-width="1.2" stroke-linecap="round" stroke-linejoin="round"/>
<path d="M4.74607 8.16667H4.75281" stroke="white" stroke-width="1.2" stroke-linecap="round" stroke-linejoin="round"/>
<path d="M6.99705 8.16667H7.00379" stroke="white" stroke-width="1.2" stroke-linecap="round" stroke-linejoin="round"/>
<path d="M9.24851 8.16667H9.25525" stroke="white" stroke-width="1.2" stroke-linecap="round" stroke-linejoin="round"/>
<path d="M4.74607 10.2082H4.75281" stroke="white" stroke-width="1.2" stroke-linecap="round" stroke-linejoin="round"/>
<path d="M6.99705 10.2082H7.00379" stroke="white" stroke-width="1.2" stroke-linecap="round" stroke-linejoin="round"/>
<path d="M9.24851 10.2082H9.25525" stroke="white" stroke-width="1.2" stroke-linecap="round" stroke-linejoin="round"/>
</svg>
