<svg width="20" height="21" viewBox="0 0 20 21" fill="none" xmlns="http://www.w3.org/2000/svg">
<g clip-path="url(#clip0_36_9939)">
<rect y="0.5" width="20" height="20" rx="5" fill="#F6880B"/>
<path d="M17.8571 20.5C19.0179 20.5 20 19.5625 20 18.3571V2.64286C20 1.48214 19.0179 0.5 17.8571 0.5H2.14286C0.9375 0.5 0 1.48214 0 2.64286V18.3571C0 19.5625 0.9375 20.5 2.14286 20.5H17.8571ZM8.70536 16.125C8.4375 16.4375 7.94643 16.4375 7.67857 16.125L3.03571 11.4821C2.76786 11.2143 2.76786 10.7679 3.03571 10.5L4.0625 9.47321C4.33036 9.20536 4.77679 9.20536 5.04464 9.47321L8.21429 12.5982L14.9107 5.90179C15.1786 5.63393 15.625 5.63393 15.8929 5.90179L16.9196 6.92857C17.1875 7.19643 17.1875 7.64286 16.9196 7.91071L8.70536 16.125Z" fill="white"/>
</g>
<rect x="0.75" y="1.25" width="18.5" height="18.5" rx="4.25" stroke="#F1F3F4" stroke-width="1.5"/>
<defs>
<clipPath id="clip0_36_9939">
<rect y="0.5" width="20" height="20" rx="5" fill="white"/>
</clipPath>
</defs>
</svg>
