<svg width="16" height="16" viewBox="0 0 16 16" fill="none" xmlns="http://www.w3.org/2000/svg">
<path d="M3.33398 6.66658H4.66732C6.00065 6.66658 6.66732 5.99992 6.66732 4.66659V3.33325C6.66732 1.99992 6.00065 1.33325 4.66732 1.33325H3.33398C2.00065 1.33325 1.33398 1.99992 1.33398 3.33325V4.66659C1.33398 5.99992 2.00065 6.66658 3.33398 6.66658Z" stroke="#999999" stroke-opacity="0.6" stroke-miterlimit="10" stroke-linecap="round" stroke-linejoin="round"/>
<path d="M11.334 6.66658H12.6673C14.0007 6.66658 14.6673 5.99992 14.6673 4.66659V3.33325C14.6673 1.99992 14.0007 1.33325 12.6673 1.33325H11.334C10.0007 1.33325 9.33398 1.99992 9.33398 3.33325V4.66659C9.33398 5.99992 10.0007 6.66658 11.334 6.66658Z" stroke="#999999" stroke-opacity="0.6" stroke-miterlimit="10" stroke-linecap="round" stroke-linejoin="round"/>
<path d="M11.334 14.6666H12.6673C14.0007 14.6666 14.6673 13.9999 14.6673 12.6666V11.3333C14.6673 9.99992 14.0007 9.33325 12.6673 9.33325H11.334C10.0007 9.33325 9.33398 9.99992 9.33398 11.3333V12.6666C9.33398 13.9999 10.0007 14.6666 11.334 14.6666Z" stroke="#999999" stroke-opacity="0.6" stroke-miterlimit="10" stroke-linecap="round" stroke-linejoin="round"/>
<path d="M3.33398 14.6666H4.66732C6.00065 14.6666 6.66732 13.9999 6.66732 12.6666V11.3333C6.66732 9.99992 6.00065 9.33325 4.66732 9.33325H3.33398C2.00065 9.33325 1.33398 9.99992 1.33398 11.3333V12.6666C1.33398 13.9999 2.00065 14.6666 3.33398 14.6666Z" stroke="#999999" stroke-opacity="0.6" stroke-miterlimit="10" stroke-linecap="round" stroke-linejoin="round"/>
</svg>
