<svg width="144" height="54" viewBox="0 0 144 54" fill="none" xmlns="http://www.w3.org/2000/svg">
<g clip-path="url(#clip0_0_897)">
<path d="M33.1576 43.6702C33.1306 43.6792 33.1006 43.6912 33.0736 43.7002C25.7023 46.2044 17.6944 42.259 15.1903 34.8847C12.6861 27.5134 16.6315 19.5056 24.0058 17.0014C25.3239 16.5541 26.6631 16.3169 27.9872 16.2628L35.4065 13.7316L35.8029 13.0801C34.9712 12.7318 34.1124 12.4405 33.2357 12.2123C32.6142 13.3233 31.6954 14.3322 30.8186 14.158C29.9959 13.9959 29.3984 12.8279 29.1102 11.6208C27.2696 11.5638 25.393 11.78 23.5374 12.2964C23.5524 13.5695 23.2642 14.9026 22.4175 15.1909C21.6248 15.4611 20.5258 14.7495 19.6701 13.8487C17.9827 14.7525 16.4754 15.8965 15.1783 17.2176C15.8298 18.3136 16.2442 19.6137 15.6557 20.2832C15.1032 20.9138 13.7941 20.8477 12.6051 20.4934C11.6172 22.0908 10.8756 23.8323 10.4042 25.6578C11.5151 26.2824 12.524 27.1981 12.3499 28.0749C12.1877 28.8976 11.0167 29.4951 9.80968 29.7834C9.75264 31.6239 9.96882 33.5005 10.4853 35.3561C11.7583 35.3381 13.0915 35.6293 13.3767 36.4761C13.647 37.2687 12.9354 38.3707 12.0376 39.2234C12.9414 40.9109 14.0853 42.4181 15.4065 43.7152C16.5024 43.0637 17.8025 42.6493 18.4721 43.2378C19.1026 43.7903 19.0366 45.0994 18.6853 46.2884C20.2826 47.2763 22.0271 48.0179 23.8497 48.4893C24.4712 47.3784 25.39 46.3695 26.2667 46.5437C27.0894 46.7058 27.687 47.8738 27.9752 49.0808C29.8158 49.1379 31.6924 48.9217 33.548 48.4053C33.5329 47.1322 33.8212 45.799 34.6679 45.5108C35.4606 45.2406 36.5595 45.9522 37.4153 46.8529C38.6733 46.1774 39.8293 45.3727 40.8742 44.4569L33.1576 43.6702Z" fill="white"/>
<path d="M28.9351 23.7033H32.1328L29.1093 37.2689H25.9115L27.1516 31.6661H24.3412L23.1011 37.2689H19.9004L22.6147 25.1145L22.2454 23.7003H26.1217L24.9807 28.8587H27.7911L28.9351 23.7033Z" fill="white"/>
<path d="M31.7085 34.7496L33.5881 26.3184C33.8073 25.3756 34.1796 24.6881 34.702 24.2527C35.2245 23.8203 35.9601 23.6041 36.9029 23.6041H40.7792C41.5929 23.6041 42.1814 23.8323 42.5417 24.2917C42.902 24.7511 42.9951 25.3937 42.812 26.2194L40.9324 34.6506C40.7132 35.5934 40.3409 36.281 39.8184 36.7133C39.296 37.1457 38.5603 37.3619 37.6175 37.3619H33.7442C32.9305 37.3619 32.342 37.1337 31.9817 36.6743C31.6184 36.2209 31.5253 35.5784 31.7085 34.7496ZM35.0593 34.0711C34.9813 34.3953 35.1044 34.5545 35.4287 34.5545H37.2692C37.6055 34.5545 37.8067 34.3923 37.8697 34.0711L39.4581 26.9009C39.5362 26.5767 39.4131 26.4175 39.0888 26.4175H37.2482C36.9119 26.4175 36.7108 26.5797 36.6477 26.9009L35.0593 34.0711Z" fill="white"/>
<path d="M54.5236 23.7031H57.9165L54.8929 37.2717H51.6922L53.5147 29.1318L49.2691 34.7135L47.5066 29.1318L45.6841 37.2717H42.4863L45.2006 25.1173L44.8313 23.7031H48.7076L50.317 29.0927L54.5236 23.7031Z" fill="white"/>
<path d="M66.9223 26.5136H62.7938L62.2713 28.9367H66.7301L64.7905 31.7471H61.6498L61.0493 34.4614H66.4749L64.5352 37.2718H57.209L59.9233 25.1175L59.554 23.7032H68.8589L66.9223 26.5136Z" fill="white"/>
<path d="M84.6035 26.5135L85.2431 23.7031H94.4489L93.8094 26.5135H90.8038L88.4198 37.2717H85.222L87.6061 26.5135H84.6035Z" fill="white"/>
<path d="M102.878 23.7033C103.692 23.7033 104.28 23.9315 104.64 24.3909C105.001 24.8503 105.094 25.4928 104.911 26.3186L104.019 30.351C103.71 31.6961 103.061 32.5339 102.082 32.8701L102.857 37.2689H99.3679L98.8064 33.0623H97.4102L96.4614 37.2689H93.2637L95.978 25.1145L95.6087 23.7003H102.878V23.7033ZM98.0317 30.2549H100.359C100.683 30.2549 100.875 30.0928 100.941 29.7715L101.563 27.0001C101.641 26.6759 101.512 26.5167 101.175 26.5167H98.8484L98.0317 30.2549Z" fill="white"/>
<path d="M113.755 23.7032H116.952L113.929 37.2718H107.338C106.524 37.2718 105.936 37.0436 105.573 36.5842C105.212 36.1249 105.119 35.4823 105.302 34.6566L107.434 25.1205L107.065 23.7063H110.941L108.653 33.978C108.575 34.3023 108.704 34.4614 109.041 34.4614H111.368L113.755 23.7032Z" fill="white"/>
<path d="M118.563 37.3678C117.75 37.3678 117.161 37.1396 116.798 36.6802C116.435 36.2208 116.344 35.5783 116.528 34.7526L118.407 26.3214C118.626 25.3786 118.999 24.691 119.521 24.2556C120.044 23.8232 120.779 23.6071 121.722 23.6071H125.598C126.412 23.6071 127.001 23.8353 127.364 24.2946C127.724 24.754 127.817 25.3966 127.634 26.2223L127.073 28.7414H123.875L124.283 26.9009C124.361 26.5766 124.238 26.4175 123.914 26.4175H122.073C121.737 26.4175 121.536 26.5796 121.473 26.9009L119.884 34.071C119.806 34.3953 119.93 34.5544 120.254 34.5544H122.094C122.431 34.5544 122.632 34.3923 122.695 34.071L123.16 31.9572H126.358L125.758 34.6505C125.538 35.5933 125.166 36.2809 124.644 36.7132C124.121 37.1456 123.385 37.3618 122.443 37.3618H118.563V37.3678Z" fill="white"/>
<path d="M140.305 23.7032L135.907 30.7593L137.477 37.2718H133.892L132.787 31.7471H131.643L130.403 37.2718H127.205L129.919 25.1175L129.55 23.7032H133.426L132.264 28.9367H133.504L136.624 23.7032H140.305Z" fill="white"/>
<path d="M19.1797 40.0281L54.9342 42.3851L59.408 40.0281H19.1797Z" fill="#F6880B"/>
<path d="M81.0465 24.0817L81.8092 24.0427L80.9685 7.16524L80.7463 7.18025L81.4309 4.32481L73.3329 1.17212L73.1438 3.54715L62.2295 6.82595L62.0763 6.31851L48.5168 10.393L48.6969 10.9965L43.9138 10.2789L43.2563 12.1765L40.1786 12.6059C40.1786 12.6059 39.2058 14.2153 37.7375 16.6353L23.4844 21.5025H36.9299L40.8782 14.7437L70.8648 9.3421L42.2684 16.9056L40.2417 21.5025H44.2651L44.6885 20.1423L72.3481 13.5487L72.192 32.4108L66.2079 41.6887L64.4183 41.3104L62.3015 42.8747L60.5991 42.5144L59.1488 43.4812L72.7144 46.3547C78.11 47.4987 82.5508 42.0791 80.3679 37.0137L79.8275 35.7346L81.3828 31.3569L81.0465 24.0817ZM58.6504 10.0297L62.815 8.77761L62.5297 7.83181L73.0507 4.67011L72.7835 8.057L58.6504 10.0297ZM77.9269 41.8899C77.5545 42.6375 76.9841 43.2771 76.2905 43.7275C75.9452 43.9557 75.5668 44.1238 75.1735 44.2469C74.7802 44.367 74.3748 44.4331 73.9695 44.4451L73.6662 44.4391L73.366 44.412L73.0597 44.364C72.9606 44.346 72.8765 44.322 72.7835 44.301C72.4021 44.2049 72.0629 44.0968 71.7025 43.9887C70.9909 43.7785 70.2823 43.5503 69.5767 43.3071C70.3214 43.3672 71.06 43.4482 71.7986 43.5443L72.8916 43.6884C72.9816 43.6974 73.0807 43.7124 73.1648 43.7154L73.411 43.7215L73.6662 43.7124L73.9184 43.6854C74.2517 43.6434 74.579 43.5593 74.8853 43.4332C75.1915 43.3071 75.4768 43.136 75.741 42.9408C76.2664 42.5445 76.6838 42.022 76.951 41.4305C77.2183 40.842 77.3324 40.1934 77.2723 39.5569C77.2423 39.2386 77.1732 38.9234 77.0651 38.6201C77.0111 38.476 76.939 38.3018 76.87 38.1277L76.6598 37.6142C76.3805 36.9267 76.1103 36.2391 75.8431 35.5455C75.708 35.2002 75.5819 34.8519 75.4527 34.5036C75.4017 34.3655 75.3507 34.2304 75.2996 34.0922C74.9964 34.4826 74.6901 34.8729 74.3718 35.2542C74.1406 35.5395 73.9064 35.8247 73.6662 36.107C73.429 36.3892 73.1888 36.6684 72.9396 36.9447C73.1077 36.6144 73.2789 36.2871 73.456 35.9628C73.6302 35.6386 73.8103 35.3173 73.9935 34.996C74.3508 34.3505 74.7351 33.7259 75.1044 33.0894L75.4497 32.5009L75.78 33.1554C75.9452 33.4857 76.1013 33.822 76.2634 34.1553C76.4256 34.4886 76.5847 34.8219 76.7378 35.1611C77.0501 35.8337 77.3564 36.5093 77.6536 37.1849L77.8788 37.6923C77.9539 37.8605 78.0259 38.0256 78.104 38.2298C78.2481 38.6201 78.3472 39.0315 78.3863 39.4518C78.4643 40.2835 78.2992 41.1423 77.9269 41.8899ZM78.8486 33.4197L77.5395 30.327L79.7014 30.9966L78.8486 33.4197ZM80.2328 29.4893L75.738 28.0991L78.8036 15.2872L79.245 24.1718L79.9926 24.1357L80.2358 29.4743L80.2328 29.4893Z" fill="#F6880B"/>
</g>
<defs>
<clipPath id="clip0_0_897">
<rect width="144" height="54" fill="white"/>
</clipPath>
</defs>
</svg>
