<svg width="92" height="34" viewBox="0 0 92 34" fill="none" xmlns="http://www.w3.org/2000/svg">
<g clip-path="url(#clip0_26_2850)">
<path d="M17.8145 29.4406C17.7963 29.4466 17.7761 29.4547 17.7579 29.4608C12.7885 31.149 7.38991 28.4892 5.70173 23.5178C4.01355 18.5483 6.67335 13.1498 11.6448 11.4616C12.5334 11.16 13.4362 11.0001 14.3289 10.9637L19.3307 9.25726L19.5979 8.81801C19.0372 8.5832 18.4582 8.38686 17.8672 8.23302C17.4482 8.98197 16.8288 9.6621 16.2377 9.5447C15.6831 9.43539 15.2802 8.64798 15.0859 7.83425C13.8451 7.79579 12.58 7.94153 11.329 8.28969C11.3391 9.14796 11.1448 10.0467 10.574 10.241C10.0396 10.4232 9.29873 9.94347 8.72184 9.33621C7.58424 9.94549 6.56809 10.7167 5.69363 11.6074C6.13288 12.3462 6.41222 13.2227 6.01548 13.6741C5.64303 14.0992 4.76048 14.0546 3.95889 13.8158C3.29293 14.8926 2.79295 16.0667 2.47515 17.2974C3.22411 17.7184 3.90424 18.3358 3.78684 18.9269C3.67753 19.4815 2.88809 19.8843 2.07436 20.0786C2.0359 21.3195 2.18164 22.5846 2.52981 23.8356C3.38807 23.8234 4.28681 24.0198 4.47911 24.5906C4.66129 25.125 4.18155 25.8679 3.57632 26.4427C4.1856 27.5803 4.95682 28.5965 5.84747 29.4709C6.5863 29.0317 7.46278 28.7523 7.91418 29.1491C8.33926 29.5215 8.29473 30.4041 8.0579 31.2057C9.13477 31.8716 10.3108 32.3716 11.5395 32.6894C11.9585 31.9405 12.5779 31.2603 13.169 31.3777C13.7236 31.487 14.1265 32.2744 14.3208 33.0882C15.5616 33.1266 16.8267 32.9809 18.0777 32.6327C18.0676 31.7745 18.2619 30.8757 18.8327 30.6814C19.3671 30.4992 20.108 30.979 20.6849 31.5862C21.533 31.1308 22.3123 30.5883 23.0167 29.9709L17.8145 29.4406Z" fill="#2C3034"/>
<path d="M14.9658 15.9797H17.1216L15.0832 25.125H12.9274L13.7634 21.3479H11.8688L11.0328 25.125H8.875L10.7049 16.9311L10.4559 15.9777H13.0691L12.2999 19.4552H14.1946L14.9658 15.9797Z" fill="#2C3034"/>
<path d="M16.8369 23.4268L18.1041 17.7428C18.2519 17.1072 18.5029 16.6437 18.8551 16.3502C19.2073 16.0587 19.7032 15.913 20.3388 15.913H22.9521C23.5006 15.913 23.8974 16.0668 24.1403 16.3765C24.3832 16.6862 24.4459 17.1194 24.3224 17.676L23.0553 23.36C22.9075 23.9956 22.6565 24.4591 22.3043 24.7506C21.9521 25.0421 21.4562 25.1879 20.8206 25.1879H18.2093C17.6608 25.1879 17.264 25.034 17.0211 24.7243C16.7762 24.4187 16.7135 23.9855 16.8369 23.4268ZM19.0959 22.9693C19.0433 23.1879 19.1263 23.2952 19.3449 23.2952H20.5858C20.8125 23.2952 20.9481 23.1859 20.9906 22.9693L22.0614 18.1355C22.114 17.9169 22.031 17.8096 21.8124 17.8096H20.5716C20.3449 17.8096 20.2093 17.9189 20.1668 18.1355L19.0959 22.9693Z" fill="#2C3034"/>
<path d="M32.2166 15.9797H34.5039L32.4656 25.1271H30.3078L31.5365 19.6395L28.6742 23.4025L27.486 19.6395L26.2573 25.1271H24.1016L25.9314 16.9331L25.6825 15.9797H28.2957L29.3807 19.6132L32.2166 15.9797Z" fill="#2C3034"/>
<path d="M40.5776 17.8744H37.7943L37.4421 19.5079H40.448L39.1404 21.4026H37.0231L36.6183 23.2324H40.276L38.9683 25.1271H34.0293L35.8592 16.9331L35.6102 15.9797H41.8832L40.5776 17.8744Z" fill="#2C3034"/>
<path d="M52.4941 17.8744L52.9253 15.9797H59.1315L58.7003 17.8744H56.6741L55.0669 25.1271H52.9111L54.5183 17.8744H52.4941Z" fill="#2C3034"/>
<path d="M64.8155 15.9798C65.364 15.9798 65.7608 16.1336 66.0037 16.4433C66.2466 16.7531 66.3093 17.1862 66.1859 17.7429L65.5847 20.4614C65.3762 21.3682 64.9389 21.933 64.2791 22.1597L64.8013 25.1251H62.4492L62.0707 22.2892H61.1294L60.4898 25.1251H58.334L60.1639 16.9312L59.9149 15.9778H64.8155V15.9798ZM61.5484 20.3966H63.1172C63.3358 20.3966 63.4653 20.2873 63.5099 20.0707L63.9289 18.2024C63.9815 17.9838 63.8945 17.8765 63.6678 17.8765H62.099L61.5484 20.3966Z" fill="#2C3034"/>
<path d="M72.1465 15.9797H74.3022L72.2639 25.1271H67.8208C67.2722 25.1271 66.8755 24.9733 66.6305 24.6636C66.3876 24.3539 66.3249 23.9207 66.4483 23.364L67.8855 16.9352L67.6365 15.9818H70.2498L68.7074 22.9066C68.6547 23.1252 68.7418 23.2324 68.9685 23.2324H70.5372L72.1465 15.9797Z" fill="#2C3034"/>
<path d="M75.3876 25.1918C74.8391 25.1918 74.4423 25.038 74.1974 24.7283C73.9525 24.4186 73.8917 23.9854 74.0152 23.4288L75.2824 17.7448C75.4301 17.1092 75.6811 16.6457 76.0333 16.3521C76.3855 16.0607 76.8815 15.9149 77.5171 15.9149H80.1303C80.6789 15.9149 81.0756 16.0688 81.3205 16.3785C81.5634 16.6882 81.6262 17.1213 81.5027 17.678L81.1242 19.3763H78.9684L79.2437 18.1355C79.2963 17.9169 79.2134 17.8096 78.9947 17.8096H77.7539C77.5272 17.8096 77.3916 17.9189 77.3491 18.1355L76.2783 22.9693C76.2256 23.1879 76.3086 23.2952 76.5272 23.2952H77.7681C77.9948 23.2952 78.1304 23.1858 78.1729 22.9693L78.4867 21.5442H80.6424L80.2376 23.3599C80.0898 23.9955 79.8388 24.4591 79.4866 24.7506C79.1344 25.042 78.6385 25.1878 78.0029 25.1878H75.3876V25.1918Z" fill="#2C3034"/>
<path d="M90.0464 15.9797L87.081 20.7366L88.1396 25.1271H85.7227L84.9778 21.4026H84.2066L83.3706 25.1271H81.2148L83.0447 16.9331L82.7957 15.9797H85.409L84.6256 19.5079H85.4616L87.5648 15.9797H90.0464Z" fill="#2C3034"/>
<path d="M8.38867 26.9852L32.4929 28.5742L35.5089 26.9852H8.38867Z" fill="#F6880B"/>
<path d="M50.097 16.2348L50.6111 16.2085L50.0443 4.83047L49.8945 4.84059L50.3561 2.91557L44.8968 0.790161L44.7693 2.3913L37.4113 4.60173L37.3081 4.25964L28.1668 7.00648L28.2882 7.41335L25.0637 6.92956L24.6204 8.20886L22.5456 8.49832C22.5456 8.49832 21.8897 9.58329 20.8999 11.2148L11.291 14.496H20.3554L23.0172 9.93955L43.2329 6.29801L23.9544 11.397L22.5881 14.496H25.3005L25.5859 13.5791L44.2329 9.13392L44.1276 21.8499L40.0934 28.1047L38.8869 27.8497L37.4599 28.9043L36.3122 28.6614L35.3345 29.3132L44.4798 31.2503C48.1173 32.0216 51.1111 28.3679 49.6395 24.953L49.2751 24.0907L50.3237 21.1395L50.097 16.2348ZM34.9985 6.76155L37.806 5.91746L37.6137 5.27984L44.7065 3.14835L44.5264 5.43165L34.9985 6.76155ZM47.9938 28.2403C47.7428 28.7444 47.3582 29.1755 46.8906 29.4792C46.6578 29.633 46.4028 29.7464 46.1376 29.8293C45.8725 29.9103 45.5992 29.9548 45.3259 29.9629L45.1215 29.9589L44.9191 29.9407L44.7126 29.9083C44.6458 29.8961 44.5891 29.8799 44.5264 29.8658C44.2693 29.801 44.0406 29.7281 43.7976 29.6553C43.3179 29.5136 42.8402 29.3597 42.3645 29.1958C42.8665 29.2363 43.3645 29.2909 43.8624 29.3557L44.5992 29.4528C44.66 29.4589 44.7268 29.469 44.7834 29.4711L44.9494 29.4751L45.1215 29.469L45.2915 29.4508C45.5162 29.4225 45.7368 29.3658 45.9433 29.2808C46.1498 29.1958 46.3421 29.0804 46.5202 28.9488C46.8744 28.6816 47.1558 28.3294 47.336 27.9306C47.5161 27.5339 47.593 27.0967 47.5525 26.6675C47.5323 26.453 47.4857 26.2404 47.4129 26.036C47.3764 25.9388 47.3279 25.8214 47.2813 25.704L47.1396 25.3579C46.9514 24.8943 46.7692 24.4308 46.589 23.9632C46.4979 23.7304 46.4129 23.4956 46.3259 23.2608C46.2915 23.1677 46.2571 23.0766 46.2226 22.9835C46.0182 23.2466 45.8117 23.5098 45.5972 23.7669C45.4413 23.9592 45.2834 24.1515 45.1215 24.3417C44.9616 24.532 44.7996 24.7203 44.6316 24.9065C44.745 24.6838 44.8604 24.4632 44.9798 24.2446C45.0972 24.026 45.2186 23.8094 45.3421 23.5928C45.583 23.1576 45.8421 22.7365 46.0911 22.3074L46.3239 21.9107L46.5465 22.3519C46.6578 22.5746 46.7631 22.8013 46.8724 23.026C46.9817 23.2507 47.089 23.4754 47.1922 23.7041C47.4027 24.1575 47.6092 24.613 47.8096 25.0684L47.9614 25.4105C48.012 25.5239 48.0606 25.6352 48.1132 25.7728C48.2104 26.036 48.2772 26.3133 48.3035 26.5967C48.3561 27.1574 48.2448 27.7363 47.9938 28.2403ZM48.6152 22.5301L47.7327 20.4451L49.1901 20.8965L48.6152 22.5301ZM49.5484 19.8804L46.5182 18.9432L48.5849 10.3059L48.8824 16.2955L49.3865 16.2712L49.5504 19.8703L49.5484 19.8804Z" fill="#F6880B"/>
</g>
<defs>
<clipPath id="clip0_26_2850">
<rect width="91.089" height="34.4114" fill="white" transform="translate(0.712891 -0.422363)"/>
</clipPath>
</defs>
</svg>
