<svg width="92" height="35" viewBox="0 0 92 35" fill="none" xmlns="http://www.w3.org/2000/svg">
<path d="M17.8136 29.834C17.7954 29.8401 17.7751 29.8482 17.7569 29.8542C12.7875 31.5424 7.38894 28.8826 5.70075 23.9112C4.01257 18.9418 6.67237 13.5432 11.6438 11.855C12.5324 11.5534 13.4352 11.3935 14.3279 11.3571L19.3297 9.65069L19.5969 9.21144C19.0362 8.97664 18.4573 8.78029 17.8662 8.62645C17.4472 9.3754 16.8278 10.0555 16.2367 9.93813C15.6821 9.82882 15.2793 9.04141 15.0849 8.22768C13.8441 8.18922 12.579 8.33496 11.328 8.68313C11.3382 9.54139 11.1438 10.4401 10.573 10.6345C10.0386 10.8166 9.29776 10.3369 8.72086 9.72964C7.58326 10.3389 6.56711 11.1101 5.69266 12.0008C6.13191 12.7396 6.41125 13.6161 6.0145 14.0675C5.64205 14.4926 4.7595 14.448 3.95792 14.2092C3.29195 15.2861 2.79198 16.4601 2.47418 17.6908C3.22313 18.1119 3.90326 18.7292 3.78586 19.3203C3.67655 19.8749 2.88711 20.2777 2.07338 20.4721C2.03492 21.7129 2.18067 22.978 2.52883 24.229C3.38709 24.2168 4.28584 24.4132 4.47814 24.984C4.66031 25.5184 4.18058 26.2613 3.57534 26.8362C4.18463 27.9738 4.95585 28.9899 5.84649 29.8644C6.58533 29.4251 7.46181 29.1458 7.9132 29.5425C8.33829 29.915 8.29375 30.7975 8.05692 31.5991C9.1338 32.2651 10.3099 32.765 11.5385 33.0828C11.9576 32.3339 12.577 31.6538 13.168 31.7712C13.7227 31.8805 14.1255 32.6679 14.3198 33.4816C15.5606 33.5201 16.8258 33.3743 18.0767 33.0262C18.0666 32.1679 18.2609 31.2692 18.8317 31.0748C19.3661 30.8927 20.107 31.3724 20.6839 31.9797C21.532 31.5242 22.3113 30.9817 23.0158 30.3643L17.8136 29.834Z" fill="#2C3034"/>
<path d="M14.9678 16.3726H17.1235L15.0852 25.518H12.9294L13.7654 21.7408H11.8707L11.0348 25.518H8.87695L10.7068 17.324L10.4579 16.3706H13.0711L12.3019 19.8482H14.1966L14.9678 16.3726Z" fill="#2C3034"/>
<path d="M16.836 23.82L18.1031 18.136C18.2509 17.5004 18.5019 17.0369 18.8541 16.7434C19.2063 16.4519 19.7022 16.3062 20.3378 16.3062H22.9511C23.4996 16.3062 23.8964 16.46 24.1393 16.7697C24.3822 17.0794 24.4449 17.5126 24.3215 18.0692L23.0543 23.7532C22.9065 24.3888 22.6555 24.8523 22.3033 25.1438C21.9511 25.4353 21.4552 25.581 20.8196 25.581H18.2084C17.6598 25.581 17.2631 25.4272 17.0202 25.1175C16.7752 24.8118 16.7125 24.3787 16.836 23.82ZM19.095 23.3625C19.0423 23.5811 19.1253 23.6884 19.3439 23.6884H20.5848C20.8115 23.6884 20.9471 23.5791 20.9896 23.3625L22.0604 18.5287C22.1131 18.3101 22.0301 18.2028 21.8114 18.2028H20.5706C20.3439 18.2028 20.2083 18.3121 20.1658 18.5287L19.095 23.3625Z" fill="#2C3034"/>
<path d="M32.2166 16.373H34.5039L32.4656 25.5204H30.3078L31.5365 20.0328L28.6742 23.7958L27.486 20.0328L26.2573 25.5204H24.1016L25.9314 17.3264L25.6825 16.373H28.2957L29.3807 20.0065L32.2166 16.373Z" fill="#2C3034"/>
<path d="M40.5776 18.2672H37.7943L37.4421 19.9007H40.448L39.1404 21.7954H37.0231L36.6183 23.6253H40.276L38.9683 25.5199H34.0293L35.8592 17.326L35.6102 16.3726H41.8832L40.5776 18.2672Z" fill="#2C3034"/>
<path d="M52.4961 18.2677L52.9272 16.373H59.1334L58.7023 18.2677H56.6761L55.0689 25.5204H52.9131L54.5203 18.2677H52.4961Z" fill="#2C3034"/>
<path d="M64.8165 16.3731C65.365 16.3731 65.7618 16.527 66.0047 16.8367C66.2476 17.1464 66.3103 17.5795 66.1868 18.1362L65.5856 20.8547C65.3772 21.7615 64.9399 22.3263 64.28 22.553L64.8023 25.5185H62.4502L62.0716 22.6826H61.1304L60.4907 25.5185H58.335L60.1648 17.3245L59.9159 16.3711H64.8165V16.3731ZM61.5494 20.7899H63.1181C63.3368 20.7899 63.4663 20.6806 63.5108 20.464L63.9299 18.5957C63.9825 18.3771 63.8954 18.2698 63.6687 18.2698H62.1L61.5494 20.7899Z" fill="#2C3034"/>
<path d="M72.1484 16.373H74.3042L72.2658 25.5204H67.8227C67.2741 25.5204 66.8774 25.3666 66.6325 25.0569C66.3896 24.7472 66.3268 24.314 66.4503 23.7573L67.8875 17.3285L67.6385 16.3751H70.2517L68.7093 23.2999C68.6567 23.5185 68.7437 23.6258 68.9704 23.6258H70.5392L72.1484 16.373Z" fill="#2C3034"/>
<path d="M75.3886 25.585C74.84 25.585 74.4433 25.4312 74.1984 25.1215C73.9534 24.8118 73.8927 24.3786 74.0162 23.8219L75.2833 18.138C75.4311 17.5024 75.6821 17.0388 76.0343 16.7453C76.3865 16.4538 76.8825 16.3081 77.518 16.3081H80.1313C80.6798 16.3081 81.0766 16.4619 81.3215 16.7716C81.5644 17.0814 81.6272 17.5145 81.5037 18.0712L81.1252 19.7695H78.9694L79.2447 18.5287C79.2973 18.31 79.2143 18.2028 78.9957 18.2028H77.7549C77.5282 18.2028 77.3925 18.3121 77.35 18.5287L76.2792 23.3624C76.2266 23.5811 76.3096 23.6883 76.5282 23.6883H77.769C77.9958 23.6883 78.1314 23.579 78.1739 23.3624L78.4876 21.9374H80.6434L80.2386 23.7531C80.0908 24.3887 79.8398 24.8523 79.4876 25.1437C79.1354 25.4352 78.6395 25.581 78.0039 25.581H75.3886V25.585Z" fill="#2C3034"/>
<path d="M90.0464 16.373L87.081 21.1299L88.1396 25.5204H85.7227L84.9778 21.7959H84.2066L83.3706 25.5204H81.2148L83.0447 17.3264L82.7957 16.373H85.409L84.6256 19.9012H85.4616L87.5648 16.373H90.0464Z" fill="#2C3034"/>
<path d="M8.38867 27.3784L32.4929 28.9674L35.5089 27.3784H8.38867Z" fill="#F6880B"/>
<path d="M50.0979 16.6278L50.6121 16.6014L50.0453 5.22341L49.8955 5.23353L50.357 3.30852L44.8978 1.18311L44.7702 2.78425L37.4123 4.99468L37.309 4.65259L28.1678 7.39943L28.2892 7.80629L25.0647 7.32251L24.6214 8.6018L22.5465 8.89126C22.5465 8.89126 21.8907 9.97623 20.9009 11.6077L11.292 14.889H20.3564L23.0182 10.3325L43.2339 6.69096L23.9554 11.7899L22.5891 14.889H25.3015L25.5869 13.972L44.2338 9.52686L44.1286 22.2429L40.0943 28.4977L38.8879 28.2426L37.4609 29.2972L36.3131 29.0543L35.3354 29.7061L44.4808 31.6433C48.1183 32.4145 51.1121 28.7608 49.6405 25.346L49.2761 24.4837L50.3246 21.5324L50.0979 16.6278ZM34.9994 7.1545L37.807 6.31041L37.6147 5.67278L44.7075 3.5413L44.5273 5.8246L34.9994 7.1545ZM47.9948 28.6333C47.7438 29.1373 47.3592 29.5685 46.8916 29.8721C46.6588 30.0259 46.4038 30.1393 46.1386 30.2223C45.8734 30.3033 45.6002 30.3478 45.3269 30.3559L45.1225 30.3518L44.92 30.3336L44.7136 30.3012C44.6468 30.2891 44.5901 30.2729 44.5273 30.2587C44.2703 30.1939 44.0415 30.1211 43.7986 30.0482C43.3189 29.9065 42.8412 29.7527 42.3655 29.5887C42.8675 29.6292 43.3654 29.6839 43.8634 29.7486L44.6002 29.8458C44.6609 29.8519 44.7277 29.862 44.7844 29.864L44.9504 29.8681L45.1225 29.862L45.2925 29.8438C45.5172 29.8154 45.7378 29.7587 45.9443 29.6737C46.1507 29.5887 46.343 29.4733 46.5212 29.3418C46.8754 29.0746 47.1568 28.7224 47.3369 28.3236C47.5171 27.9268 47.594 27.4896 47.5535 27.0605C47.5333 26.8459 47.4867 26.6334 47.4138 26.4289C47.3774 26.3318 47.3288 26.2144 47.2823 26.097L47.1406 25.7508C46.9523 25.2873 46.7702 24.8237 46.59 24.3562C46.4989 24.1234 46.4139 23.8886 46.3269 23.6538C46.2924 23.5606 46.258 23.4696 46.2236 23.3764C46.0192 23.6396 45.8127 23.9027 45.5981 24.1598C45.4423 24.3521 45.2844 24.5444 45.1225 24.7347C44.9625 24.925 44.8006 25.1132 44.6326 25.2994C44.746 25.0768 44.8613 24.8561 44.9808 24.6375C45.0982 24.4189 45.2196 24.2023 45.3431 23.9857C45.584 23.5505 45.8431 23.1295 46.092 22.7004L46.3248 22.3036L46.5475 22.7449C46.6588 22.9676 46.7641 23.1943 46.8734 23.4189C46.9827 23.6436 47.09 23.8683 47.1932 24.0971C47.4037 24.5505 47.6102 25.0059 47.8106 25.4614L47.9624 25.8035C48.013 25.9168 48.0616 26.0281 48.1142 26.1658C48.2114 26.4289 48.2782 26.7063 48.3045 26.9896C48.3571 27.5503 48.2458 28.1293 47.9948 28.6333ZM48.6162 22.923L47.7337 20.8381L49.1911 21.2895L48.6162 22.923ZM49.5494 20.2733L46.5191 19.3361L48.5859 10.6989L48.8834 16.6885L49.3874 16.6642L49.5514 20.2632L49.5494 20.2733Z" fill="#F6880B"/>
</svg>
