<svg width="69" height="18" viewBox="0 0 69 18" fill="none" xmlns="http://www.w3.org/2000/svg">
<path d="M26.336 13.929C26.336 14.0262 26.2572 14.105 26.16 14.105H23.3928C23.2956 14.105 23.2168 14.0262 23.2168 13.929V5.22439C23.2168 5.13938 23.2776 5.06651 23.3612 5.05125L25.6631 4.6311C25.7644 4.61261 25.8599 4.68464 25.8699 4.78711L25.9211 5.31107C25.9355 5.45774 26.1153 5.52515 26.23 5.4326C26.5943 5.13865 27.016 4.90229 27.4952 4.72353C28.1134 4.48407 28.8019 4.36433 29.5607 4.36433C30.3194 4.36433 30.9657 4.47702 31.4996 4.7024C32.0336 4.92778 32.4621 5.24473 32.7853 5.65323C33.1225 6.04765 33.3684 6.51954 33.5229 7.0689C33.6775 7.61827 33.7548 8.2099 33.7548 8.84378V13.929C33.7548 14.0262 33.676 14.105 33.5788 14.105H30.8115C30.7143 14.105 30.6355 14.0262 30.6355 13.929V8.84378C30.6355 8.18172 30.4529 7.6887 30.0876 7.36472C29.7363 7.04073 29.2656 6.87874 28.6755 6.87874C27.9167 6.87874 27.3336 7.11821 26.9262 7.59714C26.5327 8.06199 26.336 8.63249 26.336 9.30863V13.929Z" fill="black" fill-opacity="0.5"/>
<path d="M43.2566 5.45798C43.2566 5.37605 43.3131 5.30496 43.3929 5.2865L46.1602 4.64662C46.2705 4.62111 46.3758 4.70488 46.3758 4.8181V13.929C46.3758 14.0262 46.297 14.105 46.1998 14.105H43.8833C43.7913 14.105 43.7148 14.0342 43.7078 13.9425L43.6647 13.3809C43.6533 13.2322 43.4712 13.162 43.3558 13.2565C42.9559 13.5843 42.5013 13.839 41.992 14.0205C41.3598 14.2318 40.6924 14.3374 39.9898 14.3374C38.5988 14.3374 37.5591 13.9501 36.8706 13.1753C36.1821 12.3865 35.8379 11.2807 35.8379 9.858V4.81844C35.8379 4.70511 35.9434 4.62132 36.0538 4.64702L38.7999 5.28635C38.8796 5.3049 38.936 5.37593 38.936 5.45776V9.858C38.936 10.4919 39.1187 10.9779 39.484 11.3159C39.8493 11.654 40.327 11.823 40.9172 11.823C41.1841 11.823 41.4511 11.7808 41.718 11.6963C41.9991 11.6117 42.252 11.4709 42.4768 11.2737C42.7016 11.0765 42.8842 10.8229 43.0248 10.513C43.1793 10.2031 43.2566 9.82982 43.2566 9.39315V5.45798Z" fill="black" fill-opacity="0.5"/>
<path d="M52.7419 2.22994C52.8584 2.17745 52.9902 2.26264 52.9902 2.3904V4.42075C52.9902 4.51796 53.069 4.59676 53.1662 4.59676H55.1219C55.2354 4.59676 55.3192 4.70249 55.2933 4.81293L54.7764 7.01759C54.7578 7.09716 54.6868 7.15342 54.6051 7.15342H53.1662C53.069 7.15342 52.9902 7.23222 52.9902 7.32942V10.4919C52.9902 10.9426 53.0746 11.2596 53.2432 11.4427C53.4258 11.6258 53.6647 11.7174 53.9597 11.7174C54.1002 11.7174 54.2548 11.6963 54.4234 11.654C54.5318 11.6289 54.6328 11.6038 54.7263 11.5788C54.825 11.5523 54.9272 11.612 54.9496 11.7116L55.4258 13.8326C55.446 13.9227 55.3929 14.0134 55.3041 14.0386C54.1884 14.3554 53.3913 14.3797 52.8006 14.3797C52.2807 14.3797 51.8311 14.3022 51.4517 14.1473C51.0864 13.9923 50.7843 13.7881 50.5454 13.5345C50.3206 13.281 50.152 12.9852 50.0396 12.6471C49.9413 12.2949 49.8921 11.9287 49.8921 11.5484V7.32942C49.8921 7.23222 49.8133 7.15342 49.7161 7.15342H48.5085C48.4113 7.15342 48.3325 7.07462 48.3325 6.97742V4.77276C48.3325 4.67555 48.4113 4.59676 48.5085 4.59676H49.7539C49.835 4.59676 49.9056 4.54132 49.9249 4.46252L50.1689 3.46369C50.1817 3.41104 50.2181 3.36726 50.2675 3.34499L52.7419 2.22994Z" fill="black" fill-opacity="0.5"/>
<path d="M57.1969 11.3786C57.1668 11.2424 57.2998 11.1266 57.4313 11.1735C58.0258 11.3853 58.5636 11.5455 59.0448 11.654C59.6209 11.7808 60.2391 11.8442 60.8995 11.8442C61.1103 11.8442 61.3281 11.8301 61.5529 11.8019C61.7917 11.7737 62.0025 11.7315 62.1852 11.6751C62.3819 11.6047 62.5364 11.5202 62.6488 11.4216C62.7753 11.323 62.8385 11.1962 62.8385 11.0412C62.8385 10.8159 62.6839 10.6609 62.3748 10.5764C62.0798 10.4778 61.7074 10.4074 61.2578 10.3651C60.8082 10.3088 60.3234 10.2524 59.8036 10.1961C59.2837 10.1256 58.799 9.99886 58.3493 9.81574C57.8997 9.63261 57.5203 9.37202 57.2112 9.03395C56.9162 8.68179 56.7686 8.19581 56.7686 7.57601C56.7686 6.98439 56.9021 6.48432 57.1691 6.07582C57.4501 5.66732 57.8224 5.33629 58.2861 5.08273C58.7498 4.82918 59.2837 4.64606 59.8879 4.53337C60.4921 4.42068 61.1243 4.36433 61.7847 4.36433C62.5153 4.36433 63.1968 4.42068 63.8291 4.53337C64.4304 4.62715 64.4562 4.68036 65.0738 4.85501C65.1353 4.87238 65.1833 4.92138 65.1985 4.98341L65.7678 7.31452C65.8024 7.45615 65.6593 7.57687 65.5239 7.5226C64.9695 7.30029 64.4397 7.14202 63.9345 7.04777C63.3443 6.921 62.698 6.85761 61.9955 6.85761C61.8128 6.85761 61.6091 6.8717 61.3843 6.89987C61.1735 6.91395 60.9768 6.94917 60.7941 7.00552C60.6115 7.06186 60.4569 7.14638 60.3305 7.25907C60.204 7.35767 60.1408 7.49149 60.1408 7.66053C60.1408 7.88591 60.2883 8.04086 60.5834 8.12538C60.8925 8.2099 61.2719 8.28033 61.7215 8.33667C62.1711 8.37893 62.6629 8.43528 63.1968 8.50571C63.7307 8.57614 64.2225 8.70292 64.6721 8.88604C65.1217 9.05508 65.4941 9.31567 65.7891 9.66783C66.0983 10.02 66.2528 10.506 66.2528 11.1258C66.2528 11.7315 66.1123 12.2386 65.8313 12.6471C65.5503 13.0556 65.1709 13.3866 64.6932 13.6402C64.2155 13.8937 63.6675 14.0698 63.0493 14.1684C62.4451 14.2811 61.8128 14.3374 61.1524 14.3374C60.7731 14.3374 60.4148 14.3234 60.0776 14.2952C59.7544 14.267 59.4312 14.2248 59.1081 14.1684C58.799 14.1261 58.4826 14.0629 58.1595 13.9925C57.9699 13.9429 57.8923 13.9071 57.8409 13.881C57.7817 13.8509 57.7325 13.7978 57.7181 13.733L57.1969 11.3786Z" fill="black" fill-opacity="0.5"/>
<path d="M9.72695 17.9485C14.1597 17.7872 17.7221 14.5325 17.8786 10.4829C17.8776 10.4414 17.8681 10.4007 17.8506 10.3631C17.8331 10.3256 17.808 10.2921 17.777 10.2647C17.746 10.2373 17.7096 10.2167 17.6702 10.2041C17.6308 10.1914 17.5892 10.1871 17.5481 10.1914C13.1132 10.3504 9.55291 13.6096 9.39648 17.6548C9.39751 17.6964 9.40705 17.7372 9.42451 17.7749C9.44196 17.8125 9.46698 17.8461 9.49797 17.8737C9.52898 17.9012 9.56531 17.922 9.6047 17.9349C9.6441 17.9478 9.68572 17.9524 9.72695 17.9485Z" fill="#ED6F53"/>
<path d="M0 10.4708C0.134392 13.9462 2.75833 16.8279 6.29218 17.7001C6.33354 17.7132 6.37711 17.718 6.42033 17.7139C6.46354 17.7099 6.5055 17.6973 6.54373 17.6766C6.58196 17.656 6.61566 17.6279 6.64284 17.594C6.67002 17.5601 6.69014 17.5211 6.70196 17.4792C7.16904 14.527 9.12543 12.012 11.8463 10.59C12.0534 10.4817 11.9675 10.2102 11.7229 10.2102H0.321659C0.244793 10.2033 0.168268 10.2266 0.108248 10.2752C0.0482275 10.3239 0.00941211 10.394 0 10.4708Z" fill="#4578FF"/>
<path d="M9.73356 0.253315C14.1641 0.414507 17.7265 3.67145 17.8852 7.7189C17.883 7.76036 17.8725 7.80093 17.8541 7.83815C17.8358 7.87536 17.81 7.90842 17.7784 7.9353C17.7469 7.96218 17.7102 7.98231 17.6706 7.99447C17.6309 8.00661 17.5893 8.01052 17.5481 8.00596C13.1132 7.84476 9.55511 4.58781 9.39648 0.540369C9.39863 0.498912 9.40921 0.458332 9.42757 0.421121C9.44593 0.383908 9.47168 0.350848 9.50325 0.323969C9.53481 0.297089 9.57152 0.276957 9.61113 0.264807C9.65073 0.252658 9.6924 0.248747 9.73356 0.253315Z" fill="#ED6F53"/>
<path d="M0 7.73129C0.138798 4.26458 2.76274 1.37418 6.29659 0.510811C6.33882 0.497778 6.38325 0.493482 6.4272 0.498188C6.47113 0.502894 6.51366 0.516502 6.55219 0.538185C6.59072 0.559869 6.62446 0.589176 6.65134 0.624326C6.67822 0.659477 6.69769 0.699737 6.70857 0.742663C7.17344 3.69489 9.13204 6.20991 11.8507 7.62973C12.071 7.74013 11.9719 8.00952 11.7273 8.00952H0.326066C0.286345 8.01314 0.246303 8.00878 0.208285 7.9967C0.170268 7.9846 0.135042 7.96503 0.104673 7.93911C0.0743031 7.9132 0.0494012 7.88147 0.0314272 7.84579C0.0134531 7.8101 0.00276851 7.77117 0 7.73129Z" fill="#4578FF"/>
</svg>
