<svg width="25" height="24" viewBox="0 0 25 24" fill="none" xmlns="http://www.w3.org/2000/svg">
<path d="M11.4058 16.0111C9.87481 15.8511 8.49381 15.4711 7.31181 14.5401C7.16481 14.4241 7.01281 14.3121 6.87981 14.1831C6.36181 13.6831 6.30981 13.1091 6.71981 12.5191C7.06981 12.0131 7.65781 11.8781 8.26881 12.1691C8.38681 12.2241 8.49881 12.2951 8.60781 12.3701C10.8108 13.8941 13.8378 13.9361 16.0488 12.4391C16.2688 12.2691 16.5028 12.1311 16.7738 12.0611C17.3018 11.9251 17.7938 12.1201 18.0768 12.5851C18.4008 13.1151 18.3968 13.6351 17.9978 14.0461C17.3868 14.6791 16.6508 15.1361 15.8338 15.4551C15.0608 15.7571 14.2138 15.9091 13.3768 16.0091C13.5028 16.1481 13.5628 16.2161 13.6418 16.2961C14.7788 17.4461 15.9218 18.5931 17.0558 19.7471C17.4418 20.1411 17.5228 20.6281 17.3098 21.0861C17.0768 21.5861 16.5568 21.9151 16.0458 21.8801C15.7228 21.8571 15.4708 21.6951 15.2458 21.4681C14.3878 20.5981 13.5138 19.7441 12.6728 18.8581C12.4278 18.6001 12.3098 18.6491 12.0938 18.8731C11.2308 19.7681 10.3538 20.6491 9.46981 21.5261C9.07381 21.9191 8.60181 21.9901 8.14181 21.7661C7.65381 21.5261 7.34181 21.0251 7.36681 20.5201C7.38281 20.1781 7.54981 19.9181 7.78281 19.6841C8.90881 18.5521 10.0308 17.4171 11.1538 16.2841C11.2278 16.2081 11.2978 16.1281 11.4058 16.0111Z" fill="white"/>
<path d="M12.3379 12.069C9.60593 12.059 7.36593 9.77902 7.38093 7.02302C7.39693 4.23702 9.63893 1.99302 12.3979 2.00002C15.1619 2.00702 17.3809 4.28502 17.3679 7.10002C17.3529 9.85002 15.0979 12.078 12.3379 12.069ZM14.8209 7.02902C14.8228 6.70697 14.761 6.38774 14.639 6.08967C14.5171 5.7916 14.3374 5.52056 14.1104 5.29214C13.8834 5.06373 13.6135 4.88243 13.3162 4.75867C13.0188 4.63492 12.7 4.57114 12.3779 4.57102C12.0529 4.5707 11.731 4.63516 11.4311 4.76064C11.1312 4.88611 10.8593 5.07008 10.6313 5.3018C10.4033 5.53352 10.2238 5.80834 10.1032 6.11022C9.98259 6.4121 9.92335 6.73499 9.92893 7.06002C9.92932 7.38219 9.99343 7.7011 10.1176 7.9984C10.2417 8.29569 10.4234 8.5655 10.6522 8.79229C10.8811 9.01907 11.1525 9.19836 11.4509 9.31982C11.7493 9.44128 12.0688 9.50252 12.3909 9.50002C12.7131 9.49885 13.0318 9.43388 13.3287 9.30884C13.6257 9.1838 13.8948 9.00119 14.1208 8.77153C14.3467 8.54187 14.5249 8.26973 14.6451 7.97082C14.7653 7.67191 14.825 7.35215 14.8209 7.03002V7.02902Z" fill="white"/>
</svg>
