<svg width="28" height="28" viewBox="0 0 28 28" fill="none" xmlns="http://www.w3.org/2000/svg">
<g clip-path="url(#clip0_0_1132)">
<g filter="url(#filter0_d_0_1132)">
<path fill-rule="evenodd" clip-rule="evenodd" d="M9.70218 0H18.2978C26.1426 0 28 1.85744 28 9.70217V18.2978C28 26.1426 26.1426 28 18.2978 28H9.70218C1.85744 28 0 26.1426 0 18.2978V9.70217C0 1.85744 1.85744 0 9.70218 0Z" fill="#4680C2"/>
<path fill-rule="evenodd" clip-rule="evenodd" d="M22.8848 8.93731C23.0231 8.50261 22.8848 8.18645 22.2722 8.18645H20.2369C19.7232 8.18645 19.4861 8.46306 19.3478 8.75951C19.3478 8.75951 18.3004 11.2888 16.8382 12.9288C16.3639 13.4031 16.1466 13.5612 15.8898 13.5612C15.7514 13.5612 15.5736 13.4031 15.5736 12.9684V8.91754C15.5736 8.4038 15.4155 8.16667 14.9807 8.16667H11.7796C11.4635 8.16667 11.2659 8.4038 11.2659 8.64092C11.2659 9.13495 11.997 9.25348 12.076 10.6367V13.6402C12.076 14.2923 11.9575 14.4108 11.7006 14.4108C11.009 14.4108 9.32941 11.8618 8.32164 8.95709C8.12401 8.38402 7.92643 8.16667 7.41269 8.16667H5.35761C4.76482 8.16667 4.66602 8.44335 4.66602 8.73974C4.66602 9.27326 5.35761 11.9606 7.88689 15.5174C9.56653 17.9479 11.9575 19.252 14.1113 19.252C15.4155 19.252 15.5736 18.9557 15.5736 18.4617V16.624C15.5736 16.0312 15.6921 15.9324 16.1071 15.9324C16.4035 15.9324 16.937 16.0904 18.1424 17.2563C19.5256 18.6395 19.7627 19.2718 20.5333 19.2718H22.5686C23.1614 19.2718 23.4381 18.9754 23.28 18.4024C23.1021 17.8294 22.4303 16.9994 21.5609 16.0114C21.0866 15.4582 20.3752 14.8456 20.1579 14.5492C19.8615 14.154 19.9405 13.9959 20.1579 13.6402C20.1382 13.6402 22.6279 10.1229 22.8848 8.93731Z" fill="white"/>
</g>
</g>
<defs>
<filter id="filter0_d_0_1132" x="-15" y="-16" width="88" height="88" filterUnits="userSpaceOnUse" color-interpolation-filters="sRGB">
<feFlood flood-opacity="0" result="BackgroundImageFix"/>
<feColorMatrix in="SourceAlpha" type="matrix" values="0 0 0 0 0 0 0 0 0 0 0 0 0 0 0 0 0 0 127 0" result="hardAlpha"/>
<feOffset dx="15" dy="14"/>
<feGaussianBlur stdDeviation="15"/>
<feColorMatrix type="matrix" values="0 0 0 0 0.104167 0 0 0 0 0.104167 0 0 0 0 0.104167 0 0 0 0.05 0"/>
<feBlend mode="normal" in2="BackgroundImageFix" result="effect1_dropShadow_0_1132"/>
<feBlend mode="normal" in="SourceGraphic" in2="effect1_dropShadow_0_1132" result="shape"/>
</filter>
<clipPath id="clip0_0_1132">
<rect width="28" height="28" rx="14" fill="white"/>
</clipPath>
</defs>
</svg>
