<svg width="25" height="24" viewBox="0 0 25 24" fill="none" xmlns="http://www.w3.org/2000/svg">
<path fill-rule="evenodd" clip-rule="evenodd" d="M3.83164 3.4C2.43164 4.81333 2.43164 7.07333 2.43164 11.6V12.4C2.43164 16.92 2.43164 19.18 3.83164 20.6C5.24497 22 7.50497 22 12.0316 22H12.8316C17.3516 22 19.6116 22 21.0316 20.6C22.4316 19.1867 22.4316 16.9267 22.4316 12.4V11.6C22.4316 7.08 22.4316 4.82 21.0316 3.4C19.6183 2 17.3583 2 12.8316 2H12.0316C7.51164 2 5.25164 2 3.83164 3.4ZM5.80497 8.08667C5.91164 13.2867 8.51164 16.4067 13.0716 16.4067H13.3383V13.4333C15.0116 13.6 16.2783 14.8267 16.7849 16.4067H19.1516C18.9089 15.5089 18.4785 14.6727 17.889 13.9533C17.2995 13.234 16.5642 12.6478 15.7316 12.2333C16.4777 11.779 17.1221 11.1756 17.6245 10.461C18.1269 9.7464 18.4766 8.93585 18.6516 8.08H16.5049C16.0383 9.73334 14.6516 11.2333 13.3383 11.3733V8.08667H11.1849V13.8467C9.85164 13.5133 8.17164 11.9 8.0983 8.08667H5.80497Z" fill="white"/>
</svg>
