<svg width="28" height="20" viewBox="0 0 28 20" fill="none" xmlns="http://www.w3.org/2000/svg">
<path d="M27.4241 3.1867C27.1071 1.96872 26.1729 1.00961 24.9867 0.684101C22.8369 0.0925293 14.2159 0.0925293 14.2159 0.0925293C14.2159 0.0925293 5.59496 0.0925293 3.44508 0.684101C2.25884 1.00961 1.32464 1.96872 1.00761 3.1867C0.431641 5.39414 0.431641 10 0.431641 10C0.431641 10 0.431641 14.6057 1.00761 16.8133C1.32464 18.0313 2.25884 18.9904 3.44508 19.3161C5.59496 19.9075 14.2159 19.9075 14.2159 19.9075C14.2159 19.9075 22.8369 19.9075 24.9867 19.3161C26.1729 18.9904 27.1071 18.0313 27.4241 16.8133C28.0003 14.6057 28.0003 10 28.0003 10C28.0003 10 28.0003 5.39414 27.4241 3.1867Z" fill="white"/>
<path d="M11.8477 14.2707V5.65552L18.7398 9.96328L11.8477 14.2707Z" fill="#2C3034"/>
</svg>
