<svg width="88" height="38" viewBox="0 0 88 38" fill="none" xmlns="http://www.w3.org/2000/svg">
<g filter="url(#filter0_d_0_1162)">
<path d="M15 19C15 11.268 21.268 5 29 5C36.732 5 43 11.268 43 19C43 26.732 36.732 33 29 33C21.268 33 15 26.732 15 19Z" fill="#FF0000"/>
<path d="M36.1545 15.5427C35.9827 14.883 35.4767 14.3634 34.8341 14.1871C33.6697 13.8667 28.9999 13.8667 28.9999 13.8667C28.9999 13.8667 24.3301 13.8667 23.1655 14.1871C22.523 14.3634 22.0169 14.883 21.8452 15.5427C21.5332 16.7384 21.5332 19.2333 21.5332 19.2333C21.5332 19.2333 21.5332 21.7281 21.8452 22.924C22.0169 23.5837 22.523 24.1032 23.1655 24.2796C24.3301 24.6 28.9999 24.6 28.9999 24.6C28.9999 24.6 33.6697 24.6 34.8341 24.2796C35.4767 24.1032 35.9827 23.5837 36.1545 22.924C36.4665 21.7281 36.4665 19.2333 36.4665 19.2333C36.4665 19.2333 36.4665 16.7384 36.1545 15.5427Z" fill="white"/>
<path d="M27.5996 21.8V17.1333L31.3329 19.4668L27.5996 21.8Z" fill="#FF0000"/>
</g>
<defs>
<filter id="filter0_d_0_1162" x="0" y="-11" width="88" height="88" filterUnits="userSpaceOnUse" color-interpolation-filters="sRGB">
<feFlood flood-opacity="0" result="BackgroundImageFix"/>
<feColorMatrix in="SourceAlpha" type="matrix" values="0 0 0 0 0 0 0 0 0 0 0 0 0 0 0 0 0 0 127 0" result="hardAlpha"/>
<feOffset dx="15" dy="14"/>
<feGaussianBlur stdDeviation="15"/>
<feColorMatrix type="matrix" values="0 0 0 0 0.104167 0 0 0 0 0.104167 0 0 0 0 0.104167 0 0 0 0.05 0"/>
<feBlend mode="normal" in2="BackgroundImageFix" result="effect1_dropShadow_0_1162"/>
<feBlend mode="normal" in="SourceGraphic" in2="effect1_dropShadow_0_1162" result="shape"/>
</filter>
</defs>
</svg>
