<svg width="104" height="39" viewBox="0 0 104 39" fill="none" xmlns="http://www.w3.org/2000/svg">
<path d="M19.381 33.8453C19.3604 33.8522 19.3374 33.8613 19.3168 33.8682C13.6847 35.7815 7.56631 32.7671 5.65302 27.1327C3.73972 21.5006 6.75419 15.3822 12.3885 13.4689C13.3957 13.1271 14.4188 12.9459 15.4305 12.9046L21.0993 10.9706L21.4021 10.4728C20.7667 10.2067 20.1105 9.98417 19.4407 9.80982C18.9658 10.6586 18.2638 11.4295 17.5939 11.2964C16.9653 11.1725 16.5088 10.2801 16.2885 9.35788C14.8823 9.31429 13.4484 9.47946 12.0307 9.87405C12.0421 10.8468 11.8219 11.8653 11.175 12.0856C10.5693 12.2921 9.72967 11.7483 9.07584 11.0601C7.78655 11.7506 6.6349 12.6247 5.64384 13.6341C6.14167 14.4715 6.45825 15.4648 6.00861 15.9764C5.58649 16.4582 4.58625 16.4077 3.67778 16.137C2.92302 17.3575 2.35637 18.6881 1.99619 20.0829C2.84502 20.5601 3.61584 21.2598 3.48278 21.9296C3.3589 22.5582 2.46419 23.0148 1.54196 23.235C1.49837 24.6413 1.66355 26.0751 2.05814 27.4929C3.03084 27.4791 4.04943 27.7016 4.26737 28.3486C4.47384 28.9542 3.93014 29.7962 3.24419 30.4477C3.93472 31.737 4.80878 32.8886 5.81819 33.8797C6.65555 33.3819 7.6489 33.0653 8.16049 33.5149C8.64225 33.9371 8.59178 34.9373 8.32337 35.8458C9.54384 36.6005 10.8767 37.1672 12.2693 37.5273C12.7441 36.6785 13.4461 35.9077 14.116 36.0408C14.7446 36.1646 15.2011 37.0571 15.4214 37.9793C16.8277 38.0229 18.2615 37.8577 19.6793 37.4631C19.6678 36.4904 19.888 35.4718 20.535 35.2516C21.1406 35.0451 21.9803 35.5888 22.6341 36.2771C23.5953 35.7609 24.4786 35.1461 25.2769 34.4463L19.381 33.8453Z" fill="white"/>
<path d="M16.155 18.5887H18.5982L16.288 28.9535H13.8448L14.7922 24.6727H12.645L11.6975 28.9535H9.25195L11.3258 19.667L11.0437 18.5864H14.0054L13.1336 22.5277H15.2809L16.155 18.5887Z" fill="white"/>
<path d="M18.2729 27.0289L19.709 20.5871C19.8765 19.8667 20.1609 19.3414 20.5601 19.0087C20.9593 18.6784 21.5214 18.5132 22.2417 18.5132H25.2034C25.8251 18.5132 26.2748 18.6875 26.5501 19.0385C26.8254 19.3895 26.8965 19.8805 26.7565 20.5114L25.3204 26.9532C25.1529 27.6736 24.8685 28.1989 24.4693 28.5293C24.0701 28.8597 23.5081 29.0248 22.7877 29.0248H19.8283C19.2066 29.0248 18.7569 28.8505 18.4816 28.4995C18.2041 28.1531 18.1329 27.6621 18.2729 27.0289ZM20.8331 26.5105C20.7735 26.7582 20.8675 26.8798 21.1153 26.8798H22.5216C22.7785 26.8798 22.9322 26.7559 22.9804 26.5105L24.194 21.0321C24.2536 20.7844 24.1596 20.6628 23.9118 20.6628H22.5055C22.2486 20.6628 22.0949 20.7867 22.0467 21.0321L20.8331 26.5105Z" fill="white"/>
<path d="M35.7049 18.5889H38.2973L35.9871 28.956H33.5416L34.9341 22.7366L31.6902 27.0014L30.3436 22.7366L28.951 28.956H26.5078L28.5817 19.6694L28.2995 18.5889H31.2612L32.4909 22.7068L35.7049 18.5889Z" fill="white"/>
<path d="M45.1793 20.7362H42.0249L41.6257 22.5875H45.0325L43.5505 24.7348H41.1508L40.692 26.8087H44.8375L43.3555 28.956H37.7578L39.8317 19.6694L39.5495 18.5889H46.659L45.1793 20.7362Z" fill="white"/>
<path d="M58.6875 20.7366L59.1761 18.5894H66.2099L65.7213 20.7366H63.4249L61.6033 28.9565H59.1601L60.9816 20.7366H58.6875Z" fill="white"/>
<path d="M72.6505 18.5892C73.2722 18.5892 73.7218 18.7636 73.9971 19.1146C74.2724 19.4656 74.3435 19.9565 74.2036 20.5874L73.5222 23.6684C73.2859 24.6962 72.7904 25.3362 72.0425 25.5932L72.6344 28.954H69.9686L69.5396 25.74H68.4729L67.7479 28.954H65.3047L67.3786 19.6674L67.0964 18.5869H72.6505V18.5892ZM68.9477 23.595H70.7257C70.9735 23.595 71.1203 23.4711 71.1707 23.2256L71.6456 21.1082C71.7053 20.8604 71.6066 20.7388 71.3497 20.7388H69.5717L68.9477 23.595Z" fill="white"/>
<path d="M80.9594 18.5894H83.4027L81.0925 28.9565H76.0569C75.4352 28.9565 74.9855 28.7821 74.708 28.4311C74.4327 28.0801 74.3615 27.5892 74.5015 26.9583L76.1303 19.6722L75.8481 18.5917H78.8098L77.0617 26.4398C77.0021 26.6876 77.1007 26.8092 77.3577 26.8092H79.1356L80.9594 18.5894Z" fill="white"/>
<path d="M84.6336 29.0296C84.0119 29.0296 83.5622 28.8552 83.2846 28.5042C83.007 28.1532 82.9382 27.6623 83.0782 27.0314L84.5143 20.5895C84.6818 19.8692 84.9662 19.3438 85.3654 19.0112C85.7646 18.6808 86.3266 18.5156 87.047 18.5156H90.0087C90.6304 18.5156 91.08 18.69 91.3576 19.041C91.6329 19.392 91.704 19.8829 91.5641 20.5138L91.1351 22.4386H88.6919L89.0039 21.0323C89.0635 20.7845 88.9695 20.6629 88.7217 20.6629H87.3154C87.0585 20.6629 86.9048 20.7868 86.8566 21.0323L85.643 26.5106C85.5833 26.7584 85.6774 26.88 85.9252 26.88H87.3315C87.5884 26.88 87.7421 26.7561 87.7903 26.5106L88.1459 24.8956H90.5891L90.1303 26.9534C89.9628 27.6737 89.6783 28.1991 89.2792 28.5294C88.88 28.8598 88.3179 29.025 87.5976 29.025H84.6336V29.0296Z" fill="white"/>
<path d="M101.246 18.5894L97.8847 23.9805L99.0845 28.9565H96.3453L95.5011 24.7353H94.627L93.6796 28.9565H91.2363L93.3102 19.6699L93.028 18.5894H95.9897L95.1019 22.588H96.0494L98.433 18.5894H101.246Z" fill="white"/>
<path d="M8.69922 31.062L36.0176 32.8629L39.4358 31.062H8.69922Z" fill="#F6880B"/>
<path d="M55.9688 18.8781L56.5515 18.8483L55.9092 5.95308L55.7394 5.96455L56.2625 3.78285L50.0752 1.37402L49.9307 3.18867L41.5916 5.69385L41.4746 5.30614L31.1143 8.41926L31.252 8.88038L27.5975 8.33208L27.095 9.78197L24.7436 10.11C24.7436 10.11 24.0003 11.3397 22.8785 13.1887L11.9883 16.9075H22.2613L25.2781 11.7434L48.1895 7.61632L26.3403 13.3952L24.7918 16.9075H27.8659L28.1893 15.8683L49.3228 10.8304L49.2035 25.242L44.6313 32.3308L43.264 32.0418L41.6466 33.237L40.3459 32.9617L39.2378 33.7004L49.6026 35.8959C53.7252 36.77 57.1182 32.6291 55.4503 28.7589L55.0374 27.7816L56.2257 24.4368L55.9688 18.8781ZM38.857 8.14167L42.0389 7.18502L41.821 6.46238L49.8596 4.04667L49.6554 6.63444L38.857 8.14167ZM53.5852 32.4846C53.3008 33.0558 52.8649 33.5444 52.3349 33.8886C52.0711 34.0629 51.782 34.1914 51.4815 34.2854C51.181 34.3772 50.8713 34.4277 50.5616 34.4368L50.3299 34.4323L50.1005 34.4116L49.8665 34.3749C49.7907 34.3611 49.7265 34.3428 49.6554 34.3267C49.364 34.2533 49.1048 34.1707 48.8295 34.0881C48.2858 33.9276 47.7444 33.7532 47.2053 33.5674C47.7742 33.6133 48.3386 33.6752 48.9029 33.7486L49.738 33.8587C49.8068 33.8656 49.8825 33.8771 49.9468 33.8794L50.1349 33.884L50.3299 33.8771L50.5226 33.8564C50.7772 33.8243 51.0273 33.7601 51.2613 33.6637C51.4953 33.5674 51.7132 33.4366 51.9151 33.2875C52.3166 32.9847 52.6355 32.5855 52.8396 32.1336C53.0438 31.6839 53.131 31.1884 53.0851 30.702C53.0622 30.4588 53.0094 30.218 52.9268 29.9863C52.8855 29.8761 52.8305 29.7431 52.7777 29.61L52.6171 29.2177C52.4038 28.6924 52.1973 28.167 51.9931 27.6371C51.8899 27.3733 51.7935 27.1071 51.6949 26.841C51.6559 26.7355 51.6169 26.6323 51.5779 26.5267C51.3462 26.825 51.1122 27.1232 50.869 27.4146C50.6923 27.6325 50.5134 27.8504 50.3299 28.0661C50.1486 28.2817 49.9651 28.4951 49.7747 28.7061C49.9032 28.4538 50.0339 28.2037 50.1693 27.956C50.3023 27.7082 50.44 27.4627 50.5799 27.2173C50.8529 26.724 51.1466 26.2468 51.4287 25.7605L51.6926 25.3108L51.9449 25.811C52.0711 26.0633 52.1904 26.3203 52.3143 26.5749C52.4382 26.8296 52.5597 27.0842 52.6767 27.3434C52.9153 27.8573 53.1493 28.3735 53.3765 28.8897L53.5485 29.2774C53.6059 29.4059 53.6609 29.532 53.7206 29.688C53.8307 29.9863 53.9064 30.3006 53.9362 30.6217C53.9959 31.2572 53.8697 31.9133 53.5852 32.4846ZM54.2895 26.0128L53.2893 23.6499L54.941 24.1615L54.2895 26.0128ZM55.3471 23.0098L51.9128 21.9477L54.2551 12.1587L54.5923 18.947L55.1636 18.9194L55.3494 22.9984L55.3471 23.0098Z" fill="#F6880B"/>
</svg>
