<svg width="1240" height="151" viewBox="0 0 1240 151" fill="none" xmlns="http://www.w3.org/2000/svg">
<path d="M593.112 38.3735L600.54 7.33105H707.453L700.026 38.3735H665.12L637.433 157.204H600.296L627.983 38.3735H593.112Z" fill="#F9FBFC"/>
<path d="M805.364 7.32858C814.814 7.32858 821.648 9.84913 825.833 14.9234C830.017 19.9976 831.098 27.0949 828.971 36.2153L818.615 80.7559C815.023 95.6139 807.491 104.867 796.123 108.581L805.12 157.168H764.6L758.079 110.704H741.864L730.845 157.168H693.708L725.231 22.9162L720.942 7.29541H805.364V7.32858ZM749.083 79.6946H776.107C779.873 79.6946 782.105 77.9037 782.872 74.3551L790.091 43.7438C790.997 40.162 789.498 38.4042 785.592 38.4042H758.567L749.083 79.6946Z" fill="#F9FBFC"/>
<path d="M931.636 7.33105H968.773L933.658 157.204H857.117C847.667 157.204 840.832 154.683 836.613 149.609C832.429 144.535 831.348 137.437 833.475 128.317L858.233 22.9849L853.944 7.36423H898.962L872.39 120.822C871.484 124.404 872.983 126.161 876.889 126.161H903.913L931.636 7.33105Z" fill="#F9FBFC"/>
<path d="M987.477 158.267C978.027 158.267 971.193 155.746 966.973 150.672C962.754 145.598 961.708 138.5 963.835 129.38L985.664 36.2527C988.21 25.8388 992.534 18.2441 998.601 13.4351C1004.67 8.65938 1013.21 6.27148 1024.16 6.27148H1069.18C1078.63 6.27148 1085.46 8.79203 1089.68 13.8663C1093.87 18.9405 1094.95 26.0378 1092.82 35.1582L1086.3 62.9837H1049.16L1053.91 42.6535C1054.81 39.0717 1053.38 37.3139 1049.62 37.3139H1028.24C1024.34 37.3139 1022 39.1049 1021.27 42.6535L1002.82 121.852C1001.91 125.433 1003.34 127.191 1007.11 127.191H1028.49C1032.39 127.191 1034.73 125.4 1035.46 121.852L1040.86 98.5034H1078L1071.03 128.252C1068.48 138.666 1064.16 146.261 1058.09 151.037C1052.02 155.813 1043.48 158.2 1032.53 158.2H987.477V158.267Z" fill="#F9FBFC"/>
<path d="M1240 7.33105L1188.92 85.2688L1207.16 157.204H1165.52L1152.69 96.1801H1139.4L1125 157.204H1087.86L1119.39 22.9518L1115.1 7.33105H1160.12L1146.62 65.1377H1161.02L1197.25 7.33105H1240Z" fill="#F9FBFC"/>
<path d="M104.957 7.36423H142.103L106.98 157.236H69.835L84.2398 95.3371H51.5937L37.189 157.236H0.00878906L31.5387 22.9552L27.2487 7.33105H72.2765L59.0228 64.321H91.6688L104.957 7.36423Z" fill="#F9FBFC"/>
<path d="M137.165 129.407L158.999 36.2592C161.545 25.8431 165.87 18.2467 171.939 13.4367C178.007 8.6599 186.553 6.27148 197.504 6.27148H242.532C251.984 6.27148 258.82 8.79258 263.006 13.8679C267.191 18.9433 268.272 26.0422 266.145 35.1645L244.311 128.312C241.765 138.728 237.44 146.325 231.371 151.102C225.302 155.878 216.757 158.267 205.805 158.267H160.813C151.361 158.267 144.524 155.746 140.339 150.67C136.119 145.661 135.037 138.562 137.165 129.407ZM176.089 121.91C175.182 125.493 176.612 127.251 180.379 127.251H201.76C205.666 127.251 208.003 125.459 208.735 121.91L227.186 42.6946C228.093 39.112 226.663 37.3539 222.896 37.3539H201.515C197.609 37.3539 195.272 39.1452 194.54 42.6946L176.089 121.91Z" fill="#F9FBFC"/>
<path d="M402.153 7.36182H441.565L406.443 157.267H369.263L390.434 67.3373L341.116 129.004L320.643 67.3373L299.472 157.267H262.326L293.856 22.9859L289.566 7.36182H334.594L353.289 66.906L402.153 7.36182Z" fill="#F9FBFC"/>
<path d="M546.263 38.4159H498.305L492.236 65.1859H544.031L521.499 96.2352H485.017L478.041 126.223H541.066L518.535 157.272H433.432L464.962 22.9908L460.672 7.3667H568.759L546.263 38.4159Z" fill="#F9FBFC"/>
</svg>
