<svg width="203" height="101" viewBox="0 0 203 101" fill="none" xmlns="http://www.w3.org/2000/svg">
<path fill-rule="evenodd" clip-rule="evenodd" d="M74.4482 49.3572H77.71L78.0904 47.1068H80.3194L80.6999 49.3572H83.9617L81.2164 36.3203H77.1935L74.4482 49.3572ZM79.2049 40.278L79.8301 44.2356H78.6069L79.2049 40.278ZM87.0605 41.4421C87.2506 41.4678 87.4409 41.4421 87.6041 41.3903C87.7671 41.3385 87.9302 41.2351 88.0932 41.1317C88.2292 41.0282 88.3379 40.8729 88.4195 40.7178C88.501 40.5625 88.5554 40.3814 88.5554 40.2263C88.5554 40.0711 88.501 39.89 88.4467 39.7348C88.3691 39.5843 88.2578 39.4519 88.1206 39.3468C87.9846 39.2434 87.8214 39.1658 87.6584 39.1139C87.4953 39.0622 87.3051 39.0622 87.142 39.0622C86.544 39.0622 85.946 39.1917 85.3751 39.4243V36.6567C86.2994 36.4239 87.2235 36.3203 88.1749 36.3203C90.7842 36.3203 91.9803 38.0017 91.9803 39.6054C92.0075 40.2263 91.8171 40.8471 91.4367 41.3903C91.0834 41.9076 90.5397 42.3215 89.9144 42.5543V42.6836C90.5941 42.8647 91.1648 43.2786 91.5725 43.8217C91.9803 44.365 92.1706 45.0374 92.1161 45.71C92.1161 48.0897 90.2951 49.3831 87.9574 49.3831C86.8973 49.4349 85.8644 49.2021 84.9403 48.7365L84.9946 46.1238C85.6742 46.4083 86.3809 46.5377 87.1148 46.5119C87.3051 46.5379 87.4681 46.5119 87.6313 46.4602C87.7943 46.4085 87.9574 46.3308 88.0932 46.2015C88.2292 46.098 88.3379 45.9429 88.4195 45.7876C88.501 45.6325 88.5282 45.4772 88.5282 45.2961C88.5282 44.5978 88.0389 44.1063 86.9245 44.1063H85.6742V41.4418H87.0605V41.4421ZM93.6112 36.3462H102.364V49.3831H99.1563V39.4762H96.8186V49.3831H93.6112V36.3462ZM104.212 49.3572H107.392V45.0634H108.479C111.66 45.0634 112.638 42.3732 112.638 40.666C112.638 38.9588 111.524 36.3203 108.479 36.3203H104.212V49.3572ZM107.365 39.2175H108.126C108.86 39.2175 109.322 39.6313 109.322 40.6918C109.322 42.1145 108.561 42.1921 108.126 42.1921H107.365V39.2177V39.2175ZM118.564 49.4089C122.369 49.4089 123.647 46.1498 123.647 42.8906C123.647 39.6313 122.369 36.372 118.564 36.372C114.786 36.372 113.481 39.6313 113.481 42.8906C113.481 46.1498 114.759 49.4089 118.564 49.4089ZM118.564 46.3308C117.422 46.3308 116.851 45.1152 116.851 42.8645C116.851 40.6144 117.422 39.3985 118.564 39.3985C119.705 39.3985 120.276 40.6142 120.276 42.8647C120.276 45.1152 119.705 46.3309 118.564 46.3309V46.3308ZM137.618 49.3055H141.451C142.022 49.3314 142.62 49.228 143.163 49.021C143.707 48.814 144.196 48.5037 144.604 48.0897C145.012 47.7018 145.311 47.2102 145.528 46.693C145.718 46.1757 145.8 45.6066 145.745 45.0634C145.745 41.7525 143.055 41.1833 141.315 41.1833H140.771V39.4762H145.039V36.372H137.645V49.3314H137.618V49.3055ZM140.744 46.7189V43.77H141.206C141.587 43.77 142.592 43.77 142.592 45.1151C142.592 46.4602 141.587 46.7447 141.206 46.7447L140.744 46.7187V46.7189ZM157.271 36.3462H160.396V41.0282H162.625V36.3462H165.778V49.3572H162.625V44.1322H160.396V49.3314H157.271V36.3462ZM167.898 36.3462H171.024V41.0282H171.704L173.498 36.3462H176.923L174.476 42.5025L177.276 49.3314H173.579L171.785 44.1063H171.024V49.3314H167.898V36.3462ZM68.1965 36.3722H74.7743V39.6054H71.4582V49.3314H68.1965V36.372V36.3722ZM125.196 36.3462H127.914L130.306 39.4243L132.725 36.3462H135.444V49.3831H132.236V41.4161L130.306 43.6924L128.376 41.4163V49.3572H125.169V36.3462H125.196ZM146.371 49.3831H149.632L150.013 47.1328H152.269L152.649 49.3831H155.911L153.166 36.3462H149.143L146.371 49.3831ZM151.127 40.3039L151.725 44.2614H150.502L151.127 40.3039ZM141.209 51.7628V58.7728L144.09 51.7628H147.026V64.748H144.117V57.7381L141.209 64.748H138.3V51.7628H141.209ZM119.001 51.7628V64.748H121.91L124.818 57.7381V64.748H127.727V51.7628H124.818L121.937 58.7728V51.7628H119.001ZM109.433 51.6594V58.7987C109.433 61.1008 109.107 61.644 108.428 61.644C108.183 61.6181 107.939 61.5923 107.694 61.5404V64.5927C108.102 64.748 108.537 64.8256 108.999 64.8256C112.424 64.8256 112.424 61.6957 112.424 59.9367V54.7892H113.674V64.6446H116.664V51.6594H109.433ZM130.255 56.8069V59.5488H131.559C132.646 59.5488 133.136 60.0144 133.136 60.7386C133.136 60.9197 133.081 61.075 133 61.2301C132.918 61.3853 132.81 61.5146 132.674 61.644C132.538 61.7474 132.375 61.851 132.212 61.9027C132.049 61.9544 131.858 61.9802 131.695 61.9544C130.961 61.9802 130.227 61.851 129.575 61.5664L129.521 64.179C130.445 64.6446 131.505 64.8774 132.565 64.8256C134.875 64.8256 136.724 63.5064 136.724 61.1267C136.778 60.4541 136.588 59.8075 136.18 59.2643C135.772 58.721 135.202 58.3072 134.522 58.1261V57.9968C135.147 57.764 135.664 57.3242 136.017 56.8069C136.37 56.2637 136.534 55.6428 136.506 54.9962C136.506 53.3666 135.337 51.6852 132.701 51.6852C131.75 51.6852 130.825 51.7886 129.901 52.0215V54.7375C130.472 54.5047 131.07 54.4013 131.668 54.4272C131.831 54.4013 132.021 54.4272 132.185 54.4789C132.348 54.5306 132.511 54.6081 132.646 54.7117C132.782 54.8151 132.891 54.9704 132.973 55.0996C133.054 55.2549 133.081 55.4101 133.081 55.5911C133.054 55.9275 132.891 56.2637 132.619 56.4965C132.348 56.7293 131.994 56.8327 131.614 56.8327H130.255V56.8069ZM160.018 64.7222H163.28V54.9962H166.596V51.7369H160.018V64.7222ZM149.309 64.7222H152.435V59.5488H154.664V64.748H157.817V51.7369H154.664V56.419H152.435V51.7369H149.309V64.7222ZM78.664 64.5152H82.3607C82.9858 64.5152 83.5566 64.4118 84.0459 64.2307C84.5352 64.0496 84.9702 63.7909 85.2963 63.4805C85.6496 63.1443 85.8943 62.7821 86.0846 62.3424C86.2749 61.9027 86.3564 61.437 86.3564 60.9197C86.3564 60.5835 86.3293 60.2471 86.2476 59.9109C86.1661 59.5747 86.0574 59.2643 85.9215 58.9796C85.7585 58.6951 85.5681 58.4364 85.3507 58.2296C85.106 58.0227 84.8342 57.8415 84.4809 57.7381C84.5352 57.7381 84.6167 57.6604 84.7799 57.5829C84.943 57.4795 85.106 57.3242 85.2963 57.1431C85.4866 56.9363 85.6225 56.6776 85.7856 56.3412C85.9215 56.005 86.0031 55.5911 86.0031 55.1255C86.0031 54.66 85.9215 54.1944 85.7313 53.7804C85.5719 53.3721 85.3215 53.0015 84.9974 52.6941C84.6712 52.3837 84.2906 52.1509 83.8284 51.9698C83.3665 51.7886 82.85 51.7111 82.2792 51.7111H78.664V64.5152ZM81.7356 56.7293V54.453H82.1976C82.4422 54.453 82.6325 54.5564 82.7685 54.7375C82.9043 54.9187 82.9858 55.2032 82.9858 55.5911C82.9858 55.9792 82.9043 56.2637 82.7685 56.4707C82.6325 56.6516 82.4422 56.7552 82.1976 56.7552H81.7356V56.7293ZM81.7356 61.7733V59.2124H82.2792C82.551 59.2124 82.7685 59.316 82.9587 59.5488C83.149 59.7558 83.2305 60.092 83.2305 60.5058C83.2305 60.9197 83.149 61.2301 82.9587 61.4629C82.7685 61.6699 82.551 61.7991 82.2792 61.7991H81.7356V61.7733ZM87.4708 51.7369V54.9187H90.0803V64.5152H93.2333V54.9187H95.8428V51.7369H87.4708ZM101.904 51.6594C105.601 51.6594 106.851 54.9445 106.851 58.2296C106.851 61.5146 105.601 64.7997 101.904 64.7997C98.2076 64.7997 96.9572 61.5146 96.9572 58.2296C96.9572 54.9445 98.2076 51.6594 101.904 51.6594ZM101.904 54.7634C100.817 54.7634 100.246 55.9792 100.246 58.2296C100.246 60.4799 100.817 61.6957 101.904 61.6957C103.019 61.6957 103.562 60.4799 103.562 58.2296C103.562 55.9792 102.992 54.7634 101.904 54.7634ZM74.8042 51.7369L77.468 64.541H74.2878L73.9073 62.3424H71.7328L71.3521 64.541H68.1719L70.8357 51.7369H74.8042ZM72.2492 59.4971H73.418L72.82 55.5911L72.2492 59.4971Z" fill="#162E89"/>
<path d="M24.6445 50.5105C24.6445 59.771 32.5274 67.2983 42.2041 67.2983C51.8809 67.2983 59.7636 59.771 59.7636 50.5105C59.7636 41.25 51.8809 33.7227 42.2041 33.7227C32.5273 33.7227 24.6445 41.25 24.6445 50.5105ZM25.2425 50.5105C25.2425 41.5603 32.8534 34.2917 42.2042 34.2917C51.5549 34.2917 59.1658 41.5863 59.1658 50.5105C59.1658 59.4606 51.5549 66.7292 42.2042 66.7292C32.8537 66.7292 25.2427 59.4606 25.2427 50.5105H25.2425ZM30.1082 45.9062C34.593 43.0867 39.5674 41.4569 47.9937 42.828C48.4559 42.5693 48.7005 42.3365 48.8365 41.7933C46.7435 41.069 44.4601 40.8103 41.4973 40.862C38.8607 40.9396 34.0767 41.8709 31.5488 43.3195L32.3371 42.3882C34.131 41.4052 38.7519 40.06 42.2312 40.0085C44.6776 39.9566 45.9552 40.086 48.8637 40.836C48.619 40.3447 47.9937 40.1119 47.1239 39.7496C44.2971 38.534 39.0237 38.4304 34.7018 40.2413C35.2454 39.9049 35.7891 39.5687 36.4687 39.2842C37.8821 38.6632 40.2198 38.0684 43.1282 38.0942C45.4659 38.1202 48.2112 38.8961 49.9238 40.4998C50.1956 40.8103 50.3586 41.1465 50.4403 41.4311C51.772 42.0778 52.5603 42.6986 52.9953 43.397C53.1856 43.7591 53.2399 44.173 53.1584 44.6128C53.7292 44.9232 53.9739 45.2077 54.2457 45.5439C54.4359 45.8285 54.599 46.1648 54.6262 46.4752C54.6805 46.889 54.7349 47.3288 54.3 47.8461C54.7622 48.0531 55.1155 48.6738 55.1698 48.9325C55.3873 49.8896 54.7349 50.8468 53.8651 51.5711C52.8866 52.3988 50.7121 53.3818 48.9452 53.8216C45.4115 54.6751 42.3127 55.0372 39.8392 55.4511C40.9536 55.7098 42.4487 56.046 44.9222 56.046C50.1684 56.046 54.8165 53.6663 54.8165 53.6663C54.8165 53.6663 54.7077 53.9767 54.599 54.2612C51.2557 56.1754 45.9552 57.0032 43.6991 56.8998C41.3886 56.7962 39.4587 56.46 37.556 55.9168C36.9852 56.0719 36.4144 56.2272 35.8436 56.46C38.7791 57.7792 40.9536 58.0637 43.4273 58.2448C45.928 58.4259 50.0868 57.8309 53.6204 56.6151C53.4574 56.7703 53.3758 57.0032 53.2128 57.1584C51.4187 58.0637 47.6133 58.9691 45.7105 59.0467C43.8078 59.1242 41.4973 59.0467 39.4859 58.6846C37.7463 58.3741 36.3327 57.8309 34.865 57.2101C34.5931 57.3911 34.4572 57.6498 34.4028 57.9084C40.1382 60.8057 45.5747 60.8832 51.7177 59.0467L51.1469 59.564C44.3514 62.2024 39.0509 61.1677 34.9465 59.2795C34.8106 59.2278 34.6475 59.1501 34.5388 59.0984C34.9193 59.7451 38.0453 61.9179 41.5518 62.2024C43.971 62.3835 46.9065 61.9955 48.6734 61.323L47.6404 61.8404C46.7978 62.2283 44.5418 63.1337 41.4158 62.9526C37.2298 62.6939 34.8921 60.9091 33.832 59.978C33.3427 59.5382 33.0981 59.0467 32.9622 58.4259C32.0108 57.9603 31.4128 57.4688 30.9235 56.7186C30.6245 56.2789 30.6789 55.8132 30.7605 55.3994C30.7877 55.27 30.8149 55.1408 30.8692 55.0372C30.407 54.7268 29.9449 54.3906 29.7547 54.0542C29.3469 53.3301 29.5916 52.735 29.8906 52.2435C29.6459 51.9849 29.4014 51.7003 29.3199 51.4417C29.2111 51.1054 29.1839 50.7951 29.2111 50.4587C29.2926 49.8638 29.6188 49.3206 30.0537 48.8291C30.978 47.8203 32.3914 47.0443 34.8648 46.2683C37.284 45.5181 38.2356 45.3887 40.0568 45.0008C42.1769 44.5351 44.7048 44.38 46.8521 43.6816C40.9536 42.621 34.7835 43.5263 29.7819 46.8373L30.1082 45.9062ZM50.2771 42.4141C50.1956 42.6986 49.8966 43.0091 49.6791 43.2418C50.3314 43.397 50.9839 43.6298 51.609 43.8627C51.5275 43.3195 50.8479 42.7761 50.2771 42.4141ZM32.038 53.7439C31.6575 53.5369 31.3857 53.4076 31.0867 53.1748C30.9235 53.5369 31.2498 53.925 31.576 54.1061C31.739 53.9767 31.9021 53.8733 32.038 53.7439ZM51.9895 46.3458C52.4245 46.5528 52.805 46.708 53.1584 46.9409C53.4303 46.4494 53.2671 46.1388 52.6963 45.6734C52.506 45.9319 52.2613 46.1388 51.9895 46.3458ZM50.7392 47.0701C49.8693 47.4582 48.6462 47.8461 46.8521 48.2859C45.4115 48.6221 41.8507 49.1136 38.0453 49.9155C36.822 50.1742 33.5602 50.8985 31.9565 52.2177C32.3914 52.5541 32.6904 52.6575 33.1797 52.9161C33.8592 52.5022 34.7563 52.1143 36.0881 51.778C38.4258 51.183 40.1653 50.9243 42.2856 50.614C44.3786 50.2777 48.2929 49.5017 50.4674 48.7516C51.1741 48.5187 51.8265 48.1825 52.3158 47.8203C52.1798 47.6652 50.7936 47.0184 50.7392 47.0701ZM34.267 55.7874C34.5931 55.6063 34.9736 55.4253 35.4086 55.2442C34.8106 55.0114 34.1853 54.7268 33.533 54.4682C33.2341 54.6493 32.9894 54.8302 32.7991 55.0114L34.267 55.7874ZM32.2554 55.9685C32.2554 56.3306 32.4729 56.6669 33.0166 57.0807C33.0709 56.8738 33.1797 56.7186 33.3429 56.5375C32.9622 56.3824 32.5816 56.1754 32.2554 55.9685ZM35.2183 49.0619C39.513 47.872 43.9981 47.4841 48.5647 46.3458C46.7706 45.8803 45.792 45.6734 43.9165 45.8803C41.1711 46.1907 38.1811 46.7597 35.5989 47.4841C34.5931 47.7686 29.2926 49.2172 30.8149 51.2347C30.8149 51.2607 31.7118 50.0449 35.2183 49.0619ZM51.2829 44.8713C50.5761 44.561 49.7063 44.2764 48.782 44.0438C48.3744 44.3542 47.8851 44.6387 47.2056 44.8973C48.3744 45.1042 49.217 45.3888 50.1956 45.6734C50.3586 45.7509 51.1469 45.0266 51.2829 44.8713ZM53.4031 48.8033C53.2671 48.9067 53.1313 49.0102 52.9681 49.1395C51.9895 49.8638 50.4674 50.4328 48.3472 50.976C43.9436 52.1143 40.7363 52.2694 37.0938 53.1231C36.3872 53.2782 35.6533 53.511 34.9465 53.7956C35.6261 54.1319 36.3599 54.4165 37.121 54.701C38.5889 54.287 39.3227 54.1061 41.4429 53.7697C42.2584 53.6404 44.7864 53.2265 46.5803 52.8386C49.8693 52.166 54.6805 50.7174 53.4031 48.8033Z" fill="#162E89"/>
</svg>
