<svg width="17" height="17" viewBox="0 0 17 17" fill="none" xmlns="http://www.w3.org/2000/svg">
<rect x="0.142944" y="0.285645" width="16.2857" height="16.2825" rx="8.14124" fill="#F6880B"/>
<path d="M8.28367 1.75265C10.4583 1.75265 10.7136 1.76234 11.5731 1.80112C12.368 1.83666 12.7978 1.96915 13.0854 2.08224C13.4667 2.23088 13.7381 2.40537 14.0224 2.68972C14.3068 2.97408 14.4845 3.24551 14.6299 3.6268C14.7398 3.91438 14.8755 4.34414 14.9111 5.13904C14.9498 5.99857 14.9595 6.25384 14.9595 8.4285C14.9595 10.6032 14.9498 10.8584 14.9111 11.7179C14.8755 12.5128 14.743 12.9426 14.6299 13.2302C14.4813 13.6115 14.3068 13.8829 14.0224 14.1673C13.7381 14.4516 13.4667 14.6293 13.0854 14.7747C12.7978 14.8846 12.368 15.0203 11.5731 15.0559C10.7136 15.0946 10.4583 15.1043 8.28367 15.1043C6.10901 15.1043 5.85374 15.0946 4.99421 15.0559C4.19932 15.0203 3.76955 14.8878 3.48197 14.7747C3.10068 14.6261 2.82925 14.4516 2.54489 14.1673C2.26054 13.8829 2.08282 13.6115 1.93741 13.2302C1.82755 12.9426 1.69183 12.5128 1.65629 11.7179C1.61751 10.8584 1.60782 10.6032 1.60782 8.4285C1.60782 6.25384 1.61751 5.99857 1.65629 5.13904C1.69183 4.34414 1.82432 3.91438 1.93741 3.6268C2.08605 3.24551 2.26054 2.97408 2.54489 2.68972C2.82925 2.40537 3.10068 2.22765 3.48197 2.08224C3.76955 1.97238 4.19932 1.83666 4.99421 1.80112C5.85374 1.75911 6.11224 1.75265 8.28367 1.75265ZM8.28367 0.285645C6.07346 0.285645 5.79557 0.295338 4.92636 0.334114C4.06037 0.372889 3.46904 0.511835 2.95204 0.712175C2.41564 0.918977 1.96326 1.2001 1.51088 1.65248C1.0585 2.10486 0.780608 2.56047 0.570574 3.09364C0.370233 3.61064 0.231288 4.20197 0.192512 5.07119C0.153737 5.93717 0.144043 6.21506 0.144043 8.42526C0.144043 10.6355 0.153737 10.9134 0.192512 11.7826C0.231288 12.6486 0.370233 13.2399 0.570574 13.7601C0.777376 14.2965 1.0585 14.7489 1.51088 15.2013C1.96326 15.6537 2.41887 15.9316 2.95204 16.1416C3.46904 16.3419 4.06037 16.4809 4.92959 16.5196C5.79881 16.5584 6.07346 16.5681 8.2869 16.5681C10.5003 16.5681 10.775 16.5584 11.6442 16.5196C12.5102 16.4809 13.1015 16.3419 13.6218 16.1416C14.1582 15.9348 14.6105 15.6537 15.0629 15.2013C15.5153 14.7489 15.7932 14.2933 16.0032 13.7601C16.2036 13.2431 16.3425 12.6518 16.3813 11.7826C16.4201 10.9134 16.4298 10.6387 16.4298 8.42526C16.4298 6.21183 16.4201 5.93717 16.3813 5.06795C16.3425 4.20197 16.2036 3.61064 16.0032 3.0904C15.7964 2.55401 15.5153 2.10163 15.0629 1.64925C14.6105 1.19687 14.1549 0.918977 13.6218 0.708944C13.1048 0.508604 12.5134 0.369658 11.6442 0.330883C10.7718 0.295338 10.4939 0.285645 8.28367 0.285645Z" fill="#F6880B"/>
<path d="M8.28236 4.24756C5.97522 4.24756 4.10107 6.11847 4.10107 8.42885C4.10107 10.7392 5.97199 12.6101 8.28236 12.6101C10.5927 12.6101 12.4637 10.7392 12.4637 8.42885C12.4637 6.11847 10.5927 4.24756 8.28236 4.24756ZM8.28236 11.1399C6.78304 11.1399 5.56808 9.92493 5.56808 8.42562C5.56808 6.9263 6.78304 5.71133 8.28236 5.71133C9.78168 5.71133 10.9966 6.9263 10.9966 8.42562C10.9966 9.92493 9.78168 11.1399 8.28236 11.1399Z" fill="#F1F3F4"/>
<path d="M12.6316 5.05522C13.1706 5.05522 13.6075 4.61831 13.6075 4.07937C13.6075 3.54042 13.1706 3.10352 12.6316 3.10352C12.0927 3.10352 11.6558 3.54042 11.6558 4.07937C11.6558 4.61831 12.0927 5.05522 12.6316 5.05522Z" fill="#F1F3F4"/>
</svg>
