<svg width="12" height="18" viewBox="0 0 12 18" fill="none" xmlns="http://www.w3.org/2000/svg">
<path d="M7.94573 13.0801L10.6357 15.677C11.1868 16.2078 11.1868 17.0699 10.6357 17.6013C10.0852 18.1327 9.19298 18.1327 8.64306 17.6013L5.99826 15.0495L3.35577 17.6013C3.08023 17.8667 2.71918 17.9996 2.35814 17.9996C1.99767 17.9996 1.6372 17.8667 1.36166 17.6013C0.811164 17.0699 0.811164 16.2084 1.36108 15.677L4.05137 13.0801C3.07188 12.8647 2.12723 12.4901 1.25715 11.9631C0.598682 11.5624 0.400884 10.7228 0.815771 10.0866C1.22951 9.44961 2.09959 9.25784 2.7592 9.6586C4.72913 10.8548 7.26682 10.8551 9.23789 9.6586C9.89751 9.25784 10.7673 9.44961 11.1819 10.0866C11.5968 10.7222 11.3984 11.5624 10.74 11.9631C9.86987 12.4906 8.92522 12.8647 7.94573 13.0801Z" fill="#F6880B"/>
<path fill-rule="evenodd" clip-rule="evenodd" d="M1.17749 4.64519C1.17749 7.20596 3.33571 9.28898 5.98943 9.28898C8.64373 9.28898 10.8014 7.20596 10.8014 4.64519C10.8014 2.08358 8.64373 0 5.98943 0C3.33571 0 1.17749 2.08358 1.17749 4.64519ZM7.98256 4.64535C7.98256 3.5848 7.08887 2.72241 5.99018 2.72241C4.89236 2.72241 3.9978 3.5848 3.9978 4.64535C3.9978 5.70507 4.89236 6.56802 5.99018 6.56802C7.08887 6.56802 7.98256 5.70507 7.98256 4.64535Z" fill="#F6880B"/>
</svg>
