<svg width="14" height="15" viewBox="0 0 14 15"  xmlns="http://www.w3.org/2000/svg">
<path d="M12.8152 10.831C12.8152 11.041 12.7685 11.2568 12.6693 11.4668C12.5702 11.6768 12.4419 11.8752 12.2727 12.0618C11.9869 12.3768 11.6718 12.6043 11.316 12.7502C10.966 12.896 10.5869 12.9718 10.1785 12.9718C9.58352 12.9718 8.94768 12.8318 8.27685 12.546C7.60602 12.2602 6.93518 11.8752 6.27018 11.391C5.59935 10.901 4.96352 10.3585 4.35685 9.75768C3.75602 9.15101 3.21352 8.51518 2.72935 7.85018C2.25102 7.18518 1.86602 6.52018 1.58602 5.86101C1.30602 5.19601 1.16602 4.56018 1.16602 3.95351C1.16602 3.55684 1.23602 3.17768 1.37602 2.82768C1.51602 2.47184 1.73768 2.14518 2.04685 1.85351C2.42018 1.48601 2.82852 1.30518 3.26018 1.30518C3.42352 1.30518 3.58685 1.34018 3.73268 1.41018C3.88435 1.48018 4.01852 1.58518 4.12352 1.73684L5.47685 3.64434C5.58185 3.79018 5.65768 3.92434 5.71018 4.05268C5.76268 4.17518 5.79185 4.29768 5.79185 4.40851C5.79185 4.54851 5.75102 4.68851 5.66935 4.82268C5.59352 4.95684 5.48268 5.09684 5.34268 5.23684L4.89935 5.69768C4.83518 5.76184 4.80602 5.83768 4.80602 5.93101C4.80602 5.97768 4.81185 6.01851 4.82352 6.06518C4.84102 6.11184 4.85852 6.14684 4.87018 6.18184C4.97518 6.37434 5.15602 6.62518 5.41268 6.92851C5.67518 7.23184 5.95518 7.54101 6.25852 7.85018C6.57352 8.15934 6.87685 8.44518 7.18602 8.70768C7.48935 8.96434 7.74018 9.13934 7.93852 9.24434C7.96768 9.25601 8.00268 9.27351 8.04352 9.29101C8.09018 9.30851 8.13685 9.31434 8.18935 9.31434C8.28852 9.31434 8.36435 9.27934 8.42852 9.21518L8.87185 8.77768C9.01768 8.63184 9.15768 8.52101 9.29185 8.45101C9.42602 8.36934 9.56018 8.32851 9.70602 8.32851C9.81685 8.32851 9.93352 8.35184 10.0618 8.40434C10.1902 8.45684 10.3244 8.53268 10.4702 8.63184L12.401 10.0027C12.5527 10.1077 12.6577 10.2302 12.7218 10.376C12.7802 10.5218 12.8152 10.6677 12.8152 10.831Z"  stroke-width="1.5" stroke-miterlimit="10"/>
<path d="M11.6652 2.47168H8.86523M11.6652 2.47168V5.27168V2.47168Z"  stroke-width="1.5" stroke-linecap="round" stroke-linejoin="round"/>
</svg>
