<svg width="23" height="19" viewBox="0 0 23 19"  xmlns="http://www.w3.org/2000/svg">
<path d="M1.07596 8.92938C3.29704 7.70593 5.77638 6.68484 8.09296 5.65853C12.0784 3.9775 16.0796 2.32561 20.1212 0.787718C20.9076 0.525676 22.3205 0.269413 22.459 1.43475C22.3832 3.08426 22.0711 4.72412 21.857 6.36398C21.3137 9.97018 20.6858 13.564 20.0734 17.1584C19.8624 18.3556 18.3626 18.9754 17.403 18.2092C15.0967 16.6514 12.7727 15.1087 10.4958 13.5148C9.75 12.7569 10.4416 11.6686 11.1077 11.1274C13.0072 9.25546 15.0217 7.66501 16.822 5.69629C17.3076 4.52359 15.8727 5.51191 15.3995 5.81472C12.799 7.60674 10.2622 9.50816 7.5205 11.0831C6.12005 11.854 4.48779 11.1952 3.08796 10.765C1.83284 10.2454 -0.00637701 9.72183 1.07583 8.92946L1.07596 8.92938Z" />
</svg>
