<svg width="25" height="15" viewBox="0 0 25 15"  xmlns="http://www.w3.org/2000/svg">
<path fill-rule="evenodd" clip-rule="evenodd" d="M24.1395 1.49082C24.3173 0.931925 24.1395 0.525425 23.3519 0.525425H20.7351C20.0745 0.525425 19.7697 0.881075 19.5919 1.26222C19.5919 1.26222 18.2453 4.51415 16.3653 6.62278C15.7555 7.23252 15.4761 7.43577 15.1458 7.43577C14.9679 7.43577 14.7393 7.23252 14.7393 6.67362V1.4654C14.7393 0.804875 14.5361 0.5 13.9771 0.5H9.86142C9.45492 0.5 9.2009 0.804875 9.2009 1.10975C9.2009 1.74493 10.1409 1.89733 10.2425 3.67572V7.5374C10.2425 8.37582 10.0901 8.52822 9.7598 8.52822C8.8706 8.52822 6.71112 5.25087 5.41542 1.51625C5.16132 0.77945 4.9073 0.5 4.24677 0.5H1.60452C0.842367 0.5 0.715332 0.855725 0.715332 1.2368C0.715332 1.92275 1.60452 5.37792 4.85645 9.95098C7.016 13.0759 10.0901 14.7526 12.8593 14.7526C14.5361 14.7526 14.7393 14.3715 14.7393 13.7365V11.3737C14.7393 10.6115 14.8918 10.4845 15.4253 10.4845C15.8064 10.4845 16.4923 10.6877 18.042 12.1867C19.8204 13.965 20.1253 14.778 21.1161 14.778H23.733C24.4951 14.778 24.8509 14.397 24.6476 13.6602C24.4189 12.9234 23.5551 11.8564 22.4373 10.5861C21.8275 9.87477 20.9129 9.0872 20.6334 8.70605C20.2524 8.198 20.354 7.99475 20.6334 7.5374C20.6081 7.5374 23.8092 3.0152 24.1395 1.49082Z" fill="#F6880B"/>
</svg>
