<svg width="17" height="16" viewBox="0 0 17 16" fill="none" xmlns="http://www.w3.org/2000/svg">
<path d="M0.859863 15.7142L1.95033 11.7544C1.27615 10.5921 0.922491 9.27587 0.926175 7.93027C0.926175 3.71381 4.37439 0.285645 8.6073 0.285645C10.663 0.285645 12.5934 1.08127 14.0412 2.52587C15.4927 3.97046 16.2921 5.8917 16.2884 7.93394C16.2884 12.1504 12.8402 15.5786 8.60362 15.5786H8.59993C7.31422 15.5786 6.05061 15.2559 4.92699 14.6473L0.859863 15.7142ZM5.12224 13.265L5.35433 13.4043C6.33428 13.9836 7.45789 14.288 8.60362 14.2916H8.6073C12.1255 14.2916 14.9917 11.4428 14.9917 7.9376C14.9917 6.24002 14.3285 4.6451 13.1239 3.44249C11.9192 2.23988 10.313 1.57991 8.6073 1.57991C5.08909 1.57625 2.22294 4.42511 2.22294 7.93027C2.22294 9.12921 2.55818 10.2988 3.1992 11.3108L3.35024 11.5528L2.70554 13.8956L5.12224 13.265Z" fill="#F6880B"/>
<path d="M0.859863 15.7142L1.95033 11.7544C1.27615 10.5921 0.922491 9.27587 0.926175 7.93027C0.926175 3.71381 4.37439 0.285645 8.6073 0.285645C10.663 0.285645 12.5934 1.08127 14.0412 2.52587C15.4927 3.97046 16.2921 5.8917 16.2884 7.93394C16.2884 12.1504 12.8402 15.5786 8.60362 15.5786H8.59993C7.31422 15.5786 6.05061 15.2559 4.92699 14.6473L0.859863 15.7142ZM5.12224 13.265L5.35433 13.4043C6.33428 13.9836 7.45789 14.288 8.60362 14.2916H8.6073C12.1255 14.2916 14.9917 11.4428 14.9917 7.9376C14.9917 6.24002 14.3285 4.6451 13.1239 3.44249C11.9192 2.23988 10.313 1.57991 8.6073 1.57991C5.08909 1.57625 2.22294 4.42511 2.22294 7.93027C2.22294 9.12921 2.55818 10.2988 3.1992 11.3108L3.35024 11.5528L2.70554 13.8956L5.12224 13.265Z" fill="#F6880B"/>
<path d="M2.96042 11.8144L2.57471 14.9001L6.04614 14.1287L2.96042 11.4287V11.8144Z" fill="#F6880B"/>
<circle cx="8.65819" cy="8.08544" r="6.94286" fill="#F6880B"/>
<path fill-rule="evenodd" clip-rule="evenodd" d="M6.68951 4.73306C6.54583 4.41408 6.39479 4.40675 6.25848 4.40308C6.14796 4.39941 6.01902 4.39941 5.89008 4.39941C5.76114 4.39941 5.55484 4.44708 5.37801 4.63774C5.20117 4.82839 4.70752 5.29037 4.70752 6.23266C4.70752 7.17128 5.39643 8.08057 5.49221 8.20889C5.58799 8.33722 6.82213 10.3281 8.77096 11.0944C10.3919 11.7324 10.7235 11.6041 11.0735 11.5711C11.4234 11.5381 12.2081 11.1091 12.3702 10.6618C12.5286 10.2145 12.5286 9.83315 12.4807 9.75249C12.4329 9.67182 12.3039 9.62416 12.1123 9.52883C11.9208 9.4335 10.9777 8.97152 10.8008 8.90553C10.624 8.8432 10.4951 8.8102 10.3698 9.00085C10.2409 9.19151 9.87248 9.62049 9.76196 9.74882C9.65144 9.87715 9.53723 9.89181 9.34566 9.79648C9.1541 9.70115 8.53519 9.4995 7.80207 8.84686C7.23105 8.34089 6.84423 7.71392 6.73371 7.52326C6.62319 7.3326 6.72266 7.22994 6.81845 7.13461C6.90318 7.05028 7.01001 6.91096 7.1058 6.80096C7.20158 6.69097 7.23474 6.61031 7.29737 6.48198C7.35999 6.35365 7.33052 6.24366 7.28263 6.14833C7.23474 6.05667 6.85897 5.11071 6.68951 4.73306Z" fill="#F1F3F4"/>
</svg>
