<svg width="23" height="24" viewBox="0 0 23 24" xmlns="http://www.w3.org/2000/svg">
<path fill-rule="evenodd" clip-rule="evenodd" d="M11.6263 23.5704H11.6217C9.73079 23.5697 7.87282 23.0953 6.22263 22.1952L0.233398 23.7663L1.83622 17.9118C0.847521 16.1984 0.327273 14.2548 0.328121 12.2636C0.3306 6.03432 5.39888 0.966309 11.6262 0.966309C14.6486 0.967613 17.4853 2.1442 19.6183 4.27976C21.7514 6.41521 22.9255 9.25374 22.9243 12.2725C22.9218 18.5004 17.8555 23.5678 11.6263 23.5704ZM6.50008 20.1503L6.84298 20.3538C8.28475 21.2093 9.93744 21.662 11.6225 21.6627H11.6263C16.802 21.6627 21.0145 17.4501 21.0166 12.2722C21.0176 9.76305 20.0418 7.40379 18.2688 5.62879C16.4959 3.8538 14.1382 2.87581 11.63 2.87494C6.45025 2.87494 2.23767 7.08714 2.23562 12.2646C2.23489 14.039 2.73135 15.767 3.67135 17.2621L3.89462 17.6173L2.94598 21.0826L6.50008 20.1503ZM16.9315 14.7051C17.1284 14.8002 17.2614 14.8645 17.3181 14.9593C17.3887 15.077 17.3887 15.6422 17.1536 16.3017C16.9182 16.9611 15.7904 17.563 15.248 17.644C14.7617 17.7167 14.1462 17.747 13.47 17.5321C13.06 17.402 12.5342 17.2283 11.8607 16.9375C9.21416 15.7947 7.42567 13.2297 7.08765 12.7449C7.06398 12.7109 7.04741 12.6872 7.03817 12.6748L7.0359 12.6718C6.8865 12.4725 5.88548 11.1369 5.88548 9.75457C5.88548 8.45423 6.52423 7.77266 6.81824 7.45893C6.83839 7.43744 6.85691 7.41767 6.8735 7.39955C7.13226 7.11692 7.43811 7.04627 7.6263 7.04627C7.81447 7.04627 8.00287 7.048 8.16735 7.05627C8.18764 7.05728 8.20875 7.05716 8.23058 7.05703C8.39508 7.05607 8.60018 7.05487 8.8025 7.54086C8.88034 7.72789 8.99424 8.00518 9.11436 8.29763C9.35728 8.88901 9.62566 9.5424 9.67288 9.63696C9.74347 9.77827 9.79051 9.94306 9.69641 10.1316C9.68229 10.1598 9.66922 10.1865 9.65674 10.212C9.58607 10.3563 9.53408 10.4624 9.41413 10.6024C9.36696 10.6575 9.31821 10.7169 9.26946 10.7763C9.17234 10.8945 9.07523 11.0128 8.99067 11.097C8.84934 11.2378 8.70223 11.3905 8.8669 11.6732C9.03157 11.9558 9.59813 12.8802 10.4373 13.6288C11.3395 14.4334 12.1235 14.7735 12.521 14.9459C12.5986 14.9796 12.6614 15.0068 12.7076 15.0299C12.9897 15.1713 13.1544 15.1476 13.3191 14.9593C13.4838 14.7709 14.0248 14.1349 14.213 13.8524C14.4011 13.5698 14.5894 13.6169 14.8481 13.7111C15.1069 13.8054 16.4948 14.4882 16.7771 14.6295C16.8322 14.6571 16.8838 14.682 16.9315 14.7051Z" />
</svg>
