<svg width="21" height="15" viewBox="0 0 21 15" fill="none" xmlns="http://www.w3.org/2000/svg">
<path d="M19.6308 2.55531C19.41 1.70705 18.7594 1.03909 17.9332 0.812387C16.4361 0.400391 10.432 0.400391 10.432 0.400391C10.432 0.400391 4.42799 0.400391 2.93072 0.812387C2.10458 1.03909 1.45396 1.70705 1.23316 2.55531C0.832031 4.09267 0.832031 7.30039 0.832031 7.30039C0.832031 7.30039 0.832031 10.508 1.23316 12.0455C1.45396 12.8937 2.10458 13.5617 2.93072 13.7885C4.42799 14.2004 10.432 14.2004 10.432 14.2004C10.432 14.2004 16.4361 14.2004 17.9332 13.7885C18.7594 13.5617 19.41 12.8937 19.6308 12.0455C20.032 10.508 20.032 7.30039 20.032 7.30039C20.032 7.30039 20.032 4.09267 19.6308 2.55531Z" fill="#F6880B"/>
<path d="M8.63281 10.5996V4.59961L13.4328 7.59972L8.63281 10.5996Z" fill="#F1F3F4"/>
</svg>
