<svg width="32" height="23" viewBox="0 0 32 23" fill="none" xmlns="http://www.w3.org/2000/svg">
<path d="M31.0182 4.19804C30.6617 2.82846 29.6112 1.74998 28.2773 1.38395C25.86 0.71875 16.166 0.71875 16.166 0.71875C16.166 0.71875 6.472 0.71875 4.05453 1.38395C2.72065 1.74998 1.67017 2.82846 1.31367 4.19804C0.666016 6.68024 0.666016 11.8594 0.666016 11.8594C0.666016 11.8594 0.666016 17.0383 1.31367 19.5207C1.67017 20.8903 2.72065 21.9688 4.05453 22.335C6.472 23 16.166 23 16.166 23C16.166 23 25.86 23 28.2773 22.335C29.6112 21.9688 30.6617 20.8903 31.0182 19.5207C31.666 17.0383 31.666 11.8594 31.666 11.8594C31.666 11.8594 31.666 6.68024 31.0182 4.19804Z" fill="#FF0000"/>
<path d="M13.502 16.6614V6.97388L21.252 11.8178L13.502 16.6614Z" fill="white"/>
</svg>
