<svg width="79" height="48" viewBox="0 0 79 48" fill="none" xmlns="http://www.w3.org/2000/svg">
<path d="M7.44707 39.9292H1.48633V25.4753C1.48633 24.6646 1.79415 23.878 2.35715 23.2453L13.721 9.55096C14.3029 8.89667 15.1846 8.51758 16.1161 8.51758H25.039V39.9306H21.7488" stroke="#2C3034" stroke-width="2.89703" stroke-linecap="round" stroke-linejoin="round"/>
<path d="M54.3643 39.929H29.3359V6.99696C29.3359 4.42294 31.4246 2.33594 34.0006 2.33594H72.7258C75.3018 2.33594 77.3904 4.42294 77.3904 6.99696V39.929H68.8334" stroke="#2C3034" stroke-width="2.89703" stroke-linecap="round" stroke-linejoin="round"/>
<path d="M15.7393 14.5938H20.1757V23.1225H8.86719L15.7393 14.5938Z" stroke="#2C3034" stroke-width="1.99013" stroke-linecap="round" stroke-linejoin="round"/>
<path d="M16.5897 45.5481C19.6498 44.2816 21.1029 40.7761 19.8354 37.7184C18.5679 34.6608 15.0597 33.2088 11.9997 34.4753C8.93963 35.7418 7.4865 39.2473 8.75401 42.305C10.0215 45.3626 13.5297 46.8146 16.5897 45.5481Z" stroke="#2C3034" stroke-width="2.89703" stroke-linecap="round" stroke-linejoin="round"/>
<path d="M63.8026 45.5481C66.8627 44.2816 68.3158 40.7761 67.0483 37.7185C65.7808 34.6608 62.2726 33.2088 59.2126 34.4753C56.1525 35.7418 54.6994 39.2473 55.9669 42.305C57.2344 45.3626 60.7426 46.8146 63.8026 45.5481Z" stroke="#2C3034" stroke-width="2.89703" stroke-linecap="round" stroke-linejoin="round"/>
</svg>
