<svg width="93" height="45" viewBox="0 0 93 45" fill="none" xmlns="http://www.w3.org/2000/svg">
<path d="M38.5 36H2V6.21553C2 3.88753 2.31006 2 7.081 2H85.8364C90.6074 2 91 3.88753 91 6.21553V36H75" stroke="#2C3034" stroke-width="2.89703" stroke-linecap="round" stroke-linejoin="round"/>
<path d="M71.6925 42.4687C74.3182 41.382 75.565 38.3742 74.4774 35.7506C73.3899 33.127 70.3797 31.8811 67.7541 32.9679C65.1285 34.0546 63.8816 37.0624 64.9692 39.686C66.0568 42.3096 69.0669 43.5554 71.6925 42.4687Z" stroke="#2C3034" stroke-width="2.89703" stroke-linecap="round" stroke-linejoin="round"/>
<path d="M58.8957 42.2612C61.5213 41.1745 62.7681 38.1667 61.6805 35.5431C60.593 32.9195 57.5829 31.6736 54.9572 32.7603C52.3316 33.8471 51.0848 36.8549 52.1723 39.4785C53.2599 42.102 56.27 43.3479 58.8957 42.2612Z" stroke="#2C3034" stroke-width="2.89703" stroke-linecap="round" stroke-linejoin="round"/>
<path d="M45.6925 42.4687C48.3182 41.382 49.565 38.3742 48.4774 35.7506C47.3899 33.127 44.3797 31.8811 41.7541 32.9679C39.1285 34.0546 37.8816 37.0624 38.9692 39.686C40.0568 42.3096 43.0669 43.5554 45.6925 42.4687Z" stroke="#2C3034" stroke-width="2.89703" stroke-linecap="round" stroke-linejoin="round"/>
<path d="M12 41.9658V37.9999" stroke="#2C3034" stroke-width="2.9" stroke-linecap="round"/>
<path d="M11 43H13" stroke="#2C3034" stroke-width="1.99" stroke-linecap="round"/>
<path d="M90 40V37" stroke="#2C3034" stroke-width="1.99" stroke-linecap="round"/>
<path d="M92 40L86 40" stroke="#2C3034" stroke-width="1.99" stroke-linecap="round"/>
<path d="M28 8L7 8" stroke="#2C3034" stroke-width="1.99" stroke-linecap="round"/>
<path d="M20 13L7 13" stroke="#2C3034" stroke-width="1.99" stroke-linecap="round"/>
</svg>
