<svg width="90" height="60" viewBox="0 0 90 60" fill="none" xmlns="http://www.w3.org/2000/svg">
<path d="M83.5356 50.8033H88.1637V35.555C88.1637 34.1187 87.1161 32.8966 85.6962 32.6783L80.8594 31.9336" stroke="#2C3034" stroke-width="2.98714" stroke-linecap="round" stroke-linejoin="round"/>
<path d="M35.4358 36.4595L34.3432 47.7426C34.185 49.3835 35.474 50.8034 37.1217 50.8034H67.7588" stroke="#2C3034" stroke-width="2.98714" stroke-linecap="round" stroke-linejoin="round"/>
<path d="M35.65 16.6552L42.2695 36.5152C42.9583 38.5831 44.8939 39.9784 47.0749 39.9784H53.7463C54.7911 39.9784 55.8182 39.722 56.7417 39.2337L83.2499 25.1762C84.6153 24.4519 85.3123 22.8901 84.9372 21.3897L81.1234 6.13183C80.5192 3.71344 78.2658 2.07662 75.7792 2.24985L49.0541 4.10627C47.7733 4.19494 46.5498 4.66279 45.5363 5.45119L37.044 12.0571C35.6513 13.1401 35.0934 14.9829 35.6513 16.6566L35.65 16.6552Z" stroke="#2C3034" stroke-width="2.98714" stroke-linecap="round" stroke-linejoin="round"/>
<path d="M74.5578 24.2271C76.281 22.5039 76.281 19.71 74.5578 17.9868C72.8345 16.2636 70.0407 16.2635 68.3174 17.9868C66.5942 19.71 66.5942 22.5039 68.3174 24.2271C70.0407 25.9503 72.8345 25.9503 74.5578 24.2271Z" stroke="#2C3034" stroke-width="1.99143" stroke-linecap="round" stroke-linejoin="round"/>
<path d="M8.82143 50.8032H2V34.1664C2 33.2334 2.35328 32.3277 3.00119 31.5993L16.0725 15.8368C16.7423 15.0838 17.7557 14.646 18.8265 14.646H29.0893V50.8032H24.7681" stroke="#2C3034" stroke-width="2.98714" stroke-linecap="round" stroke-linejoin="round"/>
<path d="M18.3933 21.6392H23.4961V31.4573H10.4902L18.3933 21.6392Z" stroke="#2C3034" stroke-width="1.99143" stroke-linecap="round" stroke-linejoin="round"/>
<path d="M16.7338 57.7951C20.5433 57.7951 23.6316 54.7069 23.6316 50.8973C23.6316 47.0878 20.5433 43.9995 16.7338 43.9995C12.9242 43.9995 9.83594 47.0878 9.83594 50.8973C9.83594 54.7069 12.9242 57.7951 16.7338 57.7951Z" stroke="#2C3034" stroke-width="2.98714" stroke-linecap="round" stroke-linejoin="round"/>
<path d="M75.7806 57.7951C79.5902 57.7951 82.6784 54.7069 82.6784 50.8973C82.6784 47.0878 79.5902 43.9995 75.7806 43.9995C71.9711 43.9995 68.8828 47.0878 68.8828 50.8973C68.8828 54.7069 71.9711 57.7951 75.7806 57.7951Z" stroke="#2C3034" stroke-width="2.98714" stroke-linecap="round" stroke-linejoin="round"/>
</svg>
