<svg width="86" height="56" viewBox="0 0 86 56" fill="none" xmlns="http://www.w3.org/2000/svg">
<path d="M76.8787 14.1641C76.8787 14.1641 81.8687 19.9126 81.8687 22.6683C81.8687 25.4241 79.6344 27.6583 76.8787 27.6583C74.123 27.6583 71.8887 25.4241 71.8887 22.6683" stroke="#2C3034" stroke-width="2.98429" stroke-linecap="round" stroke-linejoin="round"/>
<path d="M9.41707 47.3542H1.91992V32.6614C1.91992 31.8371 2.23135 31.0371 2.80421 30.3942L14.3485 16.4728C14.9399 15.8085 15.8342 15.4214 16.7814 15.4214H25.8456V47.3542H22.3042" stroke="#2C3034" stroke-width="2.98429" stroke-linecap="round" stroke-linejoin="round"/>
<path d="M16.396 21.5981H20.9017V30.2681H9.41602L16.396 21.5981Z" stroke="#2C3034" stroke-width="1.99" stroke-linecap="round" stroke-linejoin="round"/>
<path d="M61.3276 47.354H30.209V9.58545" stroke="#2C3034" stroke-width="2.98429" stroke-linecap="round" stroke-linejoin="round"/>
<path d="M61.3276 47.354H30.209V35.7583H81.3333C82.7204 35.7583 83.8433 36.8826 83.8433 38.2683L83.9618 47.354H76.1904" stroke="#2C3034" stroke-width="2.98429" stroke-linecap="round" stroke-linejoin="round"/>
<path d="M36.6348 24.614L76.1891 1.77832" stroke="#2C3034" stroke-width="2.98429" stroke-linecap="round" stroke-linejoin="round"/>
<path d="M39.8477 30.1785L79.4019 7.34277" stroke="#2C3034" stroke-width="2.98429" stroke-linecap="round" stroke-linejoin="round"/>
<path d="M42.3457 22.8369L44.9 27.2612" stroke="#2C3034" stroke-width="1.99" stroke-linecap="round" stroke-linejoin="round"/>
<path d="M49.6387 18.6284L52.193 23.0513" stroke="#2C3034" stroke-width="1.99" stroke-linecap="round" stroke-linejoin="round"/>
<path d="M56.9297 14.4185L59.484 18.8413" stroke="#2C3034" stroke-width="1.99" stroke-linecap="round" stroke-linejoin="round"/>
<path d="M64.2207 10.2085L66.775 14.6314" stroke="#2C3034" stroke-width="1.99" stroke-linecap="round" stroke-linejoin="round"/>
<path d="M71.5137 5.99854L74.068 10.4228" stroke="#2C3034" stroke-width="1.99" stroke-linecap="round" stroke-linejoin="round"/>
<path d="M16.2125 54.1213C19.5767 54.1213 22.304 51.3941 22.304 48.0299C22.304 44.6657 19.5767 41.9385 16.2125 41.9385C12.8483 41.9385 10.1211 44.6657 10.1211 48.0299C10.1211 51.3941 12.8483 54.1213 16.2125 54.1213Z" stroke="#2C3034" stroke-width="2.98429" stroke-linecap="round" stroke-linejoin="round"/>
<path d="M74.4504 48.0299C74.4504 51.3942 71.7233 54.1213 68.359 54.1213C64.9947 54.1213 62.2676 51.3942 62.2676 48.0299C62.2676 44.6656 64.9947 41.9385 68.359 41.9385C71.7233 41.9385 74.4504 44.6656 74.4504 48.0299Z" stroke="#2C3034" stroke-width="2.98429" stroke-linecap="round" stroke-linejoin="round"/>
</svg>
