<svg width="82" height="48" viewBox="0 0 82 48" fill="none" xmlns="http://www.w3.org/2000/svg">
<path d="M28.9294 46.2856C33.5449 46.2856 37.2866 42.544 37.2866 37.9284C37.2866 33.3129 33.5449 29.5713 28.9294 29.5713C24.3139 29.5713 20.5723 33.3129 20.5723 37.9284C20.5723 42.544 24.3139 46.2856 28.9294 46.2856Z" stroke="#2C3034" stroke-width="2.98429" stroke-linecap="round" stroke-linejoin="round"/>
<path d="M60.5717 40.4284C60.5717 43.6633 57.9495 46.2856 54.7146 46.2856C51.4797 46.2856 48.8574 43.6633 48.8574 40.4284C48.8574 37.1935 51.4797 34.5713 54.7146 34.5713C57.9495 34.5713 60.5717 37.1935 60.5717 40.4284Z" stroke="#2C3034" stroke-width="2.98429" stroke-linecap="round" stroke-linejoin="round"/>
<path d="M65.4882 29.7512C65.0019 29.8428 64.6464 30.2212 64.6264 30.6716C64.5277 32.8753 64.4154 36.5952 65.7514 39.3006C67.6795 43.2042 70.8099 45.2054 74.2856 45.2807C76.605 45.3306 78.1898 45.023 78.983 44.814C79.3334 44.7218 79.5723 44.4278 79.5723 44.0961V43.1523C79.5723 42.7278 79.1846 42.3864 78.7176 42.4039C77.7342 42.4403 76.188 42.426 75.6624 42.0242C74.1383 40.8584 68.9561 32.4638 67.4986 30.0771C67.269 29.7013 66.797 29.5052 66.3328 29.5922L65.4875 29.7512H65.4882Z" stroke="#2C3034" stroke-width="2.98714" stroke-linecap="round" stroke-linejoin="round"/>
<path d="M13.0704 8.9285L13.9276 4.4285L20.9991 6.14279L27.5706 11.1428L27.5705 20.1428L19.8563 11.2857L13.0704 8.9285Z" stroke="#2C3034" stroke-width="2.98857" stroke-linecap="round" stroke-linejoin="round"/>
<path d="M6.84536 25.1431C6.84536 25.1431 1.81427 26.0433 2.15865 32.6452C2.37971 36.8833 5.93538 38.8885 10.2056 38.857C11.9585 38.844 15.5703 37.7926 15.5703 37.7926L12.3869 34.0256C12.3869 34.0256 11.9742 28.474 11.7679 26.0433C11.5786 25.6958 6.84536 25.1431 6.84536 25.1431Z" stroke="#2C3034" stroke-width="2.98714" stroke-linecap="round" stroke-linejoin="round"/>
<path d="M7.14258 20.8573C7.14258 20.8573 7.99993 8.52434 7.99971 4.12528C7.99961 1.85516 14.3179 1.87123 13.9872 4.12528C13.3129 8.72082 10.2854 20.8573 10.2854 20.8573L7.14258 20.8573Z" stroke="#2C3034" stroke-width="2.98857" stroke-linecap="round" stroke-linejoin="round"/>
<path d="M44.3827 10.4287H32.967C32.0391 10.4287 31.2865 11.1916 31.2865 12.1322V29.5716H50.5723V20.7638C50.5723 20.2692 50.166 19.4245 49.8821 18.891C48.8133 16.8809 46.5203 11.4731 46.5203 11.4731C46.0325 10.4287 45.1453 10.4287 44.3827 10.4287Z" stroke="#2C3034" stroke-width="2.98714" stroke-linecap="round" stroke-linejoin="round"/>
<path d="M43.2581 14.4287H35.714V24.4287H45.1426L43.2581 14.4287Z" stroke="#2C3034" stroke-width="1.99143" stroke-linecap="round" stroke-linejoin="round"/>
<path d="M60.5723 30.143V26.5233V24.4287H52.0008" stroke="#2C3034" stroke-width="2.98714" stroke-linecap="round" stroke-linejoin="round"/>
<path d="M43.1219 40.4289L43.2137 34.5718H45.7852H41.2852" stroke="#2C3034" stroke-width="2.98714" stroke-linecap="round" stroke-linejoin="round"/>
<path d="M17.7143 32.1432L19.7143 29.5718H29" stroke="#2C3034" stroke-width="2.98714" stroke-linecap="round" stroke-linejoin="round"/>
</svg>
