<svg width="92" height="55" viewBox="0 0 92 55" fill="none" xmlns="http://www.w3.org/2000/svg">
<path d="M77.8618 45.7546H23.707V36.9634H75.159C76.6522 36.9634 77.8618 38.173 77.8618 39.6662V45.7546Z" stroke="#2C3034" stroke-width="2.98714" stroke-linecap="round" stroke-linejoin="round"/>
<path d="M49.1778 36.9634H29.5215V48.8647H49.1778V36.9634Z" fill="#F1F3F4" stroke="#2C3034" stroke-width="2.98714" stroke-linecap="round" stroke-linejoin="round"/>
<path d="M25.3103 12.5938H9.09866C7.87157 12.5938 6.7735 13.3545 6.34207 14.5036L2.24414 25.4305V45.7549H25.3103V12.5938Z" fill="#F1F3F4" stroke="#2C3034" stroke-width="2.98714" stroke-linecap="round" stroke-linejoin="round"/>
<path d="M18.0888 16.3149H9.86473L6.73047 25.6304H18.0888V16.3149Z" stroke="#2C3034" stroke-width="1.99143" stroke-linecap="round" stroke-linejoin="round"/>
<path d="M18.592 53.2099C23.0784 53.2099 26.7153 49.573 26.7153 45.0867C26.7153 40.6003 23.0784 36.9634 18.592 36.9634C14.1057 36.9634 10.4688 40.6003 10.4688 45.0867C10.4688 49.573 14.1057 53.2099 18.592 53.2099Z" fill="#F1F3F4" stroke="#2C3034" stroke-width="2.98714" stroke-linecap="round" stroke-linejoin="round"/>
<path d="M66.0842 53.2099C70.5706 53.2099 74.2075 49.573 74.2075 45.0867C74.2075 40.6003 70.5706 36.9634 66.0842 36.9634C61.5979 36.9634 57.9609 40.6003 57.9609 45.0867C57.9609 49.573 61.5979 53.2099 66.0842 53.2099Z" fill="#F1F3F4" stroke="#2C3034" stroke-width="2.98714" stroke-linecap="round" stroke-linejoin="round"/>
<path d="M16.2871 2V6.09121H27.9129L36.309 32.3575H79.2425C80.178 32.3575 81.104 32.168 81.9642 31.7984L89.7031 28.4813L84.9009 15.2843C84.2947 13.6177 82.7101 12.5089 80.936 12.5089H41.9069L33.2957 2H16.2871Z" stroke="#2C3034" stroke-width="2.98714" stroke-linecap="round" stroke-linejoin="round"/>
<path d="M42.7676 27.6211H80.2296" stroke="#2C3034" stroke-width="1.99143" stroke-linecap="round" stroke-linejoin="round"/>
<path d="M41.2598 17.9995L44.2731 26.5569" stroke="#2C3034" stroke-width="1.99143" stroke-linecap="round" stroke-linejoin="round"/>
<path d="M50.0332 17.5234L53.0479 26.0808" stroke="#2C3034" stroke-width="1.99143" stroke-linecap="round" stroke-linejoin="round"/>
<path d="M58.8066 17.5234L61.8213 26.0808" stroke="#2C3034" stroke-width="1.99143" stroke-linecap="round" stroke-linejoin="round"/>
<path d="M67.582 17.5234L70.5967 26.0808" stroke="#2C3034" stroke-width="1.99143" stroke-linecap="round" stroke-linejoin="round"/>
<path d="M76.3535 17.5234L80.5684 27.2824" stroke="#2C3034" stroke-width="1.99143" stroke-linecap="round" stroke-linejoin="round"/>
</svg>
