<svg width="94" height="51" viewBox="0 0 94 51" fill="none" xmlns="http://www.w3.org/2000/svg">
<path d="M82.1016 40.9875H92.0773V35.0946C92.0773 31.236 88.9488 28.1075 85.0902 28.1075H31.6545V1.49316H20.4445C19.2745 1.49316 18.1673 1.97174 17.4359 2.79316L3.15874 20.0117C2.45017 20.8075 2.06445 21.796 2.06445 22.816V40.9875H9.5916" stroke="#2C3034" stroke-width="2.98714" stroke-linecap="round" stroke-linejoin="round"/>
<path d="M27.7695 40.9873H31.6552H64.591" stroke="#2C3034" stroke-width="2.98714" stroke-linecap="round" stroke-linejoin="round"/>
<path d="M19.9707 9.1333H25.5436V19.8562H11.3379L19.9707 9.1333Z" stroke="#2C3034" stroke-width="1.99143" stroke-linecap="round" stroke-linejoin="round"/>
<path d="M18.6847 48.6247C22.8457 48.6247 26.219 45.2515 26.219 41.0904C26.219 36.9294 22.8457 33.5562 18.6847 33.5562C14.5236 33.5562 11.1504 36.9294 11.1504 41.0904C11.1504 45.2515 14.5236 48.6247 18.6847 48.6247Z" stroke="#2C3034" stroke-width="2.98714" stroke-linecap="round" stroke-linejoin="round"/>
<path d="M72.1241 48.6247C76.2852 48.6247 79.6584 45.2515 79.6584 41.0904C79.6584 36.9294 76.2852 33.5562 72.1241 33.5562C67.9631 33.5562 64.5898 36.9294 64.5898 41.0904C64.5898 45.2515 67.9631 48.6247 72.1241 48.6247Z" stroke="#2C3034" stroke-width="2.98714" stroke-linecap="round" stroke-linejoin="round"/>
</svg>
