<svg width="92" height="53" viewBox="0 0 92 53" fill="none" xmlns="http://www.w3.org/2000/svg">
<path d="M3.27002 12.4268C3.27002 14.0449 1.51758 15.0222 1.51758 17.7519C1.51758 20.1784 5.29237 20.3127 5.69657 18.0883" stroke="#2C3034" stroke-width="2.98857" stroke-linecap="round" stroke-linejoin="round"/>
<path d="M33.7384 10.8685H16.7898L11.9766 25.0968V43.3006H90.4441V37.5234C90.4441 34.4732 87.9723 32.0015 84.9221 32.0015H40.6432L37.0864 23.2127V10.8672H33.7384V10.8685Z" stroke="#2C3034" stroke-width="2.98857" stroke-linecap="round" stroke-linejoin="round"/>
<path d="M33.4766 12.3325V35.7684H89.1889" stroke="#2C3034" stroke-width="1.99286" stroke-linecap="round" stroke-linejoin="round"/>
<path d="M26.8347 14.8442H19.7465L16.582 25.3057H26.8347V14.8442Z" stroke="#2C3034" stroke-width="1.99286" stroke-linecap="round" stroke-linejoin="round"/>
<path d="M61.5682 5.63672H3.60742V10.8674H61.5682V5.63672Z" stroke="#2C3034" stroke-width="2.98857" stroke-linecap="round" stroke-linejoin="round"/>
<path d="M74.5932 2H60.1549L57.6445 17.4847V27.7374H90.0766V12.2527H74.8019L74.5932 2Z" fill="#F1F3F4" stroke="#2C3034" stroke-width="2.98857" stroke-linecap="round" stroke-linejoin="round"/>
<path d="M70.1986 5.34814H63.5026L62.1172 14.8695H70.1986V5.34814Z" stroke="#2C3034" stroke-width="1.99286" stroke-linecap="round" stroke-linejoin="round"/>
<path d="M77.3906 16.647V21.4602" stroke="#2C3034" stroke-width="1.99286" stroke-linecap="round" stroke-linejoin="round"/>
<path d="M81.3672 16.647V21.4602" stroke="#2C3034" stroke-width="1.99286" stroke-linecap="round" stroke-linejoin="round"/>
<path d="M85.1328 16.647V21.4602" stroke="#2C3034" stroke-width="1.99286" stroke-linecap="round" stroke-linejoin="round"/>
<path d="M31.8662 47.9137C34.6447 45.1352 34.6447 40.6304 31.8662 37.8519C29.0877 35.0734 24.5829 35.0734 21.8044 37.8519C19.0259 40.6304 19.0259 45.1352 21.8044 47.9137C24.5829 50.6922 29.0877 50.6922 31.8662 47.9137Z" fill="#F1F3F4" stroke="#2C3034" stroke-width="2.98857" stroke-linecap="round" stroke-linejoin="round"/>
<path d="M71.5236 44.0256C72.1532 40.147 69.5193 36.4924 65.6407 35.8628C61.7621 35.2332 58.1075 37.8671 57.4779 41.7457C56.8483 45.6243 59.4821 49.2789 63.3608 49.9085C67.2394 50.5381 70.894 47.9043 71.5236 44.0256Z" fill="#F1F3F4" stroke="#2C3034" stroke-width="2.98857" stroke-linecap="round" stroke-linejoin="round"/>
<path d="M87.6369 44.0247C88.2665 40.146 85.6326 36.4914 81.754 35.8618C77.8754 35.2322 74.2207 37.8661 73.5911 41.7447C72.9616 45.6233 75.5954 49.278 79.474 49.9076C83.3527 50.5371 87.0073 47.9033 87.6369 44.0247Z" fill="#F1F3F4" stroke="#2C3034" stroke-width="2.98857" stroke-linecap="round" stroke-linejoin="round"/>
</svg>
