<svg width="100" height="60" viewBox="0 0 100 60" fill="none" xmlns="http://www.w3.org/2000/svg">
<path d="M81.8788 50.0207L62.6523 50.0195V36.3046C62.6523 35.5353 62.9444 34.789 63.4786 34.1886L74.2615 21.1944C74.8136 20.5736 75.6502 20.2139 76.5341 20.2139H85.0008V50.0207H81.8788Z" stroke="#2C3034" stroke-width="2.89703" stroke-linecap="round" stroke-linejoin="round"/>
<path d="M76.1769 25.979H80.3866V34.0717H69.6562L76.1769 25.979Z" stroke="#2C3034" stroke-width="1.99013" stroke-linecap="round" stroke-linejoin="round"/>
<path d="M59.7812 36.4731H62.3318V39.3425L59.7812 38.0672V36.4731Z" stroke="#2C3034" stroke-width="1.99013" stroke-linecap="round" stroke-linejoin="round"/>
<path d="M57.5508 36.7666H55.0003V33.8973L57.5508 35.1725V36.7666Z" stroke="#2C3034" stroke-width="1.99013" stroke-linecap="round" stroke-linejoin="round"/>
<path d="M66.223 19.5762C67.9483 21.417 69.383 22.0634 72.9181 22.4455L64.2463 33.2852C64.2463 33.2852 61.5912 32.8157 60.1018 32.0099C58.8532 31.3345 57.2324 29.7782 57.2324 29.7782L66.223 19.5762Z" stroke="#2C3034" stroke-width="1.99013" stroke-linecap="round" stroke-linejoin="round"/>
<path d="M84.9681 20.2135L77.3166 17.0254C77.3166 17.0254 68.7086 16.866 68.0709 17.3442C66.7957 18.3007 55.3184 32.0097 55.3184 32.0097L55.3184 45.3999L62.3323 49.8633" stroke="#2C3034" stroke-width="2.98714" stroke-linecap="round" stroke-linejoin="round"/>
<path d="M35.6249 15.808L35.624 15.808C33.3188 15.8106 31.1079 16.7182 29.4766 18.3331C27.8452 19.9481 26.9268 22.1387 26.9242 24.4244L26.9242 24.433L26.9246 24.4416C27.4018 35.8538 43.8489 35.8499 44.3244 24.4415L44.3248 24.4329L44.3247 24.4244C44.3221 22.1386 43.4037 19.9481 41.7723 18.3331C40.141 16.7182 37.9302 15.8106 35.6249 15.808ZM35.6245 31.2153C33.8036 31.2131 32.0587 30.496 30.7724 29.2226C29.4881 27.9512 28.7655 26.229 28.7611 24.433C29.1466 15.4169 42.1037 15.4189 42.4878 24.433C42.4835 26.229 41.7609 27.9512 40.4766 29.2226C39.1902 30.496 37.4454 31.2131 35.6245 31.2153Z" fill="#2C3034" stroke="#2C3034" stroke-width="0.8"/>
<path d="M50.0399 19.491L50.0394 19.4894C49.6315 18.3089 49.0779 17.1843 48.3918 16.1415L48.69 15.8435L48.6903 15.8432C49.037 15.4961 49.2318 15.0256 49.2318 14.5351C49.2318 14.0445 49.037 13.5741 48.6903 13.2269L48.69 13.2267L46.0597 10.5981L46.0598 10.598L46.0529 10.5914C45.7019 10.257 45.2355 10.0705 44.7507 10.0705C44.2658 10.0705 43.7995 10.257 43.4484 10.5914L43.4484 10.5913L43.4416 10.5981L42.9439 11.0955C41.7738 10.4464 40.5216 9.95636 39.2206 9.63874L39.2203 9.63865C39.0184 9.58956 38.808 9.5872 38.6051 9.63175C38.4084 9.67494 38.2237 9.76113 38.0644 9.88406C37.6381 10.1706 37.5445 10.6684 37.5202 11.0331C37.5077 11.2192 37.5115 11.4068 37.5163 11.57C29.8102 10.3747 22.519 16.5775 22.6007 24.451C22.6051 27.9004 23.9782 31.2071 26.4188 33.6461C28.8592 36.0849 32.1677 37.4569 35.6187 37.4616C43.9637 37.5887 50.3564 29.3117 48.2621 21.3319L48.7331 21.332L48.7378 21.3319C48.9578 21.3293 49.1741 21.2747 49.3689 21.1724C49.5638 21.0702 49.7316 20.9232 49.8587 20.7436C49.9858 20.564 50.0684 20.3568 50.0999 20.1391C50.1315 19.9214 50.1109 19.6992 50.0399 19.491ZM44.4751 12.063L44.6859 11.8523C44.7036 11.8365 44.7266 11.8277 44.7505 11.8277C44.7745 11.8277 44.7975 11.8365 44.8152 11.8523L47.4403 14.4754C47.4403 14.4755 47.4403 14.4755 47.4404 14.4755C47.4562 14.4914 47.465 14.5128 47.465 14.5351C47.465 14.5573 47.4562 14.5787 47.4405 14.5945C47.4404 14.5946 47.4404 14.5947 47.4403 14.5947L47.3265 14.7085C46.4911 13.7103 45.5331 12.8214 44.4751 12.063ZM46.3662 21.1341C46.7018 22.2042 46.8738 23.319 46.8763 24.4407C46.2511 39.3667 24.9907 39.3665 24.3676 24.4381C24.2929 17.4712 30.9517 12.0097 37.7639 13.4091L38.2621 13.7378C38.298 13.9494 38.383 14.1509 38.5115 14.3255C38.685 14.5612 38.9287 14.7357 39.2076 14.824C40.4172 15.2169 41.533 15.8539 42.4861 16.6955C43.4394 17.5373 44.2094 18.5658 44.7485 19.7173C44.8591 19.9555 45.0352 20.1575 45.2561 20.2995C45.4237 20.4073 45.6119 20.4772 45.8077 20.5055L46.3662 21.1341ZM48.0757 19.3501L46.2721 18.8078C45.6319 17.4996 44.7402 16.3295 43.6472 15.3646C42.5631 14.4076 41.303 13.6718 39.9379 13.198L39.4737 11.5378C41.4131 12.1208 43.1992 13.1338 44.6972 14.5045C46.1703 15.8525 47.323 17.5083 48.0757 19.3501Z" fill="#2C3034" stroke="#2C3034" stroke-width="0.8"/>
<path d="M35.5937 21.9669L35.5937 21.9667L35.5873 21.9669C32.3424 22.0708 32.3432 26.8065 35.5874 26.9099L35.5874 26.9101L35.5938 26.9099C38.8387 26.806 38.8379 22.0703 35.5937 21.9669ZM36.4962 25.3555C36.2565 25.5993 35.9311 25.7382 35.5905 25.7422C35.25 25.7381 34.9246 25.5993 34.6849 25.3555C34.4449 25.1114 34.3103 24.7819 34.3103 24.4384C34.3103 24.0949 34.445 23.7653 34.6849 23.5213C34.9246 23.2775 35.25 23.1386 35.5906 23.1346C35.9311 23.1387 36.2565 23.2775 36.4962 23.5213C36.7361 23.7653 36.8708 24.0949 36.8708 24.4384C36.8708 24.7819 36.7361 25.1115 36.4962 25.3555Z" fill="#2C3034" stroke="#2C3034" stroke-width="0.2"/>
<path d="M38.1509 54.7848C40.9925 54.7848 43.2948 52.4825 43.2933 49.6424C43.2917 46.8023 40.9869 44.5 38.1452 44.5C35.3036 44.5 33.0013 46.8023 33.0028 49.6424C33.0044 52.4825 35.3092 54.7848 38.1509 54.7848Z" stroke="#2C3034" stroke-width="2.89703" stroke-linecap="round" stroke-linejoin="round"/>
<rect x="27.413" y="43.141" width="4.01" height="11.3045" rx="1.005" transform="rotate(20 27.413 43.141)" stroke="#2C3034" stroke-width="1.99"/>
<rect x="20.413" y="43.141" width="4.01" height="11.3045" rx="1.005" transform="rotate(20 20.413 43.141)" stroke="#2C3034" stroke-width="1.99"/>
<rect x="13.413" y="43.141" width="4.01" height="11.3045" rx="1.005" transform="rotate(20 13.413 43.141)" stroke="#2C3034" stroke-width="1.99"/>
<circle cx="31" cy="24.3999" r="1" fill="#2C3034"/>
<circle cx="40.1992" cy="24.3999" r="1" fill="#2C3034"/>
<circle cx="35.5996" cy="19.7998" r="1" fill="#2C3034"/>
<circle cx="35.5996" cy="29" r="1" fill="#2C3034"/>
</svg>
