<svg width="100" height="60" viewBox="0 0 100 60" fill="none" xmlns="http://www.w3.org/2000/svg">
<path d="M74.45 50.1942C74.45 47.0663 77.0828 44.45 80.4048 44.45C83.7268 44.45 86.3596 47.0663 86.3596 50.1942C86.3596 53.3221 83.7268 55.9384 80.4048 55.9384C77.0828 55.9384 74.45 53.3221 74.45 50.1942Z" stroke="#2C3034" stroke-width="2.9"/>
<path d="M90.2269 36.5343C89.7627 36.1131 89.5664 35.9551 76.7384 35.9264C76.5278 26.2767 76.1449 16.4977 75.604 6.84322L78.2797 6.80492C79.0551 6.79535 79.6726 6.15875 79.663 5.38332C79.6534 4.6079 78.9976 4.01915 78.2414 4L53.7389 4.35899C52.9635 4.36857 52.3461 5.00519 52.3556 5.78062C52.3652 6.54647 52.9923 7.16391 53.7581 7.16391H53.7772L59.7652 7.07776C54.6723 16.5647 49.68 26.2384 44.9317 35.8737C44.903 35.9312 44.8886 35.9886 44.8647 36.0461C43.1798 36.0652 41.6242 36.0796 40.2361 36.0987L40.7578 10.1172L44.0653 10.0598C44.8407 10.0454 45.4582 9.40881 45.4439 8.63339C45.4295 7.85797 44.7785 7.23093 44.0174 7.25486L35.0331 7.40324C34.2577 7.4176 33.6402 8.05423 33.6545 8.82966C33.6689 9.59551 34.2912 10.2082 35.057 10.2082H35.0809L37.9481 10.1603L37.4024 37.2427C37.3833 37.3384 37.3737 37.4389 37.3737 37.5443C37.3737 37.6017 37.3833 37.6591 37.3928 37.7166L37.3354 40.6316C37.3211 41.407 37.9337 42.0484 38.7092 42.0628H38.7379C38.8384 42.0628 38.9341 42.0532 39.0298 42.0293C42.5288 42.0676 44.9939 42.886 46.3341 44.4752C48.0669 46.5286 47.5643 49.5059 47.3968 50.4823C47.325 50.8987 47.4446 51.32 47.7222 51.6407C47.9903 51.947 48.3732 52.1193 48.7753 52.1193C48.7896 52.1193 48.8088 52.1193 48.8232 52.1193C57.3528 51.8226 65.6336 51.7268 73.6415 51.6311H73.7276C74.5031 51.6215 75.1205 50.9849 75.111 50.2095C75.1014 49.4388 74.4744 48.8262 73.7085 48.8262H73.608C66.0979 48.9123 58.3484 49.0033 50.3644 49.2618C50.4889 47.462 50.2974 44.839 48.4642 42.6659C46.7362 40.622 43.9408 39.4876 40.1547 39.2674V38.9084C53.9208 38.7169 83.2146 38.6499 88.2884 38.8893C88.8771 40.8422 89.8632 46.1696 88.6378 47.9167C88.4511 48.1848 88.207 48.3523 87.6565 48.2996C86.8811 48.2231 86.2014 48.7975 86.1297 49.5681C86.0579 50.3387 86.6274 51.0232 87.3981 51.0902C87.5512 51.1046 87.6996 51.1094 87.8432 51.1094C89.4515 51.1094 90.7008 50.2669 91.3901 48.6969C92.8978 45.2554 91.256 37.482 90.2078 36.5343H90.2269ZM70.2095 26.2384V19.4654H72.3108V26.2384H70.2095ZM73.3064 29.9671V35.4477H58.6931V29.9671H73.3064ZM55.3042 21.5332C55.6105 21.6672 55.9504 21.7869 56.3237 21.897C56.2375 22.3469 56.0987 22.6772 55.8881 22.8686C55.6153 23.1175 55.1319 23.2276 54.4426 23.2133C54.7298 22.6532 55.0122 22.0932 55.3042 21.5332ZM53.581 24.8934C53.6049 24.8982 53.6289 24.9125 53.6576 24.9173C53.9735 24.9508 54.2703 24.9651 54.5527 24.9651C55.6536 24.9651 56.4673 24.7067 57.0656 24.1658C57.6352 23.6536 57.908 22.9596 58.0469 22.2655C58.5064 22.3326 59.0137 22.3852 59.5115 22.3852C60.8135 22.3852 62.0724 22.0501 62.3021 20.82C62.6563 18.9245 59.9567 18.1251 58.3197 17.8188C58.0181 17.7614 57.6783 17.7087 57.3241 17.6704C59.1861 14.1044 61.0672 10.5528 62.9627 7.0299L72.7943 6.88631C72.9761 10.1364 73.1341 13.396 73.2825 16.6653H68.8071C68.0316 16.6653 67.4046 17.2923 67.4046 18.0677V27.167H57.2906C56.5152 27.167 55.8881 27.794 55.8881 28.5694V35.9647C53.1358 35.9791 50.465 35.9982 47.9807 36.0173C49.814 32.3125 51.6855 28.603 53.581 24.8982V24.8934Z" fill="#2C3034"/>
<path d="M35.8803 22.2691C35.8803 21.5674 35.2364 21 34.4402 21C33.6439 21 33 21.5674 33 22.2691C33 26.1889 33.0049 29.6237 33.0098 33.0541C33.0148 36.4672 33.0197 39.8717 33.0197 43.7309C33.0197 44.4326 33.6636 45 34.4598 45C35.2561 45 35.9 44.4326 35.9 43.7309C35.9 39.8673 35.8951 36.4629 35.8902 33.0498C35.8852 29.6194 35.8803 26.1846 35.8803 22.2691Z" fill="#2C3034"/>
<path d="M31.678 48C27.5994 48 24.017 48.0049 20.4436 48.0098C16.8883 48.0147 13.342 48.0197 9.32196 48.0197C8.59104 48.0197 8 48.6635 8 49.4598C8 50.2561 8.59104 50.9 9.32196 50.9C13.3465 50.9 16.8928 50.8951 20.4481 50.8902C24.0215 50.8853 27.5994 50.8803 31.678 50.8803C32.409 50.8803 33 50.2365 33 49.4402C33 48.6439 32.409 48 31.678 48Z" fill="#2C3034"/>
<path d="M32.45 50.1942C32.45 47.0663 35.0828 44.45 38.4048 44.45C41.7268 44.45 44.3596 47.0663 44.3596 50.1942C44.3596 53.3221 41.7268 55.9384 38.4048 55.9384C35.0828 55.9384 32.45 53.3221 32.45 50.1942Z" stroke="#2C3034" stroke-width="2.9"/>
</svg>
